<svg xmlns="http://www.w3.org/2000/svg" viewBox="0 0 794 730"><defs><style>.a{fill:#fff;}</style></defs><path class="a" d="M-191.5,559.5V-8.15186q56.03394-.01245,112.06934-.01171l23.66552-.00049.10059-2.13526,7.334-.12158.08008-5.41064V-35.31836l-5.57275.09229-3.03174.00927.00342-2.394c-41.38965-.13428-83.46729-.144-124.15967-.15332L-191.5-37.76709v-121.73l783-.00293v719ZM-57.145,428.06445c-11.665,11.667-23.72656,23.7295-35.63086,35.5459-9.17432,9.10645-11.50244,20.01465-6.7334,31.5459A26.218,26.218,0,0,0-78.23047,511.541a29.78171,29.78171,0,0,0,4.21924.30761c7.6875,0,14.78369-3.2207,21.09033-9.57226,13.69629-13.792,27.6709-27.77344,41.18555-41.29492q18.25928-18.26808,36.48779-36.56739a3.8795,3.8795,0,0,1,3.32568-1.332c108.48633.04785,217.52833.05371,319.20313.05371l109.95508-.001c1.249,0,2.499-.00489,3.748-.043a53.654,53.654,0,0,0,28.918-9.27344c17.25586-11.67676,25.99805-28.34668,25.98536-49.54492-.06348-99.80762-.05958-198.47022.01367-293.248.00976-14.03027-4.08985-26.33594-12.18653-36.57471C493.34277,21.334,480.17773,14.12305,464.585,13.01807c-5.96777-.42286-11.91308-.47705-16.4248-.47705-2.24024,0-4.48145.01464-6.72266.02978q-2.40381.01611-4.80762.02637Q445.2124,4.02489,453.792-4.55225C470.90918-21.66016,488.6084-39.35059,506.07227-56.687c9.63964-9.56934,12.23925-20.729,7.51855-32.272a26.21017,26.21017,0,0,0-21.17871-16.50391,30.40232,30.40232,0,0,0-4.42773-.33252c-7.64551,0-14.56739,3.0791-20.57422,9.15186C454.832-83.92676,441.95605-71.07031,429.50391-58.63721q-7.61572,7.60328-15.22461,15.21143l-9.291,9.29443q-22.91748,22.92553-45.81445,45.8711a2.69566,2.69566,0,0,1-2.01074.94921c-.24219.02051-.47852.03174-.708.03174A2.29594,2.29594,0,0,1,353.957,11.252a18.17022,18.17022,0,0,0-1.97754-2.77832c-.1875-.228-.376-.45508-.55371-.68847q-4.686-6.13623-9.39453-12.25879c-7.40723-9.64893-15.06738-19.62647-22.4375-29.53516-6.34863-8.53467-14.83008-12.86182-25.209-12.86182q-26.811.02563-53.55176.022l-61.47608-.00586q-8.52612,0-17.05322-.00977-8.53125-.00732-17.0625-.00976-13.33008,0-26.6582.05468A27.97132,27.97132,0,0,0,95.74268-35.478Q87.752-25.01538,79.72949-14.57666,69.60376-1.38135,59.51025,11.83887c-.502.65869-.6455.79834-1.71533.79834q-26.33862-.063-52.64355-.04541-23.93628-.00221-47.87158-.03467h-.17139c-9.894,0-18.37305,1.7373-25.92236,5.312A56.99608,56.99608,0,0,0-93.21875,39.44873C-99.04785,48.78564-101.876,59.29-101.86523,71.563c.06591,75.15332.06054,151.56592.05468,225.4624l-.00293,67.28809q0,1.54393.02735,3.08886a54.61427,54.61427,0,0,0,14.73486,36.88575c9.66553,10.60449,21.50439,16.78027,35.2666,18.417ZM-59.33057-19.39062c-1.91357-.064-3.79638-.064-5.6416-.06446L-191.5-19.48877v-7.12256l132.16943.00049Z" transform="translate(197 165)"/><path class="a" d="M586-154V554H-186V-2.65274q54.18784-.01153,108.3745-.0105l16.10138-.00064H-55.765l.10124-2.1492,1.93664-.01816.13212-.00152,10.84437-.15335V-40.7785l-11.05187.05212-.0795.00052-2.95551.01385.00388-2.399c-41.25025-.13352-83.18238-.1435-123.73387-.15326L-186-43.26562V-153.99738Q199.98068-154.00122,586-154M357.08307,6.04678c-.30774-.39926-.598-.75244-.85382-1.06378-.14588-.17749-.29349-.35351-.43176-.53451q-4.68823-6.14-9.398-12.26386c-7.39689-9.635-15.04551-19.59814-22.39252-29.47549-7.44235-10.006-17.4086-15.07965-29.66449-15.07978q-26.62386.02592-53.25037.02189l-30.37076-.003-30.37413-.003H179.2355q-8.47877,0-16.95762-.00964-8.48812-.00732-16.97638-.00973c-10.45876,0-18.95712.01748-26.74525.055a33.29288,33.29288,0,0,0-27.1845,13.503q-7.99518,10.4685-16.022,20.91263C69.06033-9.70718,62.56769-1.24612,56.18069,7.13351c-17.03469-.03823-34.315-.03982-51.04257-.04138-15.684-.00149-31.90187-.003-47.84412-.03476l-.18887-.00012C-53.618,7.05713-62.86612,8.9675-71.16737,12.89774A62.41665,62.41665,0,0,0-97.884,36.53574c-6.3915,10.23727-9.49288,21.69638-9.48113,35.03213.066,75.06625.06025,151.39163.05488,225.204q-.00262,33.771-.00313,67.54188c0,1.05775.01138,2.11562.028,3.17338A59.96821,59.96821,0,0,0-91.11625,407.993a61.34138,61.34138,0,0,0,28.21857,18.04627C-73.978,437.12068-85.386,448.52545-96.6505,459.706c-10.73137,10.6515-13.5515,23.98763-7.94088,37.552,4.55175,11.00437,13.63588,18.01025,25.57838,19.72688a35.26806,35.26806,0,0,0,5.00137.36375c9.20688,0,17.61588-3.767,24.99351-11.19651,13.691-13.78712,27.66324-27.76612,41.17537-41.28474,11.87515-11.88086,24.15216-24.1637,36.2071-36.28513,108.63351.04751,218.958.054,322.01227.054l70.44949-.00062,35.243-.00051.54239.00013.55374.00025c1.18988,0,2.577-.0035,3.98349-.04575a59.08691,59.08691,0,0,0,31.83664-10.21613c18.86112-12.76312,28.417-30.96624,28.40225-54.10387-.0639-100.08837-.05938-198.74863.01337-293.24.0119-15.29925-4.48724-28.754-13.37225-39.99038C496.81863,16.86212,481.93051,8.73349,464.974,7.532c-5.36545-.38028-10.678-.47085-15.00476-.4877q3.85839-3.85578,7.71612-7.7117c17.112-17.103,34.80652-34.78824,52.26188-52.11661,11.18264-11.10138,14.28451-24.68814,8.7344-38.2575a31.52524,31.52524,0,0,0-25.46551-19.86213,35.89994,35.89994,0,0,0-5.23163-.39175c-9.16861-.00037-17.4065,3.62787-24.48462,10.784-12.57437,12.713-25.45224,25.57126-37.90625,38.00625q-7.60466,7.593-15.20426,15.191l-9.08523,9.08887c-14.49472,14.5-29.46274,29.47342-44.22107,44.272M597-165q-397.038,0-794,.00275V-32.49213c1.48849.07825,2.977.22449,4.4655.22489q67.83243.01816,135.66525.15625-15.6267,0-31.25092.00015-11.71791,0-23.4382-.0004-25.24087-.001-50.4793-.00235-15.859,0-31.72033.0026c-1.08062.00012-2.16137.07748-3.242.11886v18.00187q65.99588.01765,131.99162.03512c3.08.00076,6.16.00015,9.24338.29126h-5.75912q-65.87139.00284-131.74251.01276c-1.24449.00024-2.48886.10486-3.73337.16086V565H597V-165ZM356.45471,18.22052q.568,0,1.1713-.05127a8.11829,8.11829,0,0,0,5.44262-2.54626q27.52461-27.606,55.10074-55.16074C435.89688-57.2735,453.68674-74.94763,471.32062-92.776c4.80963-4.86261,10.28012-7.51956,16.66351-7.51938a24.76274,24.76274,0,0,1,3.62338.2735A20.61878,20.61878,0,0,1,508.50037-86.877c4.12988,10.097,1.307,18.7319-6.30286,26.28649Q466.0085-24.66475,430.00076,11.444c-1.297,1.29514-2.63287,2.55588-3.86126,3.91364a20.5333,20.5333,0,0,0-1.68961,2.72747c1.81827,0,3.31509-.00589,4.69415-.00589.80042,0,1.56134.002,2.322.00827q1.66155.01374,3.3226.01282c4.45417,0,8.9137-.05926,13.368-.05926,5.35739,0,10.70929.08575,16.03991.46344,14.5,1.02737,26.22638,8.004,35.20374,19.35751,7.64752,9.67139,11.01037,20.79425,11.00076,33.15912q-.11289,146.62781-.01337,293.25563c.01224,19.21262-7.71051,34.25675-23.567,44.98663a48.22916,48.22916,0,0,1-26.00211,8.33137c-1.21713.03654-2.43506.04075-3.6532.04075q-.548,0-1.09619-.00038-52.8582.00062-105.69247.00118-161.1346,0-322.29327-.05418h-.00747a9.27189,9.27189,0,0,0-7.22329,2.95388c-25.851,25.99588-51.8435,51.85112-77.67612,77.86525-4.96695,5.00186-10.533,7.94742-17.18818,7.94742a24.12447,24.12447,0,0,1-3.43582-.25179c-8.03588-1.15513-13.91513-5.63588-16.97913-13.04338-3.96725-9.59125-1.89337-18.177,5.52513-25.54025q23.0597-22.88795,45.99163-45.90475c.98037-.97987,1.88274-2.03787,3.41287-3.70325-2.2665-.11637-3.76438-.24775-5.26338-.26175A50.40357,50.40357,0,0,1-82.9865,400.583a49.199,49.199,0,0,1-13.30025-33.26937c-.01575-.99976-.02663-1.99988-.02663-2.99988q-.00168-146.3777-.05175-292.75549c-.00924-10.52289,2.23713-20.26789,7.81188-29.19687A51.30415,51.30415,0,0,1-66.46037,22.83975c7.49091-3.54648,15.3565-4.78256,23.56533-4.78253l.16379.00015c33.49875.06662,66.99775,0,100.4965.07987l.03.00006a6.90077,6.90077,0,0,0,6.09047-2.96619C75.92062-.63037,88.05775-16.354,100.11375-32.1395a22.33754,22.33754,0,0,1,18.4955-9.17974q13.34764-.06437,26.69229-.05491,16.96672,0,33.9339.01941h.12169c.33222,0,.65795,0,.99018,0q30.37032,0,60.74481.006,26.62937,0,53.26112-.02185h.03162c8.795.00019,15.51559,3.54557,20.7959,10.64463,10.46475,14.069,21.23211,27.9129,31.874,41.85012a24.06139,24.06139,0,0,1,2.08938,2.79026,7.67834,7.67834,0,0,0,7.31058,4.30615ZM-53.83038-15.83075V-29.726l.07975-.00049v13.89487l-.07975.00088Z" transform="translate(197 165)"/><path d="M-197-13.99025q65.99585.01758,131.99168.03507c3.07995.00081,6.15991.00012,9.24332.29133q-2.87958,0-5.75919,0-65.87119.00279-131.74238.01263c-1.24449.00029-2.48895.105-3.73343.161Z" transform="translate(197 165)"/><path class="a" d="M-197-13.99026v.50006c1.24446-.056,2.48895-.16071,3.73341-.161q65.87121-.01544,131.74241-.01264,1.43979-.00009,2.87959-.00006H-55.765c-3.08341-.29117-6.16336-.2905-9.24332-.29132Q-131.00416-13.97255-197-13.99026Z" transform="translate(197 165)"/><path d="M-197-32.49211c1.4885.07824,2.977.22446,4.4655.22486q67.83252.01818,135.66526.15619-27.34458,0-54.68913-.00015-41.09979-.00177-82.19959.00018c-1.08069.0002-2.16136.07757-3.242.119Z" transform="translate(197 165)"/><path class="a" d="M-197-32.49213v.50006c1.08064-.04138,2.16131-.11874,3.242-.11892q15.88657-.0029,31.771-.00257,25.21326,0,50.42858.00238,10.41778.00042,20.834.00037,16.9268,0,33.85518-.00024-67.83281-.21945-135.66523-.15619c-1.48855-.0004-2.977-.14664-4.4655-.22489Z" transform="translate(197 165)"/><path d="M-74.01123,500.84863a18.746,18.746,0,0,1-2.65381-.19629c-6.11426-.8789-10.38037-4.14257-12.6792-9.70117-3.05078-7.375-1.67871-13.582,4.31738-19.53418,11.916-11.82715,23.98243-23.89551,35.65137-35.56543l10.354-10.35351c.73584-.73535,1.4121-1.48438,2.19531-2.35352.40332-.44726.853-.94531,1.37842-1.51758l7.918-8.61523-11.68554-.59961c-.76367-.03906-1.438-.08008-2.05322-.11719-1.24415-.07519-2.31836-.14062-3.44141-.15137a45.19041,45.19041,0,0,1-34.21143-15.26562A43.91234,43.91234,0,0,1-90.7876,367.22656c-.01562-.97168-.02588-1.94238-.02588-2.91308l.00342-67.46582c.00537-74.23926.01123-151.00684-.05615-226.51123a47.08439,47.08439,0,0,1,6.31982-23.97754A45.59848,45.59848,0,0,1-64.10693,27.811c6.12939-2.90235,12.8706-4.25391,21.21484-4.25391h.1499q23.94947.04761,47.8999.03516,26.29761.00219,52.59424.04492a12.41227,12.41227,0,0,0,10.50879-5.13282Q78.33228,5.28053,88.46631-7.89307q8.0171-10.448,16.01855-20.9082a16.8987,16.8987,0,0,1,14.15088-7.01807q13.30665-.06444,26.61719-.05468,8.52466,0,17.04736.00976,8.52759.00732,17.05664.00977l61.41455.00586q26.79639,0,53.5879-.022c7.0205,0,12.07324,2.59913,16.4082,8.42725,7.4209,9.97607,15.10644,19.98779,22.53906,29.66943q4.69482,6.11427,9.37695,12.23584l2.30371,3.07715.292.28809c.99023.97851,6.21972,5.85889,11.94922,5.85889.28906,0,.57421-.01221.85937-.03614a13.51522,13.51522,0,0,0,8.876-4.144Q389.82422-3.42262,412.72656-26.313l9.332-9.33642q7.59375-7.59669,15.19727-15.1836c12.4707-12.45166,25.36523-25.32715,37.97461-38.07519,3.91894-3.96143,8.09082-5.88721,12.75391-5.88721a19.39586,19.39586,0,0,1,2.81933.21436,15.20163,15.20163,0,0,1,12.60547,9.78613c3.02734,7.40039,1.41016,13.85156-5.08691,20.30127-12.79981,12.707-25.21094,25.37353-37.21387,37.623C450.44238-15.98584,439.41309-4.73,428.11523,6.55176L411.2832,23.585l17.85157-.00586c.78808,0,1.53711.002,2.28613.0083q1.68163.01392,3.36621.0127c2.24023,0,4.48144-.01465,6.72266-.02979,2.21679-.01465,4.43359-.02929,6.64941-.02929,4.33105,0,10.02344.05127,15.64844.4497,12.38086.877,22.90429,6.6919,31.27832,17.28223,6.61328,8.36328,9.82324,18.09277,9.81543,29.74414-.07325,94.793-.07715,193.46143-.01367,293.26318.01074,17.56543-6.90723,30.79-21.14942,40.42871a42.83425,42.83425,0,0,1-23.085,7.3877c-1.13867.03516-2.27734.03809-3.415.03809l-109.81348.001c-101.70214,0-210.7788-.00586-319.33886-.05371a14.77979,14.77979,0,0,0-11.13379,4.57617Q-1.25074,434.9629-19.5166,453.207c-13.52051,13.52637-27.501,27.51367-41.21,41.31934C-65.00977,498.83984-69.231,500.84863-74.01123,500.84863Zm54.40185-122.23925c8.48,0,14.957.02343,21.00147.07421h.1582a14.40638,14.40638,0,0,0,10.83057-4.53613c12.208-12.30078,24.67627-24.76074,36.73389-36.81055L61.62354,324.832,73.5293,312.917c12.07519-12.08594,24.561-24.584,36.873-36.83887,4.3584-4.34082,3.55664-8.61816,2.1167-11.44238-.7998-1.56738-1.51855-3.209-2.27929-4.94629l-.58692-1.33691a98.60435,98.60435,0,0,1-7.958-32.89942,104.65876,104.65876,0,0,1,6.63477-44.92285A104.922,104.922,0,0,1,173.25244,117.894a100.581,100.581,0,0,1,28.95068-5.46338q2.17383-.06372,4.34083-.06494a101.98345,101.98345,0,0,1,24.43066,2.70117,105.48793,105.48793,0,0,1,23.29394,8.46094,8.83893,8.83893,0,0,0,4.00879.96533,8.96634,8.96634,0,0,0,6.30567-2.62158c20.15137-20.20654,40.8789-40.937,61.60742-61.61377a8.39293,8.39293,0,0,0,2.74609-6.13427c-.07324-3.35206-2.29687-5.79542-4.85449-8.16407L293.81641,6.01367c-2.20118-4.12207-5.46485-8.1914-12.53321-8.1914-32.42773.04736-64.30468.05371-93.92724.05371l-51.834-.00244c-.40674,0-.81543-.01416-1.22461-.02735-.52636-.0166-1.05322-.03271-1.57715-.03271a17.62874,17.62874,0,0,0-2.793.19677,10.3614,10.3614,0,0,0-6.4502,3.51514l-5.31836,6.87305C108.333,21.09229,98.17236,34.21826,88.40381,47.32666c-5.042,6.7666-10.498,9.65381-18.24414,9.6543-.24072,0-.48291-.00293-.728-.00879-6.78906-.16065-14.1123-.23535-23.04736-.23535q-8.22949,0-16.46.05468-8.18336.041-16.36524.05469l-29.96728-.00342q-13.3938,0-26.78516.01465c-8.72119.01123-14.21924,5.44336-14.34912,14.17725-.01123.75879-.00928,1.51806-.00781,2.27685l.00293,289.5459-.0044.67481c-.00781.832-.0166,1.77441.06738,2.78222A12.749,12.749,0,0,0-45.647,378.49512a29.18313,29.18313,0,0,0,3.17529.1289S-23.09033,378.60938-19.60938,378.60938Zm88.24952-.51172a9.99641,9.99641,0,0,1,1.23242.17285A17.66619,17.66619,0,0,0,73,378.60938q119.86817.01756,239.73535.0166l144.01953-.00489c9.70117-.001,14.8291-5.167,14.8291-14.93847q.00587-146.05665,0-292.11328a14.73582,14.73582,0,0,0-14.71289-14.72071l-35.666.01172c-10.26856,0-23.80176-.00976-37.41211-.0874l-.11914-.00049a15.88281,15.88281,0,0,0-11.90235,5.03369C350.90137,82.771,329.62793,104.03857,309.05469,124.606l-16.5918,16.58838c-4.95605,4.95752-5.16992,7.99609-.95605,13.55029a104.085,104.085,0,0,1,20.75683,54.6206,102.82877,102.82877,0,0,1-5.09179,41.59082,105.15813,105.15813,0,0,1-63.59571,65.82618,107.45493,107.45493,0,0,1-32.89746,6.58984c-1.30273.05371-2.626.08105-3.93359.08105a105.34137,105.34137,0,0,1-32.24414-5.292A104.06221,104.06221,0,0,1,144.1626,302.543l-.16553-.12305c-2.13428-1.59082-3.97705-2.96387-6.60156-2.96387-3.17383,0-5.084,1.91016-7.29639,4.123L118.05664,315.624q-19.3374,19.34326-38.689,38.67188c-3.0918,3.085-6.2837,6.19726-9.37061,9.207q-2.64916,2.58252-5.2915,5.17187l-9.77881,9.6045ZM261.42578,175.21484a7.86611,7.86611,0,0,0-6.13769,3.23047c-.10254.11621-.2334.229-.3584.34766-.17676.1665-.35254.33349-.52344.50439l-69.51758,69.522q-8.78247,8.78613-17.56933,17.56738c-1.065,1.06348-3.28174,3.27734-2.90772,6.62793a7.71834,7.71834,0,0,0,3.97559,5.67969,70.09789,70.09789,0,0,0,28.14892,10.44336,83.24015,83.24015,0,0,0,11.01758.7539,67.48271,67.48271,0,0,0,34.42285-9.07617c23.97364-13.958,36.13867-35.03809,37.19043-64.44336l.01856-.499-.07227-.49414c-.13867-.94434-.28516-2.02539-.44433-3.20508-.417-3.085-.93653-6.92481-1.63868-10.74414-1.60937-8.75635-5.63379-16.33155-8.96093-21.95264C265.876,175.76855,262.96582,175.21484,261.42578,175.21484Zm-53.73926-29.49951c-17.43554,0-35.38379,6.62647-48.01172,17.72559C136.07568,184.18359,130.82617,215.79,137.8374,236.292l2.856,8.35059,92.41309-92.47949-7.38868-3.22559C220.88965,146.82959,214.6543,145.71533,207.68652,145.71533Z" transform="translate(197 165)"/><path class="a" d="M487.98654-100.29538v11a13.82906,13.82906,0,0,1,2.01221.15521c4.18933.61933,6.75543,2.60169,8.32034,6.42755,1.82855,4.47068,1.87,8.616-3.87134,14.31556-12.8251,12.7319-25.24789,25.41-37.26156,37.67068-10.65766,10.87665-21.6781,22.12366-32.95777,33.38632l-.026.026-.02591.02613-7.55087,7.64111L398.115,29.08505h26.3349c.97757,0,1.8631-.00165,2.68768-.0032l1.99909-.00269c.77191,0,1.50491.00189,2.2388.008q1.70466.014,3.4122.01312c2.2518,0,4.50458-.01489,6.75735-.02988,2.2041-.01455,4.40833-.02935,6.61142-.02935,4.24179,0,9.80991.04956,15.2627.43591,10.92608.7742,19.87332,5.74878,27.35275,15.20776,5.81458,7.35346,8.63724,15.96546,8.62924,26.328-.07278,94.447-.07733,193.11766-.01346,293.27111.01011,15.817-5.9421,27.21478-18.73178,35.86933a37.41861,37.41861,0,0,1-20.16754,6.44656c-1.10068.033-2.24.03577-3.31256.03577l-.54678-.00022-.55988-.00022-31.8548.00044-74.3352.00078c-102.85989,0-213.03534-.00655-321.80234-.05422a20.21334,20.21334,0,0,0-15.024,6.19744C.92864,424.9715-11.435,437.34117-23.3917,449.30362c-13.52833,13.53477-27.51722,27.53044-41.237,41.34666-4.13545,4.16445-7.18689,4.69844-9.38333,4.69844a13.19682,13.19682,0,0,1-1.87034-.13988c-4.22722-.60767-6.81156-2.56912-8.37944-6.35978-2.175-5.25822-1.27412-9.17778,3.10944-13.52856,11.92844-11.83977,24.00344-23.91622,35.68089-35.595l10.338-10.337c.83833-.838,1.56122-1.63933,2.39811-2.56722.39222-.43477.82867-.91878,1.33844-1.47366l15.82956-17.22856-23.36578-1.19933c-.74277-.03811-1.39867-.07811-1.99778-.11445-1.26611-.07689-2.462-.14944-3.72689-.16133a39.38639,39.38639,0,0,1-30.199-13.471,38.06393,38.06393,0,0,1-10.43134-26.03289c-.01488-.942-.02522-1.88422-.02522-2.82633q-.00051-33.88017.00311-67.76023c.00545-74.14421.01111-150.81288-.056-226.2219a41.58579,41.58579,0,0,1,5.55766-21.17877,40.26669,40.26669,0,0,1,18.05523-16.371c5.36722-2.541,11.35978-3.72455,18.85889-3.72455l.14133.00012c15.96856.03177,32.19911.03333,47.89533.03476,17.24089.00156,35.06878.00333,52.59689.04511h.05611a17.79247,17.79247,0,0,0,14.84145-7.30121C79.33308,13.04382,86.18,4.12106,92.80141-4.50806q8.03518-10.47133,16.05434-20.95477a11.428,11.428,0,0,1,9.80656-4.85657c7.75022-.03732,16.21611-.05478,26.64255-.05478q8.49533,0,16.98956.00968,8.504.00732,17.00856.00979h.93777l30.39112.003,30.39444.003q26.66967,0,53.35867-.02189c5.22122,0,8.689,1.799,11.96966,6.20957,7.44755,10.01254,15.14856,20.04388,22.5961,29.74487q4.67346,6.08744,9.33619,12.18311l2.05215,2.74057.491.65588.58279.57578c1.7681,1.74688,8.13388,7.44656,15.81565,7.44656.44146,0,.8861-.01868,1.32168-.05533a18.98021,18.98021,0,0,0,12.30811-5.74066C386.20465,7.998,401.83087-7.63373,416.94241-22.75082l9.007-9.01056q7.59453-7.59819,15.19934-15.18622c12.47434-12.45523,25.37345-25.33469,37.99256-38.0929,3.73-3.77111,6.68545-4.25479,8.84335-4.25488l.00189-11M70.16109,51.48071c-.19767,0-.39634-.00232-.59934-.00711-6.83122-.16153-14.192-.23675-23.16467-.23675-5.50578,0-11.09011.02789-16.49055.05487-5.36256.02679-10.90767.05444-16.34734.05456h-.68011l-14.64144-.00177L-16.408,51.34262q-13.397,0-26.79267.01465c-11.69422.01535-19.66766,7.89035-19.84088,19.59622-.01167.78845-.01022,1.57724-.00834,2.36591l.00134.79654-.00011,143.49589v15.289l.00144,129.9569c0,.20767-.00211.41566-.00411.62366-.00856.90345-.01911,2.02778.08611,3.28956.78678,9.42722,7.35233,16.17544,16.72633,17.19178a33.28294,33.28294,0,0,0,3.71089.16122l.21956-.00011.24677-.00011,1.79078.00033q5.17667,0,10.35434-.00711,5.166-.00518,10.33155-.007c8.45845,0,14.914.02244,20.929.07278l.21056.00089a19.83292,19.83292,0,0,0,14.72989-6.16223c12.17077-12.263,24.60444-24.68878,36.62877-36.70533q6.301-6.297,12.59989-12.59589,6.08883-6.09084,12.17523-12.18411c11.98455-11.99589,24.3771-24.40011,36.59455-36.56089,5.08056-5.05745,6.25267-11.726,3.13567-17.83812-.72556-1.42266-1.41223-2.99089-2.13933-4.6511q-.29768-.67966-.597-1.35866a93.13917,93.13917,0,0,1-7.502-31.07034,99.209,99.209,0,0,1,6.29234-42.57833,99.42324,99.42324,0,0,1,61.51223-59.36424,95.14692,95.14692,0,0,1,27.37887-5.18576c1.4229-.04166,2.83023-.06278,4.183-.06278a96.572,96.572,0,0,1,23.12254,2.54368,100.06785,100.06785,0,0,1,22.09256,8.01388,14.36155,14.36155,0,0,0,16.71478-2.66724c20.20334-20.25842,40.92777-40.98532,61.59757-61.60476A13.67434,13.67434,0,0,0,334.43552,54.003c-.12262-5.59076-3.68457-9.35092-6.26694-11.757L298.45227,3.02444c-2.663-4.84106-7.34463-10.70214-17.208-10.70214-32.36888.04708-64.52476.05352-94.452.05352l-24.79834-.001-24.79966-.00113H135.5222c-.34823,0-.69823-.01309-1.04823-.02432-.58556-.01877-1.17111-.03568-1.75366-.03568a22.956,22.956,0,0,0-3.64922.26379,15.90328,15.90328,0,0,0-9.94645,5.58567L113.82931,5.0065c-9.84756,12.72144-20.03056,25.87613-29.83567,39.03412-3.98978,5.35409-7.86811,7.44009-13.83255,7.44009m136.584,266.47246a99.85719,99.85719,0,0,1-30.55844-5.02734,98.592,98.592,0,0,1-28.73934-14.7941l-.16722-.12467c-2.42256-1.80489-5.43745-4.05111-9.88478-4.05111-5.45189,0-8.76556,3.31389-11.18511,5.73366l-12.27111,12.27378q-19.22134,19.22683-38.45668,38.43945c-3.06155,3.05566-6.23422,6.149-9.30233,9.14033q-2.66749,2.60084-5.32844,5.20811L41.27919,383.928l27.13429-.3269c.14125.02245.34568.05837.507.08668a22.888,22.888,0,0,0,4.08146.42122q119.4778.018,238.96033.01678,72.39867,0,144.79288-.00478c12.72867-.00089,20.32821-7.64133,20.32889-20.43833q.00618-146.05666.00033-292.11356a20.24274,20.24274,0,0,0-20.21133-20.22055l-3.35556-.00046q-8.07867,0-16.15744.00611-8.07249.00466-16.1449.00613c-10.26209,0-23.78619-.00989-37.41211-.08722l-.12955-.00033a21.335,21.335,0,0,0-15.79922,6.65277c-20.79889,20.89343-42.00189,42.09045-62.50687,62.58954L288.57175,137.308c-6.94657,6.94678-7.36512,12.96212-1.44467,20.76244a98.674,98.674,0,0,1,19.65878,51.78168,97.382,97.382,0,0,1-4.83545,39.37632A99.66125,99.66125,0,0,1,241.66685,311.625a101.944,101.944,0,0,1-31.21676,6.25133c-1.22734.051-2.47389.07689-3.705.07689m-68.39955-63.18066,12.477-12.48578,80.47633-80.53334,11.39744-11.40555L227.919,143.89673c-5.5169-2.40845-12.513-3.68146-20.232-3.68146-18.73389,0-38.03989,7.13835-51.64344,19.0949-25.41345,22.33711-31.01323,56.52944-23.41,78.76078l5.712,16.70156m112.902-80.06714-.0919.08647c-.21533.20311-.42955.40744-.63933.61722l-7.5959,7.59588-53.17122,53.17267-8.38344,8.38623q-8.964,8.96817-17.93333,17.93145c-1.4099,1.40821-5.155,5.14888-4.48666,11.13033.30821,2.758,1.68777,6.68344,6.50965,9.72166a75.5682,75.5682,0,0,0,30.35,11.24211,88.81079,88.81079,0,0,0,11.74744.802,72.90744,72.90744,0,0,0,37.19033-9.82256c25.38022-14.77679,38.81134-37.99168,39.92023-68.99967l.03568-.99767-.14457-.98788c-.13543-.92578-.27856-1.98612-.4349-3.14189-.4252-3.14411-.95444-7.057-1.67978-11.00579-1.76553-9.61055-6.07776-17.74621-9.63733-23.76022-3.71832-6.28255-9.19476-6.96077-11.37665-6.96077a13.12154,13.12154,0,0,0-10.17833,4.99042M487.98431-100.29541c-6.38278.00024-11.8544,2.65717-16.66366,7.51947C453.68674-74.9476,435.89685-57.2735,418.1694-39.53772q-27.559,27.57165-55.10077,55.16077a8.11866,8.11866,0,0,1-5.44265,2.54623q-.19758.01666-.3974.01645c-3.76123,0-8.08451-4.27145-8.08451-4.27145l-2.08932-2.79023C336.41287-2.81317,325.64554-16.657,315.18076-30.726c-5.28064-7.09943-11.99991-10.6446-20.79575-10.6446l-.03183,0q-26.66442.02592-53.32689.02186-30.39493,0-60.78554-.006l-.88366,0H179.303q-17.00009,0-33.99811-.0195-13.34607,0-26.69553.05494a22.338,22.338,0,0,0-18.49556,9.17977c-12.056,15.78556-24.19311,31.50913-36.228,47.31067a6.90073,6.90073,0,0,1-6.09061,2.96616l-.02984-.00006c-33.49877-.07987-66.99777-.01322-100.49655-.07987l-.16326-.00018c-8.20884,0-16.07489,1.236-23.56585,4.78262A51.33073,51.33073,0,0,0-89.284,43.56561,52.57185,52.57185,0,0,0-96.36625,70.3414q.13083,146.98616.05289,293.97244c0,.99989.01078,2,.02656,2.99977A49.19981,49.19981,0,0,0-82.98658,400.583a50.40408,50.40408,0,0,0,38.22622,17.06056c1.499.014,2.99689.14544,5.26333.26177-1.53011,1.66534-2.43244,2.72334-3.41289,3.70334q-22.98,22.968-45.99155,45.90466c-7.41856,7.36322-9.49234,15.949-5.52511,25.54022,3.064,7.40756,8.94311,11.88823,16.979,13.04345a24.11446,24.11446,0,0,0,3.4356.25174c6.65456,0,12.22186-2.94591,17.18852-7.94741,25.83255-26.01411,51.825-51.86944,77.67611-77.86533a9.27247,9.27247,0,0,1,7.22414-2.95389h.00664q160.89951.07042,321.79567.0542,53.09335,0,106.19009-.0012.55339,0,1.1066.00039c1.21442,0,2.42923-.00425,3.64276-.04072a48.2293,48.2293,0,0,0,26.00211-8.33134c15.85654-10.72989,23.57922-25.774,23.567-44.98655q-.09347-146.62783.01346-293.25566c.00955-12.365-3.35333-23.48779-11.00079-33.15924-8.97745-11.35343-20.70389-18.33-35.20377-19.35742-5.33133-.37778-10.682-.46347-16.04013-.46347-4.45495,0-8.91388.05926-13.36871.05926q-1.66059,0-3.32172-.01282c-.76315-.00628-1.526-.00827-2.32931-.00827-1.37686,0-2.872.00583-4.6868.00583l7.5509-7.64111c24.05664-24.02045,46.07077-47.08389,70.19678-71.03442,7.60986-7.55457,10.43265-16.18946,6.30277-26.28647a20.61865,20.61865,0,0,0-16.8928-13.145,24.73978,24.73978,0,0,0-3.6232-.27347ZM70.161,62.48074c9.82212,0,16.84714-4.07626,22.65294-11.86734,11.46945-15.39135,23.27111-30.53546,35.01289-45.72189a4.92515,4.92515,0,0,1,2.95555-1.44791,12.4391,12.4391,0,0,1,1.93785-.12988c.93086,0,1.87137.06,2.80194.06h1.67212q24.79965,0,49.598.00217,47.23325,0,94.468-.05359l.02164,0c3.61228.00006,5.632,1.30767,7.87723,5.65158l30.83667,40.70031c3.75024,3.42624,4.301,4.703,2.30969,6.68946q-30.84819,30.773-61.6178,61.625a3.40938,3.40938,0,0,1-2.41024,1.00467,3.29315,3.29315,0,0,1-1.50351-.36158,111.421,111.421,0,0,0-24.49324-8.90765,107.68371,107.68371,0,0,0-25.73412-2.85822q-2.24775,0-4.50465.06745a106.36363,106.36363,0,0,0-30.52268,5.74121c-20.44278,6.78589-37.27966,18.76855-50.85988,35.33556A108.30966,108.30966,0,0,0,103.186,178.5815a109.65774,109.65774,0,0,0-6.97722,47.26733,103.69216,103.69216,0,0,0,8.41366,34.72823c.97223,2.19812,1.9059,4.41823,2.99668,6.55722,1.04755,2.05412.46921,3.48622-1.09667,5.045q-24.44466,24.3315-48.78878,48.764Q33.09114,345.59379,8.477,370.27262a8.99767,8.99767,0,0,1-6.92242,2.911l-.116-.00049q-10.51239-.088-21.02356-.07319-10.34184,0-20.68583.01408-.89335,0-1.78672-.00033h-.04917q-.21048,0-.42127.00018a23.44383,23.44383,0,0,1-2.525-.09706c-4.15555-.45056-6.60011-2.97445-6.95033-7.17078-.08289-.99378-.04389-1.99855-.04389-2.99833q-.00251-72.62285-.00144-145.2459-.00018-71.748.00011-143.49589c0-1-.009-2.0001.00578-2.99988.08477-5.72812,3.09188-8.75122,8.85655-8.75879q13.38974-.01735,26.77819-.01459,14.64356,0,29.28718.0036h.68007c10.94567-.00018,21.89232-.10943,32.838-.1094,7.63619,0,15.27268.05316,22.90461.23361.2891.00684.57491.01025.85928.01025ZM206.745,328.95312q2.0749,0,4.16172-.08628a112.3813,112.3813,0,0,0,34.57967-6.92633,110.66181,110.66181,0,0,0,66.9071-69.25644,107.86847,107.86847,0,0,0,5.34913-43.806c-1.879-21.138-8.94123-40.44568-21.85358-57.458-2.53488-3.33978-2.5282-3.34477.46356-6.33667q39.67749-39.68,79.31744-79.39745a10.398,10.398,0,0,1,8.00309-3.41323l.08825.00024q18.72726.10638,37.45383.08734,16.15095,0,32.30231-.01221,1.67554,0,3.3522.00043a9.22015,9.22015,0,0,1,9.21466,9.22076q.00568,146.05651-.00033,292.1129c-.00034,6.78067-2.60544,9.43833-9.32965,9.43878q-72.39831.00453-144.79209.00479-119.4771,0-238.9587-.01679c-1.45367-.00011-2.90707-.51068-4.36063-.51068l-.08315.00057c4.894-4.80711,9.83789-9.56434,14.69322-14.41034q25.3885-25.33966,50.73555-50.721c1.70624-1.70636,2.51384-2.51159,3.40666-2.51159.82711,0,1.72739.69156,3.48224,1.99836a108.978,108.978,0,0,0,31.93811,16.44233,110.21813,110.21813,0,0,0,33.92939,5.55651Zm-63.70339-94.44184c-6.29156-18.39611-1.56433-47.7531,20.26389-66.93889,13.09384-11.5087,30.50337-16.35712,44.38142-16.35712,6.22255,0,11.73737.97556,15.831,2.76268q-40.09733,40.12582-80.47633,80.53333Zm64.51123,49.88006a77.43307,77.43307,0,0,1-10.28634-.7045,64.51931,64.51931,0,0,1-25.94712-9.64622c-2.35121-1.48145-1.42978-2.44779-.11343-3.76256q13.16933-13.15283,26.32178-26.32266,30.38267-30.38484,60.76677-60.76824c.41223-.41211.8641-.791,1.23355-1.23822a2.70785,2.70785,0,0,1,1.89776-1.234c.66663,0,1.29306.52032,1.91046,1.56351,3.73923,6.31765,6.94822,12.87088,8.28455,20.14511.94311,5.13388,1.5488,10.32977,2.04956,13.75255-.98187,27.45712-12.30322,46.98544-34.46188,59.88655a61.90248,61.90248,0,0,1-31.65566,8.32873Z" transform="translate(197 165)"/><path d="M-53.75057-29.72648v13.8949l-.07981.00081V-29.726Z" transform="translate(197 165)"/><path class="a" d="M-53.75057-29.72647l-.07982.00049v13.8952l.07982-.00079v-13.8949Z" transform="translate(197 165)"/><path class="a" d="M1.48291,367.68359c-6.07422-.05078-12.57959-.07421-21.0918-.07421-3.48144,0-22.86523.01464-22.86523.01464a19.44547,19.44547,0,0,1-1.98584-.06445c-1.52637-.166-1.93164-.58984-2.0625-2.16016-.0415-.499-.03613-1.11328-.02979-1.76269l.00489-.7793-.00293-289.57226c-.00147-.69629-.00342-1.39258.00683-2.08838.04053-2.74268.63819-3.33594,3.36426-3.33936q13.37988-.01758,26.76025-.01465l29.978.00342q8.20826,0,16.41944-.05469,8.20384-.041,16.40625-.05468c8.8457,0,16.08642.07373,22.78711.23242q.498.01172.98828.01172c11.15088,0,20.00341-4.606,27.064-14.08155,9.70947-13.02929,19.83936-26.11572,29.63623-38.77148l4.84473-6.26123a7.69476,7.69476,0,0,1,1.01562-.05322c.40674,0,.81592.01416,1.2251.02734.52637.01709,1.05274.03272,1.57617.03272l51.8042.00244c29.63672,0,61.53028-.00635,93.94238-.05371,1.26661,0,1.36133.12548,1.88477.82128,11.80176,15.686,23.6123,31.11817,33.75879,44.33155-19.918,19.87207-39.76953,39.72705-59.04395,59.05224a117.45869,117.45869,0,0,0-24.28222-8.646,112.77241,112.77241,0,0,0-27.042-3.01563c-1.51368,0-3.083.02344-4.66309.06983a111.34681,111.34681,0,0,0-32.09375,6.01855,116.80526,116.80526,0,0,0-79.064,118.791,109.55157,109.55157,0,0,0,8.86963,36.55664l.57129,1.30078c.65528,1.49707,1.32959,3.03613,2.07959,4.57617C90.05713,280.80957,77.71143,293.167,65.76758,305.12207L53.84424,317.05469,41.34277,329.55176c-12.0664,12.05957-24.54394,24.52832-36.76953,36.84668a3.59433,3.59433,0,0,1-3.02344,1.28613Z" transform="translate(197 165)"/><path class="a" d="M279.79318,14.32437c10.351,13.74591,20.66248,27.23886,29.81562,39.16864-17.76322,17.7272-35.51957,35.48633-52.90241,52.91089a126.04816,126.04816,0,0,0-21.81407-7.36526,118.185,118.185,0,0,0-28.34523-3.1728c-1.56731-.00006-3.19147.02417-4.82717.07209a116.73712,116.73712,0,0,0-33.66607,6.29678,122.30317,122.30317,0,0,0-82.81654,124.406,115.054,115.054,0,0,0,9.32539,38.38638q.28455.64317.566,1.28817.25517.58263.51514,1.17335c-11.22425,11.18257-22.54614,22.51512-33.52568,33.50488q-6.08135,6.08711-12.16392,12.17292-6.28,6.282-12.56416,12.56007c-11.93671,11.92909-24.276,24.26051-36.37852,36.45281-5.92884-.04785-12.30723-.06927-20.58355-.06927q-5.1825,0-10.36462.00708-5.17107.00519-10.34223.007l-.76847-.00014-.00145-132.8924V217.61186l.00015-143.49592-.00124-.7612q12.33209-.01424,24.66447-.012l14.65531.00177,14.65954.00183h.63c5.49377-.00015,11.067-.02792,16.45677-.05484,5.37423-.02685,10.93138-.05462,16.382-.05462,8.79562,0,15.99077.07324,22.64254.23056.37607.00891.75046.0133,1.12038.0133,13.00746,0,23.30246-5.32992,31.47316-16.29455,9.68454-12.99607,19.80453-26.06946,29.59137-38.71247l3.18532-4.11651c.37108.00973.74172.01654,1.11115.01654h1.44639l24.93038.00107,24.93185.00116c29.41277,0,61.00545-.00635,92.9624-.05158M132.72014,3.31372a12.44873,12.44873,0,0,0-1.93775.12982,4.92593,4.92593,0,0,0-2.95554,1.44794C116.08508,20.07794,104.28339,35.22208,92.814,50.6134c-5.8062,7.79154-12.82978,11.86731-22.65285,11.86731-.28376,0-.57091-.00342-.85939-.01025-7.63307-.18045-15.26622-.23358-22.90356-.23358-10.94451,0-21.89451.10922-32.839.10943h-.62977q-14.6574,0-29.31488-.0036-13.40016,0-26.80081.01462c-5.7647.00754-8.77185,3.03061-8.85662,8.75876-.01477.99969-.00577,1.99985-.00577,2.99985q-.00023,71.748-.00015,143.49592,0,72.62295.00146,145.24592c.00008.99977-.039,2.00446.04392,2.99831.35024,4.19623,2.79485,6.72023,6.95031,7.17077a23.48627,23.48627,0,0,0,2.52977.09707q.20447,0,.40853-.00016h.05724q.88937.00034,1.77868.00033,10.35381,0,20.70685-.01413,10.5051,0,21.01047.07319l.11591.00048a8.998,8.998,0,0,0,6.92263-2.911q24.55316-24.73916,49.25661-49.32931,24.38434-24.39221,48.78877-48.764c1.56593-1.55878,2.14424-2.99084,1.09677-5.04507-1.09085-2.13893-2.02446-4.35916-2.99677-6.55716a103.69214,103.69214,0,0,1-8.41361-34.7283,109.657,109.657,0,0,1,6.97722-47.26725,108.30919,108.30919,0,0,1,17.47339-30.57145c13.58023-16.567,30.41715-28.5497,50.85993-35.33553a106.36392,106.36392,0,0,1,30.52269-5.74133q2.25666-.06606,4.50453-.06742a107.69221,107.69221,0,0,1,25.73416,2.85828,111.81124,111.81124,0,0,1,24.05454,8.68445,4.55942,4.55942,0,0,0,2.03961.57464,3.66116,3.66116,0,0,0,2.61624-1.2987q30.61743-30.70029,61.31445-61.32092c1.36884-1.36548,1.53647-2.39563.28931-4.01917Q304.97933,29.4118,287.54932,6.3374a6.94365,6.94365,0,0,0-6.26718-3.01516h-.02183q-47.21538.06866-94.42956.05368-24.93311,0-49.8622-.00223c-.48033,0-.966,0-1.44639,0-.93076,0-1.871-.06-2.802-.06Z" transform="translate(197 165)"/><path class="a" d="M313.14355,367.626q-115.80907,0-231.60693-.01563c1.86914-1.8291,3.749-3.67969,5.60156-5.5293q19.32495-19.28758,38.62012-38.60253l11.99316-11.99512a115.05626,115.05626,0,0,0,33.37842,17.14844,116.30166,116.30166,0,0,0,35.61621,5.82128c1.458,0,2.93457-.03027,4.38965-.09082a118.42606,118.42606,0,0,0,36.26074-7.26367,116.16323,116.16323,0,0,0,70.21875-72.6875,113.75529,113.75529,0,0,0,5.60547-46.02051c-1.98925-22.38183-9.58789-42.50244-22.58593-59.81152l16.19238-16.18945c20.5791-20.57324,41.85937-41.84717,62.74023-62.82324a4.96552,4.96552,0,0,1,4.10645-1.79346c13.69433.07715,27.23926.0874,37.51562.0874l35.07032-.01221c4.042.001,4.32421.28321,4.32519,4.31885q.00439,145.75709-.001,291.51563c0,3.84668-.26953,3.9375-3.83007,3.93847ZM401.28613,86.49561c-1.123.00048-2.24609.00927-3.36914.03466a24.69769,24.69769,0,0,0-14.251,4.938c-9.78223,7.15528-13.6377,17.32178-11.1504,29.40039,1.877,9.12256,10.80665,18.293,19.499,20.0249a74.63908,74.63908,0,0,0,14.54492,1.42627h.001a79.80469,79.80469,0,0,0,13.51269-1.1748c11.47266-1.977,20.63086-12.12988,21.77539-24.14063a27.51032,27.51032,0,0,0-6.9375-21.30859,28.34191,28.34191,0,0,0-20.83886-9.20068q-1.35059-.00952-2.70118-.0083l-4.585.00586Z" transform="translate(197 165)"/><path class="a" d="M383.67316,73.27274l.02585.00009c13.65954.0776,27.22259.08752,37.51269.08752q8.08662,0,16.17337-.00613,8.08049-.00462,16.16086-.00617l1.53857.00019q.00555,144.3875-.00036,288.77277-71.60967.00451-143.23615.00473-108.488,0-216.95556-.01366,17.30217-17.27616,34.58265-34.572l8.8768-8.8787a123.95228,123.95228,0,0,0,68.39319,21.29178c1.53354,0,3.08724-.03223,4.618-.09577a123.90742,123.90742,0,0,0,37.94284-7.60131,121.66153,121.66153,0,0,0,73.53078-76.11646,119.24154,119.24154,0,0,0,5.86267-48.23554,120.6516,120.6516,0,0,0-20.86664-58.74379l13.00995-13.00767c20.54-20.53424,41.77939-41.76746,62.62332-62.7063.06958-.06992.12955-.12717.17994-.17346l.02722-.00009m12.113,7.87194a30.66932,30.66932,0,0,0-15.36725,5.88437c-11.48092,8.39878-16.20114,20.81015-13.29113,34.94785,2.35492,11.44107,12.81485,22.11954,23.81323,24.31045a80.13154,80.13154,0,0,0,15.61874,1.53225,85.33156,85.33156,0,0,0,14.44764-1.25432c13.87246-2.39092,24.94015-14.60321,26.31646-29.03815a32.95158,32.95158,0,0,0-8.32956-25.51654A33.85584,33.85584,0,0,0,414.1124,80.99527q-1.37274-.01-2.74585-.00876l-2.31186.003-2.26853.003h-11v.15216m-12.113-18.87194a10.39917,10.39917,0,0,0-8.00309,3.41317q-39.58845,39.76867-79.31747,79.39753c-2.99167,2.99192-2.99844,2.99684-.46344,6.33662,12.91229,17.0123,19.97446,36.32,21.85345,57.458a107.86768,107.86768,0,0,1-5.34909,43.806,110.66161,110.66161,0,0,1-66.90713,69.25646,112.37633,112.37633,0,0,1-34.57962,6.92631q-2.08725.08667-4.16171.08628a110.22727,110.22727,0,0,1-33.92937-5.55643,108.97789,108.97789,0,0,1-31.93816-16.44239c-1.75505-1.307-2.655-1.99842-3.48225-1.99837-.89272,0-1.70065.80543-3.40666,2.5116q-25.36339,25.365-50.73562,50.721c-4.53169,4.523-9.14062,8.9687-13.71415,13.44985q.13326.52478.26646,1.04938a23.92559,23.92559,0,0,0,3.19831.42124q119.43032.01788,238.84437.01675,72.44519,0,144.90647-.00483c6.72415-.00046,9.32931-2.65808,9.32962-9.43869q.00623-145.758.00039-291.516c-.00024-7.05747-2.76754-9.81647-9.82324-9.81784q-1.3585-.00027-2.7153-.00028-16.167,0-32.33423.01224-18.72463,0-37.45023-.08734l-.08831-.00024Zm23.113,29.74322v-.02344c1.52686,0,3.05344-.006,4.58036-.006q1.33278,0,2.66586.00845a22.19978,22.19978,0,0,1,22.34116,24.488c-.869,9.11386-7.72886,17.60385-17.23447,19.24216a74.00286,74.00286,0,0,1-12.57932,1.09451,68.82836,68.82836,0,0,1-13.46991-1.32034c-6.76837-1.34833-13.7883-8.9401-15.18792-15.74-2.04114-9.9166.86209-17.89044,9.01162-23.85214a19.355,19.355,0,0,1,11.12769-3.87855c1.11429-.025,2.22864-.0328,3.34347-.0328,1.80024,0,3.60123.02017,5.40146.02017Z" transform="translate(197 165)"/><path class="a" d="M207.55371,278.8916a72.18636,72.18636,0,0,1-9.55615-.65625,57.98469,57.98469,0,0,1-20.20459-6.76367q7.426-7.41943,14.84521-14.8457l67.98389-67.98828a51.03474,51.03474,0,0,1,5.58984,14.78027c.6543,3.56348,1.1543,7.26074,1.55664,10.23144.1377,1.01661.26563,1.96387.3877,2.81641-1.02148,25.07324-11.39941,43.01465-31.71484,54.84375A56.618,56.618,0,0,1,207.55371,278.8916Z" transform="translate(197 165)"/><path class="a" d="M258.98169,198.0565a35.24445,35.24445,0,0,1,1.82022,6.35448c.63126,3.43646,1.1012,6.91109,1.51584,9.97667.11261.83272.21912,1.61931.32095,2.34723-1.05606,23.0939-10.27723,38.94145-28.96484,49.82156a51.19176,51.19176,0,0,1-26.12087,6.83487,66.737,66.737,0,0,1-8.82518-.607,50.50267,50.50267,0,0,1-11.496-2.97086q4.809-4.80887,9.61664-9.61951l8.45775-8.46063,53.17061-53.17195.50488-.50486m2.44418-17.34156a2.70836,2.70836,0,0,0-1.89776,1.234c-.36951.44713-.82141.8261-1.23355,1.23826q-30.38373,30.3838-60.76682,60.76821-13.16056,13.16163-26.32172,26.32267c-1.31637,1.31471-2.23782,2.28108.11335,3.76249a64.51854,64.51854,0,0,0,25.9472,9.64621,77.41462,77.41462,0,0,0,10.28644.70451,61.90669,61.90669,0,0,0,31.65552-8.32868c22.15872-12.90108,33.48-32.42945,34.46191-59.88654-.50088-3.42279-1.10651-8.61867-2.04959-13.75253-1.33627-7.27429-4.54529-13.8275-8.28452-20.14517-.61749-1.04328-1.24374-1.56353-1.91046-1.56346Z" transform="translate(197 165)"/><path class="a" d="M146.26855,223.501c-1.71289-16.26172,4.252-37.36866,20.668-51.79786,10.67774-9.38476,25.91162-14.98779,40.75-14.98779a48.6681,48.6681,0,0,1,5.06446.25586Z" transform="translate(197 165)"/><path class="a" d="M199.0079,162.94353l-15.73545,15.74658L152.0507,209.934a56.95461,56.95461,0,0,1,18.51682-34.09932c8.54456-7.51015,19.22508-11.4048,28.44038-12.89113m8.6791-11.72826c-13.87744.00021-31.28873,4.84949-44.38144,16.35719-21.82823,19.18573-26.55542,48.5427-20.26392,66.93882Q183.37042,194.15393,223.518,153.978c-4.09447-1.78748-9.60695-2.76279-15.831-2.7627Z" transform="translate(197 165)"/><path d="M406.55957,131.31982a63.6151,63.6151,0,0,1-12.39551-1.21435c-4.39941-.87647-9.88769-6.65772-10.875-11.45508-1.62109-7.87305.5625-13.689,6.8711-18.3042a13.91,13.91,0,0,1,8.0039-2.81885c1.07422-.02441,2.14844-.03173,3.22168-.03173.88965,0,1.7793.00537,2.66895.01025q1.36522.00805,2.73144.01025h5.5V97.4873q.85254.00221,1.70606.00782a17.0875,17.0875,0,0,1,12.75293,5.5708,16.62945,16.62945,0,0,1,4.15234,12.89453c-.68164,7.16211-6.02051,13.19482-12.69238,14.34473A68.8267,68.8267,0,0,1,406.55957,131.31982Z" transform="translate(197 165)"/><path class="a" d="M401.38693,102.99582c.87934,0,1.7587.00494,2.63806.00989.92041.00515,1.84082.01025,2.76117.01025L414.24722,103a11.61121,11.61121,0,0,1,8.41553,3.751,11.19657,11.19657,0,0,1,2.76047,8.68777,10.57235,10.57235,0,0,1-8.1525,9.44611,63.27308,63.27308,0,0,1-10.711.93472,58.07692,58.07692,0,0,1-11.32089-1.1084c-2.09448-.4172-5.97943-4.33542-6.56277-7.16958-1.19657-5.81342.13018-9.39,4.73205-12.75641a8.40512,8.40512,0,0,1,4.8808-1.7594c.90979-.02051,1.89423-.03,3.098-.03m9.97589-11.00931c-1.52542,0-3.05124.006-4.57666.006V92.016c-1.79968,0-3.59955-.02017-5.39923-.02017-1.11538,0-2.23086.00775-3.3457.03284a19.35516,19.35516,0,0,0-11.12772,3.87854c-8.1495,5.96163-11.05273,13.93545-9.01159,23.85214,1.39959,6.79992,8.41952,14.39169,15.18789,15.74a68.81866,68.81866,0,0,0,13.46991,1.32037A74.00876,74.00876,0,0,0,419.139,135.7251c9.50564-1.63828,16.36548-10.1283,17.2345-19.24213a22.19972,22.19972,0,0,0-22.34113-24.488q-1.33492-.00966-2.66959-.00849Z" transform="translate(197 165)"/></svg>