<svg xmlns="http://www.w3.org/2000/svg" viewBox="0 0 421 508"><defs><style>.a{fill:#fff;}</style></defs><path class="a" d="M410,454H-11V-54H410ZM96.0012,362.21561a20.34121,20.34121,0,0,1,1.00979,1.80023c4.83983,12.10919,14.94293,19.32223,27.89582,19.34427q74.8686.1273,149.73757.04214a29.3439,29.3439,0,0,0,20.49155-7.802c7.08367-6.466,10.03555-14.61694,10.032-24.106q-.05292-140.23869.036-280.47736a9.36994,9.36994,0,0,1,1.37689-5.08468c7.03915-10.103,14.27036-20.072,21.42517-30.09462q11.09487-15.5419,22.16834-31.09909c1.76623-2.47116,2.54943-5.10574,1.18411-7.95344-2.48093-5.17462-9.59924-5.09634-13.3432.10824Q324.7491,15.335,311.50229,33.79058c-2.21051,3.07551-4.43479,6.14111-6.91156,9.56953-.57779-1.23762-.90979-2.0708-1.34067-2.84923-1.36255-2.46172-2.46991-5.13541-4.19986-7.31044-6.3-7.92089-14.81827-11.22571-24.77032-11.22656q-45.24628-.00384-90.49256-.00257-28.37267-.00006-56.74533.00518c-8.299.00428-15.71821,2.3659-21.90173,8.12864C98.023,36.738,95.35342,45.04105,95.35814,54.57836q.06858,138.73854.0269,277.47718a16.11468,16.11468,0,0,1-.044,2.99259,8.8893,8.8893,0,0,1-1.15008,3.44412Q77.17081,362.38166,60.03,386.185c-3.39541,4.73279-6.80367,9.45648-10.17615,14.20556a7.70216,7.70216,0,0,0-.3387,8.92447c1.565,2.66315,4.109,3.5376,7.07853,3.15351a8.43022,8.43022,0,0,0,5.8926-3.80277q15.70095-21.917,31.45777-43.794C94.50259,364.09506,95.11475,363.357,96.0012,362.21561Z" transform="translate(11 54)"/><path d="M96.0012,362.21561c-.88645,1.14135-1.49861,1.87945-2.05712,2.65616q-15.74016,21.88888-31.45777,43.794a8.43022,8.43022,0,0,1-5.8926,3.80277c-2.96955.38409-5.51354-.49036-7.07853-3.15351a7.70216,7.70216,0,0,1,.3387-8.92447c3.37248-4.74908,6.78074-9.47277,10.17615-14.20556q17.09856-23.83347,34.1609-47.69278a8.8893,8.8893,0,0,0,1.15008-3.44412,16.11468,16.11468,0,0,0,.044-2.99259q.00063-138.7386-.0269-277.47718c-.00472-9.53731,2.6649-17.84035,9.78212-24.47323,6.18352-5.76274,13.60275-8.12436,21.90173-8.12864q28.37268-.01458,56.74533-.00518,45.24629.00011,90.49256.00257c9.952.00085,18.47036,3.30567,24.77032,11.22656,1.72995,2.175,2.83731,4.84872,4.19986,7.31044.43088.77843.76288,1.61161,1.34067,2.84923,2.47677-3.42842,4.70105-6.494,6.91156-9.56953q13.25871-18.447,26.51294-36.89724c3.744-5.20458,10.86227-5.28286,13.3432-.10824,1.36532,2.8477.58212,5.48228-1.18411,7.95344Q339.07057,20.27409,328.006,35.83763c-7.15481,10.02258-14.386,19.99163-21.42517,30.09462a9.36994,9.36994,0,0,0-1.37689,5.08468q-.09649,140.23863-.036,280.47736c.00357,9.489-2.94831,17.64-10.032,24.106a29.3439,29.3439,0,0,1-20.49155,7.802q-74.86881-.01-149.73757-.04214c-12.95289-.022-23.056-7.23508-27.89582-19.34427A20.34121,20.34121,0,0,0,96.0012,362.21561ZM290.84134,90.55055l-.63095-.32741c-.62515.72623-1.31153,1.4087-1.86658,2.18508q-24.53586,34.32-49.04765,68.65726-61.51785,86.134-123.16127,172.17756c-4.1872,5.818-6.24,11.43585-5.80728,18.5463.55658,9.14535,6.68873,15.8641,15.8199,15.87277q74.49809.07072,148.9962-.04041a16.66656,16.66656,0,0,0,6.73581-1.50186c6.47918-2.98395,8.9768-8.44375,8.97512-15.37344q-.03122-128.74691-.01333-257.49379Q290.84131,91.90159,290.84134,90.55055ZM110.4362,314.3143l.68229.33991c1.2707-1.68836,2.57865-3.35013,3.80664-5.069q46.2854-64.78845,92.555-129.58819c25.91576-36.29168,51.70343-72.67613,77.86908-108.78673,4.11719-5.68205,5.9914-11.19489,5.60291-18.11187-.528-9.40022-6.74774-15.99171-16.18051-16.05386-6.24921-.04117-12.49982.05045-18.74778-.04726-1.8255-.02856-2.6387.488-2.98251,2.37878-1.47327,8.10241-8.346,12.91243-16.54259,12.83554q-35.8688-.33653-71.74241.00106c-8.06673.07617-15.10062-4.65252-16.612-13.08936-.3047-1.7009-1.0587-2.13528-2.66371-2.11745-6.582.07321-13.16832-.077-19.74613.10519A16.37136,16.37136,0,0,0,119.47882,38.54c-6.45928,2.98471-9.05846,8.36715-9.05666,15.32145q.03337,128.864.014,257.72792Z" transform="translate(11 54)"/><path class="a" d="M290.84134,90.55055q0,1.351,0,2.70206-.00018,128.7469.01333,257.49379c.00168,6.92969-2.49594,12.38949-8.97512,15.37344a16.66656,16.66656,0,0,1-6.73581,1.50186q-74.498.12416-148.9962.04041c-9.13117-.00867-15.26332-6.72742-15.8199-15.87277-.43273-7.11045,1.62008-12.72827,5.80728-18.5463q61.82886-85.91016,123.16127-172.17756,24.5199-34.33143,49.04765-68.65726c.555-.77638,1.24143-1.45885,1.86658-2.18508Z" transform="translate(11 54)"/><path class="a" d="M110.4362,314.3143v-2.725q.0003-128.86395-.014-257.72792c-.0018-6.9543,2.59738-12.33674,9.05666-15.32145a16.37136,16.37136,0,0,1,6.25569-1.42889c6.57781-.18224,13.16416-.032,19.74613-.10519,1.605-.01783,2.359.41655,2.66371,2.11745,1.51135,8.43684,8.54524,13.16553,16.612,13.08936q35.86875-.3387,71.74241-.00106c8.19661.07689,15.06932-4.73313,16.54259-12.83554.34381-1.89079,1.157-2.40734,2.98251-2.37878,6.248.09771,12.49857.00609,18.74778.04726,9.43277.06215,15.65255,6.65364,16.18051,16.05386.38849,6.917-1.48572,12.42982-5.60291,18.11187-26.16565,36.1106-51.95332,72.49505-77.86908,108.78673q-46.272,64.798-92.555,129.58819c-1.228,1.71887-2.53594,3.38064-3.80664,5.069Z" transform="translate(11 54)"/></svg>