<svg xmlns="http://www.w3.org/2000/svg" width="588" height="588" fill="none"><g fill="#000" clip-path="url(#a)"><path d="M529.2 294c0 129.36-105.84 235.2-235.2 235.2-129.36 0-235.2-105.84-235.2-235.2C58.8 164.64 164.64 58.8 294 58.8c23.52 0 44.1 2.94 64.68 8.82l47.04-47.04C370.44 8.82 332.22 0 294 0 132.3 0 0 132.3 0 294s132.3 294 294 294 294-132.3 294-294h-58.8Z"/><path d="m162.167 201.958 41.163-41.163L427.9 385.367l-41.163 41.162z"/><path d="m497.367 49 41.163 41.163L202.163 426.53 161 385.367z"/></g><defs><clipPath id="a"><path fill="#fff" d="M0 0h588v588H0z"/></clipPath></defs></svg>