<svg xmlns="http://www.w3.org/2000/svg" viewBox="0 0 319.179 326.092"><defs><style>.a{fill:#1d1d1b}.b{fill:#fff}.c{fill:#010101;fill-rule:evenodd}</style></defs><path d="M146.577 215.975 104.888 110.37c-3.092-6.826-7.635-9.89-14.71-9.89h-1v-8.392h50.539v8.392h-9.27c-5.113 0-5.113 1.823-5.113 2.422a19.346 19.346 0 0 0 .343 3.425 21.228 21.228 0 0 0 .874 3.392l27.89 74.849 15.128-37.665.826.18c3.957.859 6.799 2.428 8.69 4.798l.362.456-25.672 63.638Z" class="a"/><path d="M138.717 93.088v6.392h-8.27q-6.114 0-6.113 3.422a20.285 20.285 0 0 0 .36 3.604 21.88 21.88 0 0 0 .9 3.503l28.812 77.329 15.777-39.278c3.5.76 6.25 2.101 8.119 4.444L153.1 214.975h-5.843l-41.439-104.972c-3.478-7.68-8.691-10.523-15.64-10.523v-6.392h48.539m2-2h-52.54v10.392h2c6.614 0 10.872 2.87 13.8 9.304l41.42 104.926.5 1.265h8.552l.505-1.251 25.202-62.472.437-1.082-.728-.913c-2.039-2.556-5.067-4.241-9.258-5.152l-1.65-.359-.63 1.568-13.85 34.484-26.987-72.429a20.223 20.223 0 0 1-.829-3.221 18.383 18.383 0 0 1-.327-3.246c0-1.237 2.577-1.422 4.113-1.422h10.27V91.088Z" class="b"/><path d="m175.166 132.969 7.553-18.803c.25-.626.981-2.711 1.118-3.25a9.463 9.463 0 0 0 .456-3.462c0-3.247-1.829-6.974-16.094-6.974h-1v-8.392h45.147v8.392h-6.572c-3.765 0-6.099 2.152-8.61 7.94l-9.903 24.549Z" class="a"/><path d="M211.346 93.088v6.392h-5.573c-4.197 0-6.87 2.42-9.527 8.542l-9.66 23.947h-9.94l7-17.43c.239-.594 1.004-2.757 1.16-3.378a10.138 10.138 0 0 0 .487-3.707c0-5.882-6.188-7.974-17.094-7.974v-6.392h43.147m2-2h-47.147v10.392h2c15.094 0 15.094 4.34 15.094 5.974a8.805 8.805 0 0 1-.426 3.218c-.122.483-.845 2.544-1.076 3.121l-7.001 17.43-1.103 2.746h14.249l.505-1.252 9.65-23.922c2.648-6.09 4.903-7.315 7.682-7.315h7.573V91.088Z" class="b"/><path d="M169.166 259.134a29.218 29.218 0 0 1-9.585-1.583 26.4 26.4 0 0 1-8.126-4.485 22.753 22.753 0 0 1-5.733-6.955 18.869 18.869 0 0 1-2.185-9.01 15.52 15.52 0 0 1 2.882-9.21 9.74 9.74 0 0 1 8.364-4.195c5.947 0 9.09 2.957 9.09 8.55 0 7.068-3.086 8.551-5.674 8.551a13.939 13.939 0 0 1-1.809-.11 10.823 10.823 0 0 0 3.158 3.89c3.084 2.141 5.9 3.568 9.618 3.568a9.602 9.602 0 0 0 7.778-3.339 23.843 23.843 0 0 0 4.566-8.816 52.056 52.056 0 0 0 1.94-11.751c.237-4.305.357-8.285.357-11.83v-53.483c0-10.211-5.186-14.568-17.338-14.568a1 1 0 0 1-1-1v-6.392a1 1 0 0 1 1-1h51.236a1 1 0 0 1 1 1v6.392a1 1 0 0 1-1 1c-9.884 0-14.101 4.141-14.101 13.846v56.177a75.027 75.027 0 0 1-1.914 17.338 42.585 42.585 0 0 1-6.08 14.194 30.351 30.351 0 0 1-10.685 9.68 32.74 32.74 0 0 1-15.759 3.541Z" class="a"/><path d="M217.705 136.966v6.392c-10.066 0-15.101 4.284-15.101 14.846v56.178a73.72 73.72 0 0 1-1.887 17.106 41.42 41.42 0 0 1-5.934 13.862 29.23 29.23 0 0 1-10.336 9.364 31.612 31.612 0 0 1-15.281 3.42 28.082 28.082 0 0 1-9.258-1.528 25.287 25.287 0 0 1-7.82-4.314 21.66 21.66 0 0 1-5.484-6.652 17.804 17.804 0 0 1-2.067-8.54 14.478 14.478 0 0 1 2.695-8.628 8.75 8.75 0 0 1 7.551-3.776q8.092 0 8.09 7.551 0 7.55-4.674 7.55a11.637 11.637 0 0 1-2.288-.202 5.813 5.813 0 0 0-.883-.146c-.327 0-.292.207.05.883a13.144 13.144 0 0 0 3.9 5.066c2.936 2.04 5.99 3.747 10.188 3.747a10.635 10.635 0 0 0 8.54-3.69 24.713 24.713 0 0 0 4.763-9.183 52.704 52.704 0 0 0 1.978-11.977q.358-6.48.36-11.885v-53.484c0-11.045-6.114-15.568-18.338-15.568v-6.392h51.236m0-2H166.47a2 2 0 0 0-2 2v6.392a2 2 0 0 0 2 2c11.452 0 16.338 4.058 16.338 13.568v53.484c0 3.526-.12 7.488-.357 11.775a50.968 50.968 0 0 1-1.9 11.522 22.855 22.855 0 0 1-4.368 8.451 8.656 8.656 0 0 1-7.016 2.987c-3.47 0-6.034-1.297-9.047-3.39a7.722 7.722 0 0 1-1.885-1.957c2.496-.012 6.64-1.28 6.64-9.551 0-6.159-3.584-9.55-10.09-9.55a10.691 10.691 0 0 0-9.179 4.611 16.504 16.504 0 0 0-3.068 9.792 19.867 19.867 0 0 0 2.303 9.484 23.747 23.747 0 0 0 5.985 7.259 27.39 27.39 0 0 0 8.43 4.653 30.195 30.195 0 0 0 9.911 1.639 33.721 33.721 0 0 0 16.236-3.664 31.34 31.34 0 0 0 11.035-9.995 43.595 43.595 0 0 0 6.225-14.525 76.054 76.054 0 0 0 1.942-17.57v-56.177c0-9.124 3.795-12.846 13.101-12.846a2 2 0 0 0 2-2v-6.392a2 2 0 0 0-2-2Z" class="b"/><path d="M6.795 170.792c-.3-.288-.628-.586-.97-.898-1.957-1.784-4.393-4.004-4.495-6.852a4.098 4.098 0 0 1 1.122-3.025 4.43 4.43 0 0 1 3.186-1.305 4.67 4.67 0 0 1 3.42 1.457 4.454 4.454 0 0 1 2.796-1.46 4.512 4.512 0 0 1 .51-.03 4.7 4.7 0 0 1 3.969 2.225 4.212 4.212 0 0 1 .17 4.18 11.97 11.97 0 0 1-2.131 2.725 63.635 63.635 0 0 1-1.77 1.741c-.321.308-.62.595-.88.852l-2.626 2.605Z" class="c"/><path d="M12.365 159.68a3.484 3.484 0 0 1 3.243 4.956 11.53 11.53 0 0 1-1.956 2.479c-.914.946-1.926 1.874-2.634 2.577l-1.933 1.917-1.597-1.538c-1.922-1.85-5.055-4.18-5.158-7.065a3.157 3.157 0 0 1 3.309-3.294h.048c1.64.023 2.33.838 3.397 1.877.89-.928 1.513-1.73 2.883-1.886a3.487 3.487 0 0 1 .398-.023m0-2a5.51 5.51 0 0 0-.626.036 5.127 5.127 0 0 0-2.699 1.125 5.34 5.34 0 0 0-3.326-1.128H5.64a5.435 5.435 0 0 0-3.907 1.61 5.085 5.085 0 0 0-1.401 3.754c.117 3.269 2.725 5.646 4.82 7.556.335.305.657.598.95.88l1.597 1.537 1.408 1.355 1.388-1.376 1.932-1.917c.255-.253.55-.536.866-.838.56-.537 1.196-1.146 1.799-1.77a12.852 12.852 0 0 0 2.306-2.973 5.192 5.192 0 0 0-.213-5.153 5.707 5.707 0 0 0-4.819-2.698Z" class="b"/><path d="M307.912 171.485c-.301-.291-.633-.593-.978-.907-1.976-1.8-4.434-4.04-4.536-6.912a4.125 4.125 0 0 1 1.13-3.047 4.462 4.462 0 0 1 3.21-1.314 4.711 4.711 0 0 1 3.453 1.475 4.494 4.494 0 0 1 2.824-1.48 4.56 4.56 0 0 1 .515-.029 4.736 4.736 0 0 1 3.998 2.242 4.24 4.24 0 0 1 .17 4.211 12.056 12.056 0 0 1-2.149 2.75 65.076 65.076 0 0 1-1.79 1.76c-.323.31-.625.598-.886.857l-2.644 2.624Z" class="c"/><path d="M313.53 160.272a3.518 3.518 0 0 1 3.275 5.004 11.642 11.642 0 0 1-1.975 2.503c-.923.955-1.945 1.892-2.66 2.602l-1.952 1.936-1.613-1.552c-1.94-1.869-5.104-4.22-5.208-7.135a3.188 3.188 0 0 1 3.341-3.325h.05c1.655.022 2.351.846 3.429 1.894.898-.936 1.528-1.746 2.912-1.904a3.518 3.518 0 0 1 .401-.023m0-2a5.545 5.545 0 0 0-.63.036 5.163 5.163 0 0 0-2.727 1.141 5.376 5.376 0 0 0-3.359-1.144h-.076a5.468 5.468 0 0 0-3.93 1.62 5.115 5.115 0 0 0-1.41 3.777c.118 3.292 2.748 5.689 4.861 7.615.338.308.664.604.959.888l1.613 1.553 1.408 1.355 1.388-1.376 1.951-1.936c.257-.255.555-.54.874-.846.566-.542 1.208-1.156 1.816-1.787a12.958 12.958 0 0 0 2.325-2.997 5.224 5.224 0 0 0-.214-5.184 5.742 5.742 0 0 0-4.849-2.715Z" class="b"/><path d="m1.364 120.524.457-.99c.25-.545.704-1.732 1.349-3.53.639-1.787 1.092-3.135 1.345-4.005l.297-1.018 2.306.823-.758 2.629-.056.33c.119.007.254.01.407.01q.222 0 .49-.009l10.67-.534-8.206-6.768a9.351 9.351 0 0 0-.486-.358 12.5 12.5 0 0 0-.467.811l-.896 1.775-2.304-.827.49-1.003c.142-.292.47-1.083 1.225-3.191.785-2.194.98-2.88 1.027-3.093l.241-1.112 2.293.817-.423 2.343a.41.41 0 0 0 .142.45l13.991 12.117-.652 1.823-18.149 1.033a2.969 2.969 0 0 0-.763.102.393.393 0 0 0-.08.104l-1.279 2.064Z" class="a"/><path d="m9.231 101.788.422.15-.272 1.508a1.415 1.415 0 0 0 .483 1.394l13.462 11.659-.198.554-17.488.996a3.576 3.576 0 0 0-1.106.183 1.196 1.196 0 0 0-.538.507l-.845 1.363-.422-.151q.4-.869 1.382-3.61.971-2.715 1.364-4.062l.422.15-.498 1.726q-.1.53-.143.857a.6.6 0 0 0 .117.502.92.92 0 0 0 .589.225 6.766 6.766 0 0 0 .749.033q.237 0 .52-.009l13.265-.664-10.195-8.409a8.032 8.032 0 0 0-.806-.57.886.886 0 0 0-.44-.142.507.507 0 0 0-.124.015.943.943 0 0 0-.492.418 11.454 11.454 0 0 0-.608 1.031l-.51 1.008-.421-.151q.334-.685 1.268-3.293.925-2.583 1.063-3.218M7.76 99.14l-.482 2.223c-.026.119-.174.685-.992 2.967-.778 2.175-1.075 2.87-1.182 3.09l-.98 2.006 2.102.754.422.151 1.663.597.797-1.577.376-.744 5.761 4.752-7.645.382.22-.758.52-1.806-1.77-.632-.422-.15-1.998-.714-.594 2.037c-.248.851-.694 2.18-1.327 3.95-.79 2.203-1.152 3.09-1.316 3.446L0 121.097l2.054.736.422.152 1.523.546.852-1.375.678-1.094c.063-.006.138-.012.226-.017l17.486-.996 1.323-.075.447-1.247.198-.554.461-1.29-1.035-.896L11.4 103.524l.223-1.23.301-1.67-1.599-.57-.422-.15-2.143-.763Z" class="b"/><path d="M28.512 98.747a7.264 7.264 0 0 1-1.237-.11 7.923 7.923 0 0 1-2.487-.898 7.353 7.353 0 0 1-2.092-1.697 6.795 6.795 0 0 1-1.263-2.216 6.262 6.262 0 0 1-.313-2.495 6.137 6.137 0 0 1 .774-2.511 5.501 5.501 0 0 1 1.292-1.588 5.022 5.022 0 0 1 1.718-.942 4.75 4.75 0 0 1 1.432-.218 5.228 5.228 0 0 1 .562.03 6.195 6.195 0 0 1 1.986.581l.96.458-3.853 6.962.107.061a5.255 5.255 0 0 0 1.593.588 3.894 3.894 0 0 0 .697.066 3.15 3.15 0 0 0 .692-.075 2.978 2.978 0 0 0 1.172-.558 3.512 3.512 0 0 0 .94-1.117 3.072 3.072 0 0 0 .4-1.331 6.39 6.39 0 0 0-.244-1.862l-.465-1.816 2.837 1.004.168.42a7.241 7.241 0 0 1-.375 6.469 5.132 5.132 0 0 1-1.62 1.781 5.839 5.839 0 0 1-2.177.9 6.312 6.312 0 0 1-1.204.114Zm-3.036-9.362a2.56 2.56 0 0 0-.612.077 1.218 1.218 0 0 0-.67.662 2.245 2.245 0 0 0-.291 1.624 2.372 2.372 0 0 0 .166.486l1.342-2.427c.09-.162.161-.3.218-.417a2.291 2.291 0 0 0-.153-.005Z" class="a"/><path d="M26.336 87.071a4.162 4.162 0 0 1 .453.025 5.167 5.167 0 0 1 1.665.49l-3.781 6.835a7.591 7.591 0 0 0 .94.617 6.235 6.235 0 0 0 1.9.698 4.893 4.893 0 0 0 .875.082 4.123 4.123 0 0 0 .912-.1 3.99 3.99 0 0 0 1.56-.739 4.477 4.477 0 0 0 1.206-1.427 4.077 4.077 0 0 0 .524-1.76 7.316 7.316 0 0 0-.273-2.165l.643.227a6.256 6.256 0 0 1-.322 5.614 4.122 4.122 0 0 1-1.307 1.437 4.82 4.82 0 0 1-1.804.745 5.296 5.296 0 0 1-1.015.096 6.215 6.215 0 0 1-1.066-.095 6.894 6.894 0 0 1-2.173-.787 6.326 6.326 0 0 1-1.812-1.466 5.778 5.778 0 0 1-1.081-1.892 5.244 5.244 0 0 1-.263-2.099 5.122 5.122 0 0 1 .651-2.103 4.498 4.498 0 0 1 1.057-1.302 4.011 4.011 0 0 1 1.379-.758 3.732 3.732 0 0 1 1.132-.173m-2.11 6.943 2.06-3.723a5.124 5.124 0 0 0 .533-1.226q.1-.44-.67-.61a3.262 3.262 0 0 0-.673-.07 3.549 3.549 0 0 0-.85.106 2.13 2.13 0 0 0-1.308 1.15 3.226 3.226 0 0 0-.391 2.327 3.778 3.778 0 0 0 1.3 2.046m2.109-8.943a5.747 5.747 0 0 0-1.735.266 6.015 6.015 0 0 0-2.057 1.129 6.498 6.498 0 0 0-1.526 1.87 7.125 7.125 0 0 0-.895 2.917 7.265 7.265 0 0 0 .362 2.892 7.798 7.798 0 0 0 1.45 2.545 8.338 8.338 0 0 0 2.374 1.926 8.907 8.907 0 0 0 2.797 1.006 8.24 8.24 0 0 0 1.406.124 7.323 7.323 0 0 0 1.397-.133 6.827 6.827 0 0 0 2.543-1.051 6.123 6.123 0 0 0 1.935-2.125 8.305 8.305 0 0 0 .43-7.327l-.337-.84-.853-.301-.642-.228-1.95-.69.198-.356-1.918-.915a7.183 7.183 0 0 0-2.309-.672 6.19 6.19 0 0 0-.67-.037Zm1.052 8.574 2.662-4.812.33 1.29a5.32 5.32 0 0 1 .214 1.56 2.091 2.091 0 0 1-.279.902 2.482 2.482 0 0 1-.663.8 2.01 2.01 0 0 1-.793.382 2.14 2.14 0 0 1-.471.05 2.912 2.912 0 0 1-.517-.049 3.548 3.548 0 0 1-.483-.123Z" class="b"/><path d="M39.626 81.049s1.03-2.031 1.032-2.04a3.828 3.828 0 0 0-.334-.279l-4.286-3.248a1.342 1.342 0 0 0-.099-.068 3.155 3.155 0 0 0-.398.306l-1.3 1.104-1.387-1.37.183-.582a6.554 6.554 0 0 0 .328-1.731 3.348 3.348 0 0 0-.46-1.559l-.29-.56 1.244-1.647.78.505q.348.225.72.478a3.461 3.461 0 0 1 .483-2.531 2.403 2.403 0 0 1 1.642-1.013 2.54 2.54 0 0 1 .29-.017 2.311 2.311 0 0 1 1.418.486 2.014 2.014 0 0 1 .855 1.445 2.087 2.087 0 0 1-.431 1.464 3.46 3.46 0 0 1-1.068.902 1.875 1.875 0 0 0-.352.243 2.142 2.142 0 0 0 .153.65 4.56 4.56 0 0 0 .35.697 1.273 1.273 0 0 0 .22.293l3.705 2.808a2.452 2.452 0 0 0 .21.144 4.53 4.53 0 0 0 .291-.267l2.165-2.143 1.907 1.444-.712.808q-.489.556-1.054 1.257-.57.706-1.203 1.542l-.22.29q-.581.767-1.058 1.442-.47.667-.855 1.263l-.583.906Z" class="a"/><path d="M37.773 67.797a1.329 1.329 0 0 1 .817.284 1.04 1.04 0 0 1 .461.735 1.084 1.084 0 0 1-.233.773 2.454 2.454 0 0 1-.762.634 2.309 2.309 0 0 0-.711.568.951.951 0 0 0-.146.679 3.145 3.145 0 0 0 .222.89 5.494 5.494 0 0 0 .427.85 2.064 2.064 0 0 0 .468.565l3.704 2.807a1.577 1.577 0 0 0 .848.399.476.476 0 0 0 .066-.005 1.92 1.92 0 0 0 .896-.604l1.548-1.532.357.27q-.502.57-1.082 1.29-.58.718-1.223 1.567l-.22.29q-.591.78-1.076 1.467c-.323.457-.617.892-.88 1.3l-.357-.27.644-1.268a1.068 1.068 0 0 0 .097-.823 2.302 2.302 0 0 0-.71-.73l-4.286-3.248a1.238 1.238 0 0 0-.72-.304.644.644 0 0 0-.07.004 2.116 2.116 0 0 0-.97.583l-.59.5-.301-.297a7.489 7.489 0 0 0 .374-2.001 4.28 4.28 0 0 0-.572-2.048l.304-.402q.637.411 1.356.921.72.51 1.524 1.12a7.383 7.383 0 0 1-.61-2.395 2.708 2.708 0 0 1 .272-1.936 1.321 1.321 0 0 1 1.134-.633m0-2a3.439 3.439 0 0 0-.407.024 3.377 3.377 0 0 0-2.321 1.402 3.433 3.433 0 0 0-.607 1.336l-.817-.528-1.12 1.484-.304.402-.76 1.006.58 1.118a2.373 2.373 0 0 1 .349 1.068 5.574 5.574 0 0 1-.283 1.463l-.366 1.165.869.857.302.298 1.303 1.287 1.396-1.186.372-.316 3.441 2.608-.286.564-.76 1.494 1.338 1.008.358.27 1.72 1.297 1.166-1.811c.248-.387.528-.8.83-1.228q.47-.662 1.038-1.414l.22-.29q.625-.826 1.186-1.521c.381-.47.717-.871 1.026-1.222l1.423-1.617-1.717-1.3-.357-.27-1.383-1.046-1.231 1.22-1.22 1.207-3.148-2.385a1.62 1.62 0 0 1-.052-.08 3.443 3.443 0 0 1-.204-.384 4.28 4.28 0 0 0 1.065-.98 3.075 3.075 0 0 0 .631-2.16 2.985 2.985 0 0 0-1.244-2.15 3.341 3.341 0 0 0-2.026-.69Z" class="b"/><path d="M54.646 64.431q-.283 0-.57-.027a6.728 6.728 0 0 1-2.344-.682 7.93 7.93 0 0 1-2.133-1.556 7.42 7.42 0 0 1-1.532-2.217 6.807 6.807 0 0 1-.59-2.484 6.247 6.247 0 0 1 .399-2.481 6.155 6.155 0 0 1 1.447-2.194 5.547 5.547 0 0 1 1.686-1.16 5.03 5.03 0 0 1 1.915-.423l.102-.001a4.84 4.84 0 0 1 1.865.381 6.265 6.265 0 0 1 1.741 1.113l.795.708-5.652 5.604.084.086a5.201 5.201 0 0 0 1.362 1.013 3.484 3.484 0 0 0 1.338.381c.06.004.122.006.182.006a3.078 3.078 0 0 0 1.102-.211 3.536 3.536 0 0 0 1.213-.81 3.05 3.05 0 0 0 .757-1.163 6.389 6.389 0 0 0 .29-1.858l.064-1.874 2.44 1.762.043.449a7.238 7.238 0 0 1-2.176 6.103 5.122 5.122 0 0 1-2.055 1.256 5.774 5.774 0 0 1-1.773.28Zm-2.675-10.19a1.249 1.249 0 0 0-.806.447 2.237 2.237 0 0 0-.735 1.477 2.374 2.374 0 0 0 .023.513l1.97-1.953c.131-.13.239-.243.327-.34a2.46 2.46 0 0 0-.752-.144l-.027-1Z" class="a"/><path d="M53.026 52.206a3.826 3.826 0 0 1 1.48.305 5.237 5.237 0 0 1 1.461.936l-5.548 5.5a7.597 7.597 0 0 0 .73.855 6.164 6.164 0 0 0 1.627 1.205 4.459 4.459 0 0 0 1.72.483q.123.008.245.008a4.056 4.056 0 0 0 1.46-.278 4.517 4.517 0 0 0 1.558-1.033 4.066 4.066 0 0 0 .997-1.54 7.336 7.336 0 0 0 .346-2.157l.552.4a6.256 6.256 0 0 1-1.884 5.296 4.117 4.117 0 0 1-1.658 1.014 4.756 4.756 0 0 1-1.466.23q-.236 0-.475-.022a5.696 5.696 0 0 1-1.997-.583 6.902 6.902 0 0 1-1.865-1.363 6.394 6.394 0 0 1-1.328-1.917 5.785 5.785 0 0 1-.505-2.121 5.23 5.23 0 0 1 .335-2.087 5.136 5.136 0 0 1 1.216-1.836 4.528 4.528 0 0 1 1.38-.954 4.016 4.016 0 0 1 1.537-.34l.082-.001m-2.92 6.224 3.021-2.995a5.186 5.186 0 0 0 .856-1.025q.22-.396-.472-.775a3.373 3.373 0 0 0-1.473-.393 1.51 1.51 0 0 0-.067-.001 2.165 2.165 0 0 0-1.51.737 3.223 3.223 0 0 0-1.029 2.123 3.774 3.774 0 0 0 .673 2.33m2.92-8.225-.126.001a6.018 6.018 0 0 0-2.29.506 6.534 6.534 0 0 0-1.99 1.367 7.144 7.144 0 0 0-1.678 2.548 7.248 7.248 0 0 0-.463 2.88 7.805 7.805 0 0 0 .675 2.847 8.415 8.415 0 0 0 1.734 2.513 8.933 8.933 0 0 0 2.409 1.754 7.702 7.702 0 0 0 2.688.777c.22.021.442.032.662.032a6.774 6.774 0 0 0 2.08-.327 6.118 6.118 0 0 0 2.453-1.498 8.303 8.303 0 0 0 2.466-6.91l-.087-.899-.732-.529-.553-.4-1.677-1.21.292-.29-1.591-1.415a7.257 7.257 0 0 0-2.019-1.288 5.837 5.837 0 0 0-2.252-.46Zm.218 8.758 3.906-3.872-.046 1.329a5.345 5.345 0 0 1-.233 1.56 2.079 2.079 0 0 1-.519.786 2.521 2.521 0 0 1-.868.586 2.051 2.051 0 0 1-.742.145q-.06 0-.12-.004a2.463 2.463 0 0 1-.951-.277 3.517 3.517 0 0 1-.427-.253Z" class="b"/><path d="m68.46 50.191 1.435-1.506-3.177-4.426a1.402 1.402 0 0 0-.323-.353 6.046 6.046 0 0 0-.659.273l-.764.385-1.252-1.746.518-.596a3.399 3.399 0 0 0 .595-2.889l-.094-.607 1.675-1.201.933 1.3a9.75 9.75 0 0 1 .507-.945 6.816 6.816 0 0 1 1.796-2.057 4.273 4.273 0 0 1 2.496-.894c1.364 0 2.627.795 3.751 2.362l3.25 4.526a2.11 2.11 0 0 0 .141.18l1.004-.489.753-.356 1.366 1.9-.895.568a49.829 49.829 0 0 0-4.637 3.33l-.528.426.018.025-.21.132-.103.083-.01-.014-.589.365q-.33.205-.77.487-.43.275-.93.633l-.75.538c-1.054.758-1.843 1.358-2.344 1.782l-.826.7Zm4.35-3.755 1.888-.774 1.539-1.483a1.674 1.674 0 0 0-.078-.117l-2.758-3.842a4.21 4.21 0 0 0-1.513-1.414.634.634 0 0 0-.28-.063 1.795 1.795 0 0 0-.952.403 3.753 3.753 0 0 0-1.368 2.383Z" class="a"/><path d="M72.146 35.929a3.8 3.8 0 0 1 2.939 1.945l3.249 4.526a1.845 1.845 0 0 0 .587.578.573.573 0 0 0 .272.066.971.971 0 0 0 .395-.097l1.131-.535.262.363a50.606 50.606 0 0 0-4.731 3.397l-.262-.365 1.121-1.08q.45-.427-.137-1.247l-2.759-3.844a5.138 5.138 0 0 0-1.901-1.736 1.637 1.637 0 0 0-.703-.158 2.69 2.69 0 0 0-1.536.592 4.99 4.99 0 0 0-1.847 3.43l3.966 5.527a.507.507 0 0 0 .44.214 1.296 1.296 0 0 0 .466-.106l1.57-.644.262.362q-.335.208-.783.495-.449.287-.972.662l-.751.538q-1.615 1.162-2.407 1.832l-.262-.363 1.042-1.093q.407-.394-.035-1.01l-3.232-4.503a1.549 1.549 0 0 0-.97-.752q-.045-.005-.094-.005a2.824 2.824 0 0 0-1.18.368l-.293-.41a4.364 4.364 0 0 0 .828-3.696l.364-.26 1.47 2.046a8.81 8.81 0 0 1 1.053-2.566 5.924 5.924 0 0 1 1.524-1.765 3.293 3.293 0 0 1 1.914-.706m0-2a5.251 5.251 0 0 0-3.081 1.082 7.38 7.38 0 0 0-1.818 1.96l-.603-.841-1.624 1.164-.364.26-1 .717.188 1.215c.218 1.411-.218 1.915-.362 2.08l-1.034 1.193.92 1.283.293.41.997 1.389 1.444-.726 2.498 3.48-.292.306-1.145 1.2.969 1.348.261.363 1.264 1.758 1.653-1.4c.48-.407 1.248-.99 2.282-1.734l.748-.536q.476-.342.885-.603.305-.196.554-.352l.082.114.877-.71 1.07-.663-.092-.128a48.9 48.9 0 0 1 4.336-3.094l1.79-1.136-1.238-1.72-.26-.364-.974-1.353-1.506.713-.267.126-2.888-4.023c-1.322-1.843-2.858-2.778-4.563-2.778Zm-1.772 7.397a2.535 2.535 0 0 1 .866-1.368 1.735 1.735 0 0 1 .326-.192 3.582 3.582 0 0 1 1.021 1.035l2.336 3.255-.323.311-.459.442-.232.095-.747.307-2.788-3.885Z" class="b"/><path d="M93.168 36.53a5.04 5.04 0 0 1-2.105-.447 5.652 5.652 0 0 1-1.817-1.339 8.248 8.248 0 0 1-1.315-1.946 7.404 7.404 0 0 1-.804-2.975 6.728 6.728 0 0 1 .41-2.672 6.621 6.621 0 0 1 1.356-2.172 6.903 6.903 0 0 1 2.004-1.493 5.273 5.273 0 0 1 1.143-.409 7.513 7.513 0 0 1 1-.166c.135-.018.284-.033.436-.041l.992-1.326 1.393-.186.317.645q.963 1.957 1.937 3.906.978 1.958 1.943 3.922l.021.04a.97.97 0 0 1 .032-.05c.022-.05.042-.099.058-.147l.232-.682 1.947.012.078.909a4.522 4.522 0 0 1-.075 1.318 3.633 3.633 0 0 1-.423 1.114 2.637 2.637 0 0 1-1.164 1.06 2.8 2.8 0 0 1-1.236.311 2.202 2.202 0 0 1-1.124-.304q-.112-.065-.22-.142l-.032.083a4.57 4.57 0 0 1-.913 1.43 5.254 5.254 0 0 1-1.55 1.117 5.728 5.728 0 0 1-2.41.63Zm-.254-10.664a2.648 2.648 0 0 0-1.13.316 2.712 2.712 0 0 0-.76.584 2.565 2.565 0 0 0-.537.908 3.26 3.26 0 0 0-.15 1.282 4.39 4.39 0 0 0 .487 1.639 5.363 5.363 0 0 0 .862 1.274 4.17 4.17 0 0 0 1.053.841 2.374 2.374 0 0 0 1.053.302h.016a2.26 2.26 0 0 0 1.057-.246 1.616 1.616 0 0 0 .64-.558 2.31 2.31 0 0 0 .364-.95 4.264 4.264 0 0 0-.016-1.33 5.3 5.3 0 0 0-.492-1.503l-.135-.273a4.986 4.986 0 0 0-1.659-2.103 1.207 1.207 0 0 0-.653-.183Z" class="a"/><path d="M95.28 22.444q.965 1.96 1.94 3.912.977 1.954 1.94 3.915.337.683.83.684a1.01 1.01 0 0 0 .495-.15.912.912 0 0 0 .308-.228 3.149 3.149 0 0 0 .196-.27 3.056 3.056 0 0 0 .127-.311l.313.002a3.493 3.493 0 0 1-.057 1.026 2.654 2.654 0 0 1-.312.824 1.652 1.652 0 0 1-.737.659 1.807 1.807 0 0 1-.794.209 1.212 1.212 0 0 1-.621-.168 2.95 2.95 0 0 1-1.081-1.309l-.359-.73a5.958 5.958 0 0 1 .037 1.247 4.229 4.229 0 0 1-.284 1.231 3.555 3.555 0 0 1-.715 1.116 4.25 4.25 0 0 1-1.258.9 4.716 4.716 0 0 1-1.988.526l-.092.001a4.035 4.035 0 0 1-1.69-.357 4.647 4.647 0 0 1-1.496-1.106 7.213 7.213 0 0 1-1.153-1.71 6.398 6.398 0 0 1-.703-2.573 5.72 5.72 0 0 1 .346-2.277 5.6 5.6 0 0 1 1.152-1.845 5.864 5.864 0 0 1 1.712-1.277 4.261 4.261 0 0 1 .929-.333 6.478 6.478 0 0 1 .865-.145 5.143 5.143 0 0 1 .68-.047q.086 0 .171.003l1.036-1.384.263-.035m-1.399 11.57a3.202 3.202 0 0 0 1.426-.351 2.613 2.613 0 0 0 1.026-.894 3.317 3.317 0 0 0 .523-1.35 5.23 5.23 0 0 0-.015-1.646 6.263 6.263 0 0 0-.583-1.789l-.136-.275a5.898 5.898 0 0 0-2.03-2.512 2.198 2.198 0 0 0-1.178-.331 3.593 3.593 0 0 0-1.572.419 3.68 3.68 0 0 0-1.044.794 3.553 3.553 0 0 0-.754 1.26 4.234 4.234 0 0 0-.205 1.676 5.343 5.343 0 0 0 .588 2.02 6.328 6.328 0 0 0 1.023 1.51 5.136 5.136 0 0 0 1.308 1.042 3.385 3.385 0 0 0 1.487.424q.068.003.136.003m2.56-13.743-1.425.19-.264.036-.832.111-.504.673-.475.634-.035.004a8.585 8.585 0 0 0-1.09.184 6.282 6.282 0 0 0-1.364.487 7.876 7.876 0 0 0-2.288 1.705 7.621 7.621 0 0 0-1.56 2.5 7.735 7.735 0 0 0-.477 3.067 8.402 8.402 0 0 0 .907 3.377 9.244 9.244 0 0 0 1.475 2.181 6.654 6.654 0 0 0 2.14 1.573 6.039 6.039 0 0 0 2.519.537l.132-.001a6.714 6.714 0 0 0 2.83-.732 6.25 6.25 0 0 0 1.842-1.333 5.827 5.827 0 0 0 .669-.87 3.223 3.223 0 0 0 .888.122 3.787 3.787 0 0 0 1.679-.416 3.615 3.615 0 0 0 1.59-1.462 4.652 4.652 0 0 0 .54-1.443 5.426 5.426 0 0 0 .084-1.568l-.156-1.818-1.824-.011-.314-.002-.861-.005q-.629-1.271-1.257-2.529-.974-1.947-1.935-3.901l-.635-1.29Zm-2.56 11.743-.042-.001a1.379 1.379 0 0 1-.619-.18 3.168 3.168 0 0 1-.797-.641 4.362 4.362 0 0 1-.7-1.037 3.421 3.421 0 0 1-.388-1.26 2.288 2.288 0 0 1 .094-.889 1.558 1.558 0 0 1 .326-.558 1.719 1.719 0 0 1 .47-.369 1.667 1.667 0 0 1 .69-.213.205.205 0 0 1 .126.033 3.956 3.956 0 0 1 1.286 1.692l.139.28a4.29 4.29 0 0 1 .4 1.211 3.274 3.274 0 0 1 .015 1.018 1.332 1.332 0 0 1-.202.545.616.616 0 0 1-.253.222 1.233 1.233 0 0 1-.545.147Z" class="b"/><path d="M133.676 22.97a6.382 6.382 0 0 1-1.357-.141 5.681 5.681 0 0 1-2.132-.932 5.538 5.538 0 0 1-1.533-1.68 6.173 6.173 0 0 1-.784-2.243c-.381-2.506.884-4.668 3.763-6.439q-.122-.116-.23-.224a7.615 7.615 0 0 1-.868-.996 4.026 4.026 0 0 1-.52-.977 4.945 4.945 0 0 1-.229-.918 3.683 3.683 0 0 1 .962-3.146 5.23 5.23 0 0 1 3.157-1.552 6.93 6.93 0 0 1 1.028-.08 4.462 4.462 0 0 1 2.429.652 3.812 3.812 0 0 1 1.741 2.735 4.344 4.344 0 0 1-1.574 4.12l3.378 3.042a4.823 4.823 0 0 0 .884-2.637 1.563 1.563 0 0 0-.475-.122l-.748-.096-.304-2.001 7.216-1.605.329 2.155-.639.329a4.564 4.564 0 0 0-.908.602 5.796 5.796 0 0 0-.858.989 27.074 27.074 0 0 0-1.191 1.846q-.564.941-1.356 2.334c1.535 1.42 2.423 1.648 2.834 1.648a1.012 1.012 0 0 0 .16-.012 2.151 2.151 0 0 0 1.186-.794 1.265 1.265 0 0 1 .675-.43l.13-.036.197-.009a1.164 1.164 0 0 1 .909.436 1.504 1.504 0 0 1 .273 1.041 4.236 4.236 0 0 1-.218.976 2.997 2.997 0 0 1-1.19 1.575 4.874 4.874 0 0 1-2.152.824 4.206 4.206 0 0 1-.635.048 4.772 4.772 0 0 1-2.112-.52 14.542 14.542 0 0 1-2.175-1.381 10.778 10.778 0 0 1-2.215 2.1 8.646 8.646 0 0 1-3.683 1.428 7.76 7.76 0 0 1-1.165.092Zm.048-9.577a4.098 4.098 0 0 0-1.284 1.356 2.951 2.951 0 0 0-.415 1.968 2.47 2.47 0 0 0 .438 1.111 2.793 2.793 0 0 0 .874.79 3.51 3.51 0 0 0 1.215.42 4.496 4.496 0 0 0 .71.057 4.985 4.985 0 0 0 .749-.058 4.37 4.37 0 0 0 2.643-1.39Zm.507-7.105a.796.796 0 0 0-.596.295.591.591 0 0 0-.159.512 2.37 2.37 0 0 0 .122.486 1.257 1.257 0 0 0 .242.353 9.538 9.538 0 0 0 .766.75q.304.273.714.627a2.442 2.442 0 0 0-.248-2.748 1.055 1.055 0 0 0-.721-.28c-.04 0-.08.002-.12.005Z" class="a"/><path d="M134.933 4.64a3.462 3.462 0 0 1 1.893.498 2.79 2.79 0 0 1 1.288 2.041q.367 2.41-2.186 3.874l5.22 4.7q1.845-2.944 1.63-4.355-.122-.804-1.335-.958l-.05-.332 5.26-1.17.059.387a5.544 5.544 0 0 0-1.106.736 6.754 6.754 0 0 0-1.014 1.16q-.538.748-1.237 1.916-.7 1.17-1.748 3.028 2.442 2.468 4.084 2.468a2.052 2.052 0 0 0 .31-.023 3.074 3.074 0 0 0 1.784-1.12.346.346 0 0 1 .193-.129.24.24 0 0 1 .061-.009.161.161 0 0 1 .131.065.54.54 0 0 1 .053.346 3.375 3.375 0 0 1-.172.734 2.039 2.039 0 0 1-.827 1.075 3.873 3.873 0 0 1-1.715.644 3.221 3.221 0 0 1-.483.036 3.766 3.766 0 0 1-1.67-.417 16.779 16.779 0 0 1-2.81-1.895 10.465 10.465 0 0 1-2.593 2.689 7.622 7.622 0 0 1-3.262 1.261 6.737 6.737 0 0 1-1.015.08 5.358 5.358 0 0 1-1.144-.119 4.66 4.66 0 0 1-1.76-.765 4.522 4.522 0 0 1-1.258-1.38 5.15 5.15 0 0 1-.655-1.883q-.543-3.57 4.482-6.093-.75-.649-1.234-1.129a6.653 6.653 0 0 1-.755-.862 3.03 3.03 0 0 1-.394-.732 3.963 3.963 0 0 1-.183-.737 2.667 2.667 0 0 1 .709-2.318 4.244 4.244 0 0 1 2.572-1.241 5.85 5.85 0 0 1 .877-.07m.425 6.018a2.93 2.93 0 0 0 1.24-3.022 2.896 2.896 0 0 0-.875-1.834 2.043 2.043 0 0 0-1.372-.52q-.102 0-.206.009a1.79 1.79 0 0 0-1.275.647 1.58 1.58 0 0 0-.383 1.306 3.367 3.367 0 0 0 .177.694 2.22 2.22 0 0 0 .427.657 10.434 10.434 0 0 0 .848.833q.542.485 1.42 1.23m-.096 9.436a5.96 5.96 0 0 0 .899-.07 5.484 5.484 0 0 0 3.865-2.514l-6.195-5.346a5.42 5.42 0 0 0-2.26 2.087 3.948 3.948 0 0 0-.536 2.616 3.477 3.477 0 0 0 .618 1.549 3.81 3.81 0 0 0 1.182 1.066 4.528 4.528 0 0 0 1.555.542 5.427 5.427 0 0 0 .872.07m-.33-17.454a7.88 7.88 0 0 0-1.177.092 6.204 6.204 0 0 0-3.742 1.862 4.654 4.654 0 0 0-1.216 3.977 5.982 5.982 0 0 0 .276 1.105 5.017 5.017 0 0 0 .644 1.216c.111.156.236.316.376.481-3.085 2.31-3.499 4.866-3.212 6.75a7.165 7.165 0 0 0 .914 2.606 6.523 6.523 0 0 0 1.81 1.98 6.665 6.665 0 0 0 2.5 1.096 7.385 7.385 0 0 0 1.57.164 8.774 8.774 0 0 0 1.316-.102 9.636 9.636 0 0 0 4.104-1.598 11.19 11.19 0 0 0 1.803-1.578 13.05 13.05 0 0 0 1.575.938 5.76 5.76 0 0 0 2.552.622 5.243 5.243 0 0 0 .783-.059 5.859 5.859 0 0 0 2.591-1.003 4.004 4.004 0 0 0 1.565-2.112 5.06 5.06 0 0 0 .253-1.173 2.437 2.437 0 0 0-.476-1.725 2.173 2.173 0 0 0-1.703-.828 2.241 2.241 0 0 0-.573.076 2.354 2.354 0 0 0-1.207.768c-.36.397-.554.436-.556.436h-.002c-.048 0-.529-.025-1.569-.864.344-.598.658-1.135.939-1.604.434-.725.82-1.323 1.145-1.776a4.767 4.767 0 0 1 .698-.814 3.594 3.594 0 0 1 .714-.471l1.278-.66-.217-1.42-.06-.387-.322-2.115-2.089.465-5.26 1.17-.832.185a5.705 5.705 0 0 0-.034-1.462 4.784 4.784 0 0 0-2.195-3.43 5.44 5.44 0 0 0-2.964-.808Zm4.036 8.459a5.524 5.524 0 0 0 .453-.648l.044.288.141.935-.638-.575Zm1.614 1.454-.268-.242.341.044q-.031.092-.073.198Zm-5.32 5.54a3.446 3.446 0 0 1-.551-.043 2.527 2.527 0 0 1-.875-.3 1.814 1.814 0 0 1-.566-.512 1.5 1.5 0 0 1-.258-.673 1.968 1.968 0 0 1 .294-1.32 2.837 2.837 0 0 1 .406-.543l3.389 2.925a3.538 3.538 0 0 1-1.242.42 3.981 3.981 0 0 1-.597.047Z" class="b"/><path d="M175.944 26.333a7.985 7.985 0 0 1-1.075-.076 3.38 3.38 0 0 1-.963-.288 2.747 2.747 0 0 1-.885-.634 2.318 2.318 0 0 1-.535-.982 1.887 1.887 0 0 1 .194-1.4 1.777 1.777 0 0 1 1.657-1.054 2.222 2.222 0 0 1 .3.021 3.234 3.234 0 0 1 1.976 1.229.312.312 0 0 0 .144.108.57.57 0 0 0 .189.033 1.398 1.398 0 0 0 .459-.115 2.122 2.122 0 0 0 .424-.247 3.638 3.638 0 0 0 .56-.558 1.987 1.987 0 0 0 .282-.706c.109-.43.225-1.06.345-1.87q.183-1.256.483-3.47l1.614-11.931a17.12 17.12 0 0 0-.316-.085l-2.475-.595.334-2.46 1.092.286c.283.075 1.088.226 3.31.525 2.243.305 3.083.376 3.393.382l1.123.023-.325 2.38-2.015.095-1.439 10.633a30.512 30.512 0 0 1-.935 4.522 9.897 9.897 0 0 1-1.946 3.662 10.107 10.107 0 0 1-1.27 1.244 6.255 6.255 0 0 1-1.414.868 5.477 5.477 0 0 1-1.595.424 6.289 6.289 0 0 1-.691.036Z" class="a"/><path d="M179.495 2.507q.683.178 3.43.548 2.773.377 3.507.391l-.06.443-1.393.066a.612.612 0 0 0-.537.21 1.826 1.826 0 0 0-.212.735l-1.426 10.543a29.228 29.228 0 0 1-.903 4.371 8.866 8.866 0 0 1-1.746 3.296 9.073 9.073 0 0 1-1.14 1.116 5.244 5.244 0 0 1-1.186.73 4.456 4.456 0 0 1-1.304.347 5.274 5.274 0 0 1-.581.03 6.997 6.997 0 0 1-.94-.067 2.383 2.383 0 0 1-.679-.205 1.754 1.754 0 0 1-.567-.401 1.325 1.325 0 0 1-.306-.564.888.888 0 0 1 .105-.664.814.814 0 0 1 .78-.533 1.226 1.226 0 0 1 .166.012 2.281 2.281 0 0 1 1.35.889 1.314 1.314 0 0 0 .58.403 1.571 1.571 0 0 0 .513.087 1.53 1.53 0 0 0 .168-.009 2.4 2.4 0 0 0 .69-.19 3.107 3.107 0 0 0 .629-.367 4.67 4.67 0 0 0 .75-.746 2.965 2.965 0 0 0 .457-1.068c.12-.473.241-1.13.365-1.97q.185-1.262.485-3.482l1.614-11.93a3.44 3.44 0 0 0 .038-.49.522.522 0 0 0-.1-.31.653.653 0 0 0-.325-.2 15.35 15.35 0 0 0-.668-.188l-1.614-.388.06-.445M177.818 0l-.305 2.237-.06.445-.244 1.792 1.759.423 1.034.248-1.494 11.045q-.298 2.207-.482 3.46c-.114.775-.224 1.37-.325 1.767a1.724 1.724 0 0 1-.127.377 3.09 3.09 0 0 1-.373.354 1.044 1.044 0 0 1-.095.06 4.003 4.003 0 0 0-2.337-1.28 3.206 3.206 0 0 0-.432-.029 2.806 2.806 0 0 0-2.567 1.635 2.857 2.857 0 0 0-.254 2.062 3.323 3.323 0 0 0 .767 1.414 3.746 3.746 0 0 0 1.204.867 4.393 4.393 0 0 0 1.248.371 9.03 9.03 0 0 0 1.209.085 7.308 7.308 0 0 0 .8-.043 6.47 6.47 0 0 0 1.888-.502 7.254 7.254 0 0 0 1.638-1.004 11.116 11.116 0 0 0 1.396-1.363 10.903 10.903 0 0 0 2.152-4.037 31.36 31.36 0 0 0 .968-4.672l1.326-9.808.353-.017 1.663-.078.225-1.649.06-.443.304-2.226-2.245-.044c-.188-.004-.882-.048-3.278-.373-2.374-.32-3.023-.458-3.192-.502L177.818 0Z" class="b"/><path d="M202.574 26.205a7.776 7.776 0 0 1-2.096-.299 5.133 5.133 0 0 1-2.106-1.167 5.844 5.844 0 0 1-1.377-1.908 6.775 6.775 0 0 1-.566-2.377 7.936 7.936 0 0 1 .3-2.625 7.415 7.415 0 0 1 1.168-2.427 6.837 6.837 0 0 1 1.868-1.741 6.29 6.29 0 0 1 2.356-.878 5.787 5.787 0 0 1 .899-.07 6.378 6.378 0 0 1 1.723.245 5.5 5.5 0 0 1 1.844.892 5.033 5.033 0 0 1 1.31 1.451 4.886 4.886 0 0 1 .643 1.898 6.242 6.242 0 0 1-.108 2.07l-.224 1.038-7.662-2.145-.032.112a5.213 5.213 0 0 0-.21 1.69 3.464 3.464 0 0 0 .33 1.348 2.974 2.974 0 0 0 .811 1.015 3.529 3.529 0 0 0 1.306.656 3.261 3.261 0 0 0 .885.129 2.785 2.785 0 0 0 .499-.045 6.368 6.368 0 0 0 1.759-.666l1.659-.868-.323 2.99-.37.26a7.358 7.358 0 0 1-4.286 1.422Zm2.019-9.598c.179.05.33.088.456.116a2.483 2.483 0 0 0-.246-.725 1.221 1.221 0 0 0-.8-.503 2.817 2.817 0 0 0-.755-.112 2 2 0 0 0-.892.203 2.355 2.355 0 0 0-.434.273Z" class="a"/><path d="M203.02 13.712a5.356 5.356 0 0 1 1.453.209 4.484 4.484 0 0 1 1.512.727 4.032 4.032 0 0 1 1.055 1.167 3.87 3.87 0 0 1 .508 1.509 5.202 5.202 0 0 1-.094 1.733l-7.521-2.105a7.42 7.42 0 0 0-.383 1.056 6.157 6.157 0 0 0-.243 2.01 4.415 4.415 0 0 0 .43 1.734 3.978 3.978 0 0 0 1.076 1.348 4.487 4.487 0 0 0 1.668.846 4.254 4.254 0 0 0 1.155.166 3.808 3.808 0 0 0 .676-.06 7.315 7.315 0 0 0 2.046-.765l-.074.678a6.349 6.349 0 0 1-3.71 1.24 6.754 6.754 0 0 1-1.827-.262 4.12 4.12 0 0 1-1.699-.941 4.822 4.822 0 0 1-1.142-1.584 5.74 5.74 0 0 1-.48-2.025 6.916 6.916 0 0 1 .267-2.295 6.39 6.39 0 0 1 1.008-2.102 5.825 5.825 0 0 1 1.594-1.487 5.276 5.276 0 0 1 1.982-.739 4.748 4.748 0 0 1 .742-.058m2.599 4.095h.02q.452-.004.44-.79a3.394 3.394 0 0 0-.385-1.476 2.134 2.134 0 0 0-1.42-1.009 3.793 3.793 0 0 0-1.025-.15 2.998 2.998 0 0 0-1.33.305 3.78 3.78 0 0 0-1.693 1.736l4.098 1.147a5.245 5.245 0 0 0 1.295.238m-2.598-6.096a6.777 6.777 0 0 0-1.056.083 7.286 7.286 0 0 0-2.723 1.014 7.851 7.851 0 0 0-2.146 1.995 8.422 8.422 0 0 0-1.329 2.758 8.927 8.927 0 0 0-.335 2.953 7.76 7.76 0 0 0 .651 2.723 6.842 6.842 0 0 0 1.615 2.239 6.123 6.123 0 0 0 2.51 1.392 8.786 8.786 0 0 0 2.367.335 8.337 8.337 0 0 0 4.86-1.603l.741-.521.098-.9.073-.678.222-2.056.394.11.447-2.077a7.222 7.222 0 0 0 .124-2.397 5.883 5.883 0 0 0-.773-2.288 6.052 6.052 0 0 0-1.578-1.748 6.482 6.482 0 0 0-2.17-1.051 7.374 7.374 0 0 0-1.992-.283Zm.616 10.4a2.276 2.276 0 0 1-.613-.091 2.498 2.498 0 0 1-.937-.463 1.995 1.995 0 0 1-.551-.682 2.425 2.425 0 0 1-.23-.961 3.563 3.563 0 0 1 .008-.5l5.296 1.483-1.179.617a5.325 5.325 0 0 1-1.47.568 1.828 1.828 0 0 1-.324.029Z" class="b"/><path d="M223.092 33.895q-.653-.349-1.466-.74-.817-.39-1.778-.817l-.33-.145a51.025 51.025 0 0 0-1.645-.7 38.903 38.903 0 0 0-1.43-.545l-1.011-.361.949-2.16 2.2.535.024.001a3.802 3.802 0 0 0 .193-.386l2.18-4.917c.021-.046.035-.083.045-.112a3.126 3.126 0 0 0-.391-.318l-1.374-1.011 1.02-1.663.607.043c.219.016.43.024.633.024a5.67 5.67 0 0 0 1.127-.102 3.337 3.337 0 0 0 1.413-.805l.48-.411 1.886.836-.312.874q-.14.39-.301.81a4.746 4.746 0 0 1 1.57-.31 2.464 2.464 0 0 1 1.005.2 2.39 2.39 0 0 1 1.36 1.367 2.328 2.328 0 0 1-.063 1.768 2.014 2.014 0 0 1-1.211 1.165 2.051 2.051 0 0 1-.65.106 2.16 2.16 0 0 1-.874-.19 3.487 3.487 0 0 1-1.122-.833 1.904 1.904 0 0 0-.319-.289 2.16 2.16 0 0 0-.599.3 4.547 4.547 0 0 0-.595.498 1.243 1.243 0 0 0-.236.282l-1.884 4.252a2.104 2.104 0 0 0-.091.236c.06.046.165.122.325.223l2.583 1.614-.969 2.188Z" class="a"/><path d="m224.71 20.474.46.204q-.255.714-.588 1.532-.332.817-.74 1.739a7.401 7.401 0 0 1 2.191-1.142 4.02 4.02 0 0 1 1.347-.292 1.47 1.47 0 0 1 .6.114 1.42 1.42 0 0 1 .827.795 1.322 1.322 0 0 1-.04 1.023 1.042 1.042 0 0 1-.61.618 1.056 1.056 0 0 1-.334.055 1.16 1.16 0 0 1-.471-.105 2.477 2.477 0 0 1-.792-.596 2.316 2.316 0 0 0-.716-.564.727.727 0 0 0-.296-.059 1.275 1.275 0 0 0-.4.073 3.206 3.206 0 0 0-.814.42 5.579 5.579 0 0 0-.728.611 2.046 2.046 0 0 0-.444.585l-1.883 4.25a1.41 1.41 0 0 0-.174.979 1.9 1.9 0 0 0 .793.734l1.846 1.154-.181.41q-.67-.357-1.503-.757-.832-.399-1.806-.831l-.333-.147q-.896-.398-1.675-.712c-.52-.209-1.01-.396-1.466-.56l.18-.409 1.382.337a2.043 2.043 0 0 0 .35.034.765.765 0 0 0 .473-.128 2.282 2.282 0 0 0 .548-.859l2.18-4.915a1.16 1.16 0 0 0 .111-.839 2.134 2.134 0 0 0-.789-.81l-.624-.458.222-.362q.366.027.705.027a6.655 6.655 0 0 0 1.327-.122 4.272 4.272 0 0 0 1.864-1.027m-.344-2.34-.958.822a2.368 2.368 0 0 1-.959.584 4.703 4.703 0 0 1-.93.083q-.27 0-.561-.021l-1.213-.088-.636 1.037-.222.36-.961 1.568 1.481 1.09.391.287-1.75 3.947-.614-.15-1.63-.397-.675 1.536-.18.41-.863 1.966 2.022.721c.434.155.9.333 1.393.532q.749.3 1.609.684l.34.15c.623.276 1.208.545 1.747.803.544.263 1.012.498 1.425.719l1.899 1.014.871-1.969.182-.41.703-1.586-1.471-.92-1.455-.909 1.601-3.612.063-.064a3.515 3.515 0 0 1 .33-.29 4.305 4.305 0 0 0 1.19.81 3.167 3.167 0 0 0 1.289.28 3.058 3.058 0 0 0 .965-.158 2.987 2.987 0 0 0 1.807-1.704 3.317 3.317 0 0 0 .09-2.522 3.37 3.37 0 0 0-1.898-1.939 3.453 3.453 0 0 0-1.407-.283h-.028l.327-.913-1.699-.752-.46-.204-1.155-.511Z" class="b"/><path d="M242.232 43.771a7.265 7.265 0 0 1-3.9-1.164 5.11 5.11 0 0 1-1.691-1.715 5.829 5.829 0 0 1-.78-2.221 6.712 6.712 0 0 1 .127-2.439 7.928 7.928 0 0 1 1.03-2.433 7.38 7.38 0 0 1 1.81-1.997 6.814 6.814 0 0 1 2.282-1.142 6.291 6.291 0 0 1 1.681-.231 6.394 6.394 0 0 1 .827.054 6.14 6.14 0 0 1 2.465.909 5.556 5.556 0 0 1 1.516 1.377 5.01 5.01 0 0 1 .847 1.768 4.854 4.854 0 0 1 .08 1.999 6.232 6.232 0 0 1-.688 1.952l-.508.935-6.746-4.225a2.503 2.503 0 0 0-.064.1 5.268 5.268 0 0 0-.676 1.562 3.467 3.467 0 0 0-.065 1.386 3.002 3.002 0 0 0 .494 1.204 3.538 3.538 0 0 0 1.064.996 3.079 3.079 0 0 0 1.306.472 3.979 3.979 0 0 0 .423.021 7.595 7.595 0 0 0 1.452-.163l1.836-.364-1.154 2.777-.43.145a7.93 7.93 0 0 1-2.538.437Zm2.675-8.919c.157.098.29.176.405.24a2.502 2.502 0 0 0-.032-.768 1.22 1.22 0 0 0-.624-.706 2.375 2.375 0 0 0-1.271-.407 2.01 2.01 0 0 0-.336.03 2.336 2.336 0 0 0-.492.138Z" class="a"/><path d="M242.791 31.428a5.332 5.332 0 0 1 .696.046 5.115 5.115 0 0 1 2.065.765 4.54 4.54 0 0 1 1.245 1.127 4.011 4.011 0 0 1 .68 1.417 3.847 3.847 0 0 1 .061 1.59 5.194 5.194 0 0 1-.579 1.638l-6.62-4.147a7.452 7.452 0 0 0-.667.903 6.247 6.247 0 0 0-.8 1.862 4.43 4.43 0 0 0-.078 1.785 4.022 4.022 0 0 0 .65 1.597 4.51 4.51 0 0 0 1.362 1.282 4.093 4.093 0 0 0 1.726.619 4.907 4.907 0 0 0 .534.027 8.558 8.558 0 0 0 1.646-.182l-.262.63a6.902 6.902 0 0 1-2.218.384 6.253 6.253 0 0 1-3.37-1.011 4.096 4.096 0 0 1-1.364-1.383 4.818 4.818 0 0 1-.647-1.843 5.69 5.69 0 0 1 .112-2.076 6.89 6.89 0 0 1 .903-2.128 6.357 6.357 0 0 1 1.563-1.73 5.795 5.795 0 0 1 1.95-.977 5.264 5.264 0 0 1 1.412-.195m2.896 4.887q.347 0 .53-.652a3.412 3.412 0 0 0 .046-1.526 2.13 2.13 0 0 0-1.076-1.367 3.366 3.366 0 0 0-1.802-.559 3.015 3.015 0 0 0-.502.043 3.783 3.783 0 0 0-2.113 1.185l3.606 2.26a5.188 5.188 0 0 0 1.194.599.427.427 0 0 0 .117.017m-2.896-6.887a7.289 7.289 0 0 0-1.948.268 7.813 7.813 0 0 0-2.62 1.31 8.375 8.375 0 0 0-2.052 2.263 8.91 8.91 0 0 0-1.158 2.743 7.69 7.69 0 0 0-.143 2.797 6.83 6.83 0 0 0 .914 2.598 6.102 6.102 0 0 0 2.018 2.048 8.25 8.25 0 0 0 4.43 1.316 8.927 8.927 0 0 0 2.86-.49l.858-.29.347-.837.262-.63.793-1.908.349.22 1.016-1.87a7.216 7.216 0 0 0 .795-2.266 5.856 5.856 0 0 0-.098-2.413 6.01 6.01 0 0 0-1.013-2.116 6.548 6.548 0 0 0-1.786-1.626 7.12 7.12 0 0 0-2.869-1.054 7.355 7.355 0 0 0-.955-.063Zm.275 10.511a2.907 2.907 0 0 1-.316-.015 2.098 2.098 0 0 1-.885-.328 2.507 2.507 0 0 1-.765-.708 2.024 2.024 0 0 1-.334-.807 2.436 2.436 0 0 1 .05-.988 3.604 3.604 0 0 1 .15-.476l4.661 2.92-1.304.258a6.63 6.63 0 0 1-1.257.144Z" class="b"/><path d="M267.47 65.555a36.29 36.29 0 0 0-1.993-1.98 34.364 34.364 0 0 0-1.898-1.633l-.635-.502-.036.038-.737-.79a37.49 37.49 0 0 0-2.097-2.073 43.626 43.626 0 0 0-2.33-1.993l-.457-.363-.023.025-.166-.175-.194-.155.023-.026-.4-.423a41.545 41.545 0 0 0-4.13-3.792l-.833-.67 1.579-1.716 1.41.846a.184.184 0 0 0 .346-.026l4.09-4.455a1.952 1.952 0 0 0 .17-.207c-.109-.14-.24-.318-.407-.531l-.525-.67 1.397-1.518.679.353a3.263 3.263 0 0 0 1.513.327 6.316 6.316 0 0 0 1.214-.13l.497-.098 1.503 1.38-1.084 1.18c.293.042.568.094.825.156a5.373 5.373 0 0 1 2.377 1.294 6.8 6.8 0 0 1 .839.905 3.53 3.53 0 0 1 .569 1.108 3.764 3.764 0 0 1 .141 1.29c-.002.05-.006.102-.01.155a8.123 8.123 0 0 1 1.52.232 6.159 6.159 0 0 1 2.591 1.498 4.102 4.102 0 0 1 1.437 3.108 5.036 5.036 0 0 1-1.517 3.384l-3.825 4.167c-.055.06-.099.11-.133.153l1.05 1.374-1.603 1.743Zm-1.742-5.158a3.064 3.064 0 0 0 .397.206c.017-.016 3.446-3.749 3.446-3.749a2.725 2.725 0 0 0 .892-1.571 1.687 1.687 0 0 0-.692-1.183 2.925 2.925 0 0 0-2.073-.766c-.08 0-.162.003-.245.007l-4.02 4.377c-.092.101-.16.182-.207.244l1.135 1.616Zm-5.844-5.357a3.687 3.687 0 0 0 .69.31l3.405-3.707a2.54 2.54 0 0 0 .767-1.5 1.26 1.26 0 0 0-.48-1.061 2.584 2.584 0 0 0-.666-.411 4.446 4.446 0 0 0-.965-.315 3.43 3.43 0 0 0-.667-.07c-.068 0-.136.002-.202.007a.402.402 0 0 0-.165.036l-3.859 4.203a2.653 2.653 0 0 0-.185.222l1.153 1.635Z" class="a"/><path d="M259.842 44.006a4.223 4.223 0 0 0 1.974.44 7.274 7.274 0 0 0 1.408-.15l.392.361-1.818 1.98a12.152 12.152 0 0 1 2.736.269 4.369 4.369 0 0 1 1.937 1.058 5.795 5.795 0 0 1 .717.771 2.525 2.525 0 0 1 .41.796 2.75 2.75 0 0 1 .1.946 6.473 6.473 0 0 1-.196 1.208q.3-.017.586-.017a7.529 7.529 0 0 1 1.87.219 5.16 5.16 0 0 1 2.164 1.266 3.128 3.128 0 0 1 1.113 2.37 4.06 4.06 0 0 1-1.253 2.708l-3.826 4.167q-.701.762-.427 1.128l.777 1.017-.304.33q-.977-1.049-2.048-2.034-1.071-.983-1.955-1.681l.304-.33.711.427a2.523 2.523 0 0 0 .939.386q.023.003.046.003a1.056 1.056 0 0 0 .72-.423l3.389-3.691a3.688 3.688 0 0 0 1.154-2.209 2.583 2.583 0 0 0-1.015-1.958 3.919 3.919 0 0 0-2.749-1.029 5.716 5.716 0 0 0-.721.048l-4.28 4.66a2.649 2.649 0 0 0-.515.725.77.77 0 0 0 .18.716l.843 1.193-.302.33q-.978-1.048-2.153-2.128-1.175-1.078-2.385-2.04l.303-.33.73.406a3.707 3.707 0 0 0 1.13.448.715.715 0 0 0 .103.008.984.984 0 0 0 .713-.38l3.371-3.67a3.475 3.475 0 0 0 1.03-2.116 2.252 2.252 0 0 0-.802-1.859 3.535 3.535 0 0 0-.927-.584 5.373 5.373 0 0 0-1.186-.385 4.367 4.367 0 0 0-.862-.091q-.143 0-.281.01a1.189 1.189 0 0 0-.818.352l-3.863 4.208a1.672 1.672 0 0 0-.491.803.91.91 0 0 0 .195.636l.845 1.193-.303.33a42.3 42.3 0 0 0-4.228-3.884l.303-.33.711.427a1.71 1.71 0 0 0 .79.275.618.618 0 0 0 .083-.005 1.323 1.323 0 0 0 .724-.477l4.09-4.455a2.504 2.504 0 0 0 .347-.46.812.812 0 0 0 .11-.432 1.014 1.014 0 0 0-.168-.477 7.359 7.359 0 0 0-.476-.663l.304-.33m-.436-2.48-1.036 1.125-.303.33-1.152 1.252.947 1.207-3.287 3.58-.218-.131-1.398-.84-1.103 1.2-.304.33-1.449 1.574 1.668 1.34a40.691 40.691 0 0 1 3.788 3.447l-.118.128.98.78.855.902.117-.127c.68.55 1.353 1.13 2.005 1.728.698.64 1.357 1.29 1.963 1.934l-.095.103.728.576.92.987.138-.15c.528.422 1.116.93 1.749 1.511.667.613 1.32 1.26 1.938 1.924l1.472 1.58 1.463-1.589.304-.33 1.136-1.235-1.02-1.334-.034-.046 3.395-3.698a5.993 5.993 0 0 0 1.78-4.056 5.132 5.132 0 0 0-1.76-3.848 7.14 7.14 0 0 0-3.017-1.73q-.379-.097-.78-.16a4.414 4.414 0 0 0-.165-.84 4.53 4.53 0 0 0-.731-1.423 7.697 7.697 0 0 0-.96-1.039 6.452 6.452 0 0 0-2.007-1.269l.628-.683-1.474-1.352-.393-.36-.746-.686-.994.197a5.317 5.317 0 0 1-1.02.11 2.283 2.283 0 0 1-1.052-.214l-1.358-.706Zm-.576 11.3 3.248-3.538a2.604 2.604 0 0 1 .357.048 3.362 3.362 0 0 1 .75.245 1.614 1.614 0 0 1 .403.236c.167.153.163.21.16.266a1.682 1.682 0 0 1-.506.884l-2.916 3.174-.688-.381-.243-.136-.208-.292-.357-.506Zm5.667 5.212 3.396-3.698a1.854 1.854 0 0 1 1.203.497 1.637 1.637 0 0 1 .36.43 2.606 2.606 0 0 1-.622.911l-2.91 3.17-.393-.235-.475-.284-.218-.308-.341-.483Zm5.014 5.855Z" class="b"/><path d="M278.673 79.41q-.212-.36-.622-.931a48.85 48.85 0 0 0-1.1-1.47q-.673-.87-1.146-1.441c-.3-.359-.549-.64-.744-.837l-.796-.803 1.9-1.47 1.864 1.631 4.47-3.442a.73.73 0 0 0 .192-.192 3.999 3.999 0 0 0-.316-.847l-.34-.725 1.56-1.208.614.482a3.658 3.658 0 0 0 2.293.886 3.195 3.195 0 0 0 .355-.02l.56-.06 1.224 1.592-8.38 6.468.867 1.918-1.88 1.44Zm11.718-10.453a2.417 2.417 0 0 1-.482-.05 2.347 2.347 0 0 1-1.424-.875 2.148 2.148 0 0 1 .386-3.012 2.13 2.13 0 0 1 1.316-.447 2.441 2.441 0 0 1 .311.02 2.149 2.149 0 0 1 1.467.825 2.253 2.253 0 0 1 .446 1.609 2.113 2.113 0 0 1-.813 1.527 1.96 1.96 0 0 1-1.207.403Z" class="a"/><path d="M290.187 65.573a1.432 1.432 0 0 1 .183.012 1.15 1.15 0 0 1 .802.442 1.247 1.247 0 0 1 .243.91 1.117 1.117 0 0 1-.426.824.954.954 0 0 1-.598.196 1.41 1.41 0 0 1-.281-.03 1.362 1.362 0 0 1-.834-.507 1.147 1.147 0 0 1 .208-1.61 1.118 1.118 0 0 1 .703-.237m-6.596 3.37a4.658 4.658 0 0 0 2.911 1.1 4.245 4.245 0 0 0 .464-.026l.273.356-7.624 5.885a1.168 1.168 0 0 0-.41.476.75.75 0 0 0 .078.56l.606 1.336-.355.271q-.228-.387-.669-1.003c-.294-.41-.667-.91-1.124-1.502s-.845-1.08-1.168-1.468a14.753 14.753 0 0 0-.802-.9l.354-.275 1.202 1.052a1.077 1.077 0 0 0 .707.312 1.014 1.014 0 0 0 .621-.24l4.456-3.439a1.279 1.279 0 0 0 .57-.866 3.122 3.122 0 0 0-.4-1.389l.31-.24m6.596-5.37a3.12 3.12 0 0 0-1.928.656 3.151 3.151 0 0 0-.965 3.74l-.546.06a2.248 2.248 0 0 1-.246.014 2.706 2.706 0 0 1-1.675-.673l-1.227-.963-1.233.954-.31.24-1.268.981.681 1.451.049.106-3.446 2.66-.63-.55-1.24-1.086-1.302 1.008-.355.275-1.787 1.383 1.591 1.606c.12.12.336.353.687.774q.463.557 1.122 1.411c.425.548.788 1.033 1.08 1.441.261.368.455.657.573.858l1.148 1.941 1.79-1.371.355-.272 1.261-.966-.656-1.447-.213-.471 6.964-5.377 1.581-1.22-.736-.957a3.63 3.63 0 0 0 .399.106 3.432 3.432 0 0 0 .686.072 2.954 2.954 0 0 0 1.817-.61 3.127 3.127 0 0 0 1.199-2.225 3.24 3.24 0 0 0-.651-2.316 3.127 3.127 0 0 0-2.13-1.205 3.424 3.424 0 0 0-.44-.028Z" class="b"/><path d="M293.132 99.572a4.235 4.235 0 0 1-.638-.047 3.604 3.604 0 0 1-1.134-.355 2.648 2.648 0 0 1-1.13-1.1 2.385 2.385 0 0 1-.147-2.354c.04-.077.082-.154.13-.229a2.13 2.13 0 0 1-.084-.026 4.575 4.575 0 0 1-1.483-.827 5.262 5.262 0 0 1-1.208-1.482 5.693 5.693 0 0 1-.77-2.37 5.063 5.063 0 0 1 .313-2.234 5.617 5.617 0 0 1 1.23-1.896 8.244 8.244 0 0 1 1.863-1.427 7.4 7.4 0 0 1 2.922-.98q.38-.038.746-.039a6.49 6.49 0 0 1 1.945.29 6.622 6.622 0 0 1 2.249 1.225 6.871 6.871 0 0 1 1.61 1.908 5.281 5.281 0 0 1 .477 1.12 7.639 7.639 0 0 1 .224.989c.028.136.051.282.069.432l1.378.91.274 1.379-.628.356q-1.897 1.075-3.785 2.165-1.894 1.093-3.796 2.174l-.037.02q.023.017.05.033c.052.019.103.035.152.048l.692.193.103 1.943-.903.13a4.768 4.768 0 0 1-.684.051Zm1.414-12.205a4.112 4.112 0 0 0-.493.03 4.357 4.357 0 0 0-1.605.584 5.35 5.35 0 0 0-1.222.936 4.145 4.145 0 0 0-.779 1.1 2.367 2.367 0 0 0-.237 1.07 2.171 2.171 0 0 0 .307 1.057 1.637 1.637 0 0 0 .598.608 2.337 2.337 0 0 0 .966.304 3.423 3.423 0 0 0 .356.018 4.598 4.598 0 0 0 .973-.113 5.246 5.246 0 0 0 1.468-.58l.268-.152a4.98 4.98 0 0 0 1.999-1.778c.16-.3.31-.808-.239-1.775a2.68 2.68 0 0 0-.625-.72 2.477 2.477 0 0 0-.938-.484 2.873 2.873 0 0 0-.797-.105Z" class="a"/><path d="M293.742 85.206a5.458 5.458 0 0 1 1.645.244 5.603 5.603 0 0 1 1.911 1.041 5.862 5.862 0 0 1 1.378 1.632 4.24 4.24 0 0 1 .387.907 6.624 6.624 0 0 1 .195.855 4.793 4.793 0 0 1 .095.847l1.442.952.052.261q-1.9 1.077-3.791 2.169-1.893 1.091-3.791 2.17-.974.552-.455 1.352a.907.907 0 0 0 .248.295 2.838 2.838 0 0 0 .277.18 3.023 3.023 0 0 0 .32.107l.017.314a3.763 3.763 0 0 1-.54.04 3.26 3.26 0 0 1-.488-.036 2.64 2.64 0 0 1-.841-.263 1.655 1.655 0 0 1-.702-.696 1.43 1.43 0 0 1-.125-1.41 2.958 2.958 0 0 1 1.242-1.157l.708-.4a5.978 5.978 0 0 1-1.144.11l-.098-.002a4.241 4.241 0 0 1-1.246-.209 3.562 3.562 0 0 1-1.158-.648 4.238 4.238 0 0 1-.972-1.202 4.685 4.685 0 0 1-.643-1.954 4.059 4.059 0 0 1 .25-1.799 4.606 4.606 0 0 1 1.014-1.559 7.228 7.228 0 0 1 1.64-1.253 6.38 6.38 0 0 1 2.525-.855q.33-.033.648-.033m-1.305 8.868a5.579 5.579 0 0 0 1.186-.136 6.216 6.216 0 0 0 1.75-.687l.268-.153a5.886 5.886 0 0 0 2.386-2.175 2.724 2.724 0 0 0-.25-2.74 3.666 3.666 0 0 0-.856-.996 3.488 3.488 0 0 0-1.303-.677 3.849 3.849 0 0 0-1.072-.143 5.118 5.118 0 0 0-.613.038 5.317 5.317 0 0 0-1.98.707 6.328 6.328 0 0 0-1.447 1.111 5.106 5.106 0 0 0-.963 1.367 3.375 3.375 0 0 0-.333 1.51 3.164 3.164 0 0 0 .438 1.537 2.63 2.63 0 0 0 .955.973 3.32 3.32 0 0 0 1.378.44 4.451 4.451 0 0 0 .456.023m1.306-10.867c-.277 0-.56.015-.845.043a8.388 8.388 0 0 0-3.318 1.107 9.253 9.253 0 0 0-2.089 1.6 6.612 6.612 0 0 0-1.444 2.233 6.062 6.062 0 0 0-.375 2.675 6.68 6.68 0 0 0 .898 2.785 6.233 6.233 0 0 0 1.44 1.757 5.834 5.834 0 0 0 .908.615 3.54 3.54 0 0 0 .445 2.546 3.624 3.624 0 0 0 1.553 1.499 4.644 4.644 0 0 0 1.477.454 5.064 5.064 0 0 0 .74.052 5.79 5.79 0 0 0 .826-.06l1.807-.262-.097-1.824-.016-.313-.046-.862c.82-.469 1.635-.935 2.448-1.404q1.884-1.086 3.778-2.162l1.257-.712-.281-1.417-.052-.261-.163-.82-.697-.46-.661-.436-.007-.038a8.66 8.66 0 0 0-.245-1.068 6.28 6.28 0 0 0-.57-1.339 7.88 7.88 0 0 0-1.842-2.185 7.616 7.616 0 0 0-2.585-1.407 7.481 7.481 0 0 0-2.244-.336Zm-1.306 8.867a2.451 2.451 0 0 1-.251-.012 1.337 1.337 0 0 1-.562-.17.624.624 0 0 1-.237-.24 1.195 1.195 0 0 1-.177-.577 1.37 1.37 0 0 1 .14-.627 3.14 3.14 0 0 1 .593-.833 4.365 4.365 0 0 1 .996-.762 3.397 3.397 0 0 1 1.233-.461 3.14 3.14 0 0 1 .374-.024 1.875 1.875 0 0 1 .517.065 1.512 1.512 0 0 1 .572.287 1.727 1.727 0 0 1 .404.454c.078.137.33.61.226.802a3.945 3.945 0 0 1-1.612 1.384l-.27.154a4.248 4.248 0 0 1-1.186.471 3.607 3.607 0 0 1-.76.09Z" class="b"/><path d="M301.693 117.61c-.115 0-.229-.005-.342-.015a4.141 4.141 0 0 1-1.704-.536 4.914 4.914 0 0 1-1.347-1.155 5.709 5.709 0 0 1-.918-1.593 7.761 7.761 0 0 1-.556-3.843l.075-.526 4.316-2.102.836 2.191-.634.448a4.051 4.051 0 0 0-.857.807 4.103 4.103 0 0 0-.546.904 2.471 2.471 0 0 0-.206.817 1.46 1.46 0 0 0 .08.62 1.36 1.36 0 0 0 .62.779.828.828 0 0 0 .377.093 1.11 1.11 0 0 0 .393-.08c.712-.272.842-1.47.825-2.427a8.764 8.764 0 0 1 .508-3.406 3.665 3.665 0 0 1 2.175-2.012 3.719 3.719 0 0 1 1.33-.255 3.562 3.562 0 0 1 1.96.606 5.47 5.47 0 0 1 2.107 2.735 6.564 6.564 0 0 1 .444 3.426l-.086.522-3.669 1.699-.85-2.225.638-.448a1.834 1.834 0 0 0 .44-.463 3.824 3.824 0 0 0 .395-.731 2.471 2.471 0 0 0 .171-.67.811.811 0 0 0-.01-.318c-.297-.777-.586-.777-.71-.777a1.402 1.402 0 0 0-.485.108c-.127.049-.258.135-.348.435a6.73 6.73 0 0 0-.183 1.974c-.018 2.726-.928 4.443-2.705 5.123a4.286 4.286 0 0 1-1.534.295Z" class="a"/><path d="M306.117 107.318a2.571 2.571 0 0 1 1.417.445 4.474 4.474 0 0 1 1.716 2.253 5.568 5.568 0 0 1 .393 2.907l-2.217 1.026-.19-.496a2.82 2.82 0 0 0 .688-.712 4.833 4.833 0 0 0 .501-.927 3.485 3.485 0 0 0 .238-.944 1.724 1.724 0 0 0-.074-.781q-.54-1.415-1.641-1.414a2.377 2.377 0 0 0-.841.173 1.555 1.555 0 0 0-.95 1.083 7.828 7.828 0 0 0-.225 2.275q-.022 3.394-2.063 4.175a3.278 3.278 0 0 1-1.176.229q-.128 0-.254-.012a3.137 3.137 0 0 1-1.293-.406 3.904 3.904 0 0 1-1.073-.923 4.674 4.674 0 0 1-.756-1.314 6.756 6.756 0 0 1-.5-3.347l2.855-1.39.17.445a5.09 5.09 0 0 0-1.746 2.136 3.446 3.446 0 0 0-.284 1.141 2.463 2.463 0 0 0 .142 1.041 2.334 2.334 0 0 0 1.104 1.317 1.828 1.828 0 0 0 .83.201 2.09 2.09 0 0 0 .749-.147q1.519-.578 1.468-3.378a7.895 7.895 0 0 1 .428-2.996 2.949 2.949 0 0 1 2.584-1.66m0-2a4.719 4.719 0 0 0-1.685.32 4.818 4.818 0 0 0-2.31 1.77l-.36-.946-1.966.957-2.855 1.391-.955.465-.15 1.052a8.741 8.741 0 0 0 .612 4.342 6.688 6.688 0 0 0 1.08 1.87 5.905 5.905 0 0 0 1.622 1.388 5.132 5.132 0 0 0 2.105.663c.15.013.294.02.438.02a5.282 5.282 0 0 0 1.891-.362 4.716 4.716 0 0 0 2.503-2.2l.235.616 1.944-.9 2.217-1.026.96-.445.173-1.044a7.548 7.548 0 0 0-.499-3.949 6.444 6.444 0 0 0-2.496-3.216 4.546 4.546 0 0 0-2.504-.766Zm-5.204 8.135a1.102 1.102 0 0 1-.093-.19.553.553 0 0 1-.013-.194 1.447 1.447 0 0 1 .125-.477 2.72 2.72 0 0 1 .173-.337 3.003 3.003 0 0 1-.192 1.198Z" class="b"/><path d="M14.637 226.634c-.41-1.254-1.048-3.042-1.897-5.315-.847-2.269-1.53-4.019-2.03-5.202l-.663-1.565 1.69.18q.736.08 1.347.206a11.299 11.299 0 0 1 1.377.388c.484.168 1.033.388 1.68.674q.916.406 2.327 1.05l.763.327a19.026 19.026 0 0 0 4.27 1.447 7.362 7.362 0 0 0 1.35.135 4.51 4.51 0 0 0 1.578-.261 2.598 2.598 0 0 0 1.59-1.309 2.291 2.291 0 0 0 .03-1.816 2.845 2.845 0 0 0-1.35-1.537 3.76 3.76 0 0 0-1.876-.445 6.068 6.068 0 0 0-.641.036l-.922.1-.477-2.561 1.014-.162a9.955 9.955 0 0 1 1.57-.13 7.137 7.137 0 0 1 3.12.672 5.823 5.823 0 0 1 2.97 3.353 5.927 5.927 0 0 1 .384 2.28 6.134 6.134 0 0 1-.465 2.155 5.79 5.79 0 0 1-1.215 1.828 5.2 5.2 0 0 1-1.903 1.23 6.061 6.061 0 0 1-1.917.39l-.19.002a7.688 7.688 0 0 1-1.736-.212 13.692 13.692 0 0 1-2.083-.69q-1.064-.443-2.395-1.07l-1.577-.764a28.053 28.053 0 0 0-2.82-1.194l1.553 4.158a3.09 3.09 0 0 0 .297.631.382.382 0 0 0 .14.142 1.056 1.056 0 0 0 .372.093 8.328 8.328 0 0 0 .864.036l.812-.005.845 2.257-5.497 1.35Z" class="a"/><path d="M25.368 211.874a6.123 6.123 0 0 1 2.686.574 4.836 4.836 0 0 1 2.466 2.8 4.908 4.908 0 0 1 .321 1.898 5.108 5.108 0 0 1-.388 1.803 4.76 4.76 0 0 1-1.005 1.511 4.2 4.2 0 0 1-1.541.995 5.014 5.014 0 0 1-1.596.326q-.08.003-.16.003a6.642 6.642 0 0 1-1.509-.186 12.639 12.639 0 0 1-1.927-.64q-1.043-.434-2.35-1.05l-1.569-.76a39.367 39.367 0 0 0-4.942-1.95l2.301 6.164a4.165 4.165 0 0 0 .402.836 1.374 1.374 0 0 0 .505.47 2.03 2.03 0 0 0 .733.204 9.344 9.344 0 0 0 .971.042h.12l.206.55-3.504.86q-.627-1.918-1.91-5.355-1.284-3.435-2.048-5.242.684.073 1.251.19a10.164 10.164 0 0 1 1.253.354q.687.237 1.601.643.913.405 2.318 1.046l.783.336a19.86 19.86 0 0 0 4.48 1.51 8.29 8.29 0 0 0 1.535.153 5.478 5.478 0 0 0 1.927-.325 3.57 3.57 0 0 0 2.154-1.836 3.275 3.275 0 0 0 .054-2.575 3.843 3.843 0 0 0-1.801-2.062 4.77 4.77 0 0 0-2.362-.57 6.948 6.948 0 0 0-.75.042l-.119-.642a8.979 8.979 0 0 1 1.414-.117m0-2a11.022 11.022 0 0 0-1.729.142l-2.027.324.376 2.018.12.642.34 1.821 1.841-.2a4.974 4.974 0 0 1 .534-.03 2.788 2.788 0 0 1 1.388.317 1.841 1.841 0 0 1 .902 1.015 1.289 1.289 0 0 1-.006 1.058c-.053.117-.213.475-1.029.78a3.518 3.518 0 0 1-1.227.198 6.332 6.332 0 0 1-1.164-.118 17.997 17.997 0 0 1-4.021-1.365l-.824-.354c-.904-.412-1.683-.765-2.297-1.036a22.562 22.562 0 0 0-1.757-.705 12.203 12.203 0 0 0-1.502-.422c-.439-.091-.924-.165-1.443-.22l-3.379-.363 1.324 3.13c.495 1.17 1.173 2.908 2.016 5.163.843 2.26 1.477 4.035 1.883 5.276l.576 1.763 1.801-.442 3.505-.86 2.184-.537-.788-2.106-.205-.55-.49-1.309-1.397.01h-.107c-.257 0-.472-.007-.643-.02a4.157 4.157 0 0 1-.094-.231l-.757-2.027q.337.152.62.296l1.601.776c.886.419 1.706.785 2.454 1.096a14.69 14.69 0 0 0 2.237.74 8.68 8.68 0 0 0 1.967.24q.11 0 .22-.003a7.032 7.032 0 0 0 2.23-.45 6.21 6.21 0 0 0 2.274-1.47 6.77 6.77 0 0 0 1.423-2.139 7.123 7.123 0 0 0 .542-2.507 6.923 6.923 0 0 0-.447-2.668 6.792 6.792 0 0 0-3.47-3.901 8.132 8.132 0 0 0-3.555-.772Z" class="b"/><path d="M23.985 243.503a2.453 2.453 0 0 1-.693-.101 2.456 2.456 0 0 1-.48-4.52 2.407 2.407 0 0 1 1.873-.209 2.456 2.456 0 0 1 .48 4.52 2.44 2.44 0 0 1-1.18.31Z" class="a"/><path d="M23.992 239.571a1.435 1.435 0 0 1 .41.061 1.455 1.455 0 0 1 .284 2.683 1.399 1.399 0 0 1-1.11.128 1.456 1.456 0 0 1-.285-2.684 1.452 1.452 0 0 1 .701-.188m0-2a3.434 3.434 0 0 0-1.658.432 3.465 3.465 0 0 0 .68 6.36 3.397 3.397 0 0 0 2.633-.294 3.464 3.464 0 0 0-.684-6.356 3.43 3.43 0 0 0-.97-.142Z" class="b"/><path d="M50.646 277.39q-.283 0-.574-.027a7.682 7.682 0 0 1-4.824-2.652 10.655 10.655 0 0 1-2.69-4.972l-.138-.607 4.449-3.613 1.524 1.607-.58.685a4.362 4.362 0 0 0-.8 1.378 4.636 4.636 0 0 0-.275 1.509 4.203 4.203 0 0 0 .229 1.415 3 3 0 0 0 .653 1.096 3.822 3.822 0 0 0 .943.725 3.224 3.224 0 0 0 1.03.363 2.377 2.377 0 0 0 .376.032 2.338 2.338 0 0 0 .57-.073 1.671 1.671 0 0 0 .755-.424 2.137 2.137 0 0 0 .492-.635 1.908 1.908 0 0 0 .139-.756 6.365 6.365 0 0 0-.176-1.41 42.03 42.03 0 0 0-.59-2.297 14.712 14.712 0 0 1-.678-4.735 5.02 5.02 0 0 1 1.582-3.437 5.136 5.136 0 0 1 2.005-1.19 5.315 5.315 0 0 1 1.562-.234 5.91 5.91 0 0 1 .69.042 6.418 6.418 0 0 1 2.245.734 8.068 8.068 0 0 1 2.036 1.594 7.523 7.523 0 0 1 2.155 4.38l.055.515-3.514 3.087-1.462-1.553.45-.664c1.472-2.164.775-3.382.003-4.201a3.036 3.036 0 0 0-1.78-.944 1.977 1.977 0 0 0-.28-.02 1.671 1.671 0 0 0-.484.07 1.476 1.476 0 0 0-.6.346 1.288 1.288 0 0 0-.301.411 1.487 1.487 0 0 0-.082.616 7.48 7.48 0 0 0 .198 1.405q.205.934.59 2.344c.285.946.519 1.806.688 2.532a8.92 8.92 0 0 1 .257 2.164 4.736 4.736 0 0 1-.45 1.978 5.93 5.93 0 0 1-1.308 1.71 5.831 5.831 0 0 1-4.09 1.705Z" class="a"/><path d="M55.63 260.138a4.74 4.74 0 0 1 .57.035 5.395 5.395 0 0 1 1.892.621 7.067 7.067 0 0 1 1.781 1.4 6.522 6.522 0 0 1 1.888 3.8l-2.399 2.107-.25-.266q2.112-3.105-.096-5.449a4.025 4.025 0 0 0-2.37-1.248 2.979 2.979 0 0 0-.417-.03 2.664 2.664 0 0 0-.774.113 2.473 2.473 0 0 0-.997.575 2.284 2.284 0 0 0-.527.728 2.453 2.453 0 0 0-.17 1.044 8.403 8.403 0 0 0 .221 1.601q.21.955.603 2.395.433 1.438.679 2.496a7.897 7.897 0 0 1 .23 1.918 3.732 3.732 0 0 1-.353 1.564 4.937 4.937 0 0 1-1.091 1.414 4.845 4.845 0 0 1-3.404 1.433q-.237 0-.48-.022a6.695 6.695 0 0 1-4.19-2.341 9.625 9.625 0 0 1-2.443-4.51l3.247-2.637.27.285a5.331 5.331 0 0 0-.981 1.694 5.61 5.61 0 0 0-.332 1.832 5.17 5.17 0 0 0 .286 1.752 4.024 4.024 0 0 0 .868 1.452 4.827 4.827 0 0 0 1.19.917 4.236 4.236 0 0 0 1.354.474 3.286 3.286 0 0 0 1.348-.059 2.663 2.663 0 0 0 1.198-.668 3.096 3.096 0 0 0 .712-.94 2.872 2.872 0 0 0 .232-1.162 7.33 7.33 0 0 0-.199-1.64q-.21-.956-.604-2.354a13.894 13.894 0 0 1-.643-4.397 4.032 4.032 0 0 1 1.27-2.776 4.112 4.112 0 0 1 1.613-.961 4.278 4.278 0 0 1 1.268-.19m0-2a6.296 6.296 0 0 0-1.857.278 6.156 6.156 0 0 0-4.29 5.52 15.633 15.633 0 0 0 .711 5.06c.254.9.448 1.654.579 2.25a5.324 5.324 0 0 1 .152 1.18 1.002 1.002 0 0 1-.048.354 1.171 1.171 0 0 1-.262.318.678.678 0 0 1-.317.188 1.329 1.329 0 0 1-.33.042 1.311 1.311 0 0 1-.21-.017 2.277 2.277 0 0 1-.723-.259 2.795 2.795 0 0 1-.692-.533 2.02 2.02 0 0 1-.431-.733 3.16 3.16 0 0 1-.175-1.082 3.634 3.634 0 0 1 .218-1.18 3.324 3.324 0 0 1 .62-1.066l1.162-1.368-1.236-1.303-.27-.284-1.274-1.344-1.437 1.168-3.247 2.636-.967.785.278 1.214a11.643 11.643 0 0 0 2.935 5.434 8.643 8.643 0 0 0 5.461 2.962c.224.02.446.031.666.031a6.802 6.802 0 0 0 4.775-1.977 6.93 6.93 0 0 0 1.522-2.002 5.736 5.736 0 0 0 .551-2.397 9.917 9.917 0 0 0-.282-2.407 34.905 34.905 0 0 0-.303-1.194l.747.794.25.266 1.325 1.407 1.451-1.276 2.4-2.107.779-.685-.111-1.03a8.501 8.501 0 0 0-2.421-4.96 9.093 9.093 0 0 0-2.289-1.788 7.415 7.415 0 0 0-2.594-.845 6.806 6.806 0 0 0-.816-.05Zm.14 5.18a.403.403 0 0 1 .058-.065.477.477 0 0 1 .203-.116.673.673 0 0 1 .198-.029.977.977 0 0 1 .137.01 2.025 2.025 0 0 1 1.195.641c.56.593 1.013 1.31-.103 2.952l-.726 1.068q-.106-.371-.225-.767c-.247-.905-.44-1.67-.571-2.271a6.393 6.393 0 0 1-.175-1.207 1.426 1.426 0 0 1 .01-.216Z" class="b"/><path d="M68.944 293.755a7.194 7.194 0 0 1-4.462-1.563 5.143 5.143 0 0 1-1.518-1.87 5.811 5.811 0 0 1-.564-2.285 6.73 6.73 0 0 1 .359-2.414 7.94 7.94 0 0 1 1.259-2.325 7.403 7.403 0 0 1 1.989-1.816 6.81 6.81 0 0 1 2.383-.917 6.231 6.231 0 0 1 2.512.062 6.13 6.13 0 0 1 2.368 1.142 5.524 5.524 0 0 1 1.376 1.513 5.037 5.037 0 0 1 .676 1.839 4.856 4.856 0 0 1-.112 2 6.226 6.226 0 0 1-.87 1.878l-.596.882-6.31-4.85-.074.095a5.236 5.236 0 0 0-.822 1.487 3.46 3.46 0 0 0-.197 1.374 2.989 2.989 0 0 0 .376 1.245 3.52 3.52 0 0 0 .964 1.095 3.047 3.047 0 0 0 1.254.594 4.835 4.835 0 0 0 .974.087q.422 0 .908-.049l1.862-.184-1.416 2.65-.44.104a8.217 8.217 0 0 1-1.879.226Zm2.825-8.657c.147.113.273.204.38.278a2.46 2.46 0 0 0 .042-.765 1.213 1.213 0 0 0-.553-.763 2.298 2.298 0 0 0-1.419-.537 2.46 2.46 0 0 0-.145.005 2.398 2.398 0 0 0-.504.093Z" class="a"/><path d="M69.495 281.466a5.258 5.258 0 0 1 1.183.136 5.11 5.11 0 0 1 1.982.959 4.518 4.518 0 0 1 1.131 1.24 4.027 4.027 0 0 1 .543 1.475 3.841 3.841 0 0 1-.091 1.59 5.191 5.191 0 0 1-.733 1.574l-6.194-4.761a7.459 7.459 0 0 0-.75.838 6.2 6.2 0 0 0-.975 1.774 4.428 4.428 0 0 0-.248 1.769 4.003 4.003 0 0 0 .497 1.653 4.494 4.494 0 0 0 1.232 1.406 4.068 4.068 0 0 0 1.66.782 5.823 5.823 0 0 0 1.177.107q.467 0 1.006-.054l-.32.601a7.193 7.193 0 0 1-1.651.2 6.187 6.187 0 0 1-3.853-1.356 4.128 4.128 0 0 1-1.225-1.507 4.798 4.798 0 0 1-.467-1.896 5.72 5.72 0 0 1 .309-2.057 6.919 6.919 0 0 1 1.102-2.032 6.387 6.387 0 0 1 1.721-1.574 5.808 5.808 0 0 1 2.034-.784 5.31 5.31 0 0 1 .93-.083m2.945 5.166q.324 0 .555-.601a3.371 3.371 0 0 0 .192-1.513 2.126 2.126 0 0 0-.941-1.464 3.284 3.284 0 0 0-2.027-.743q-.107 0-.216.008a3.792 3.792 0 0 0-2.218.98l3.375 2.592a5.08 5.08 0 0 0 1.131.71.41.41 0 0 0 .15.03m-2.946-7.165a7.342 7.342 0 0 0-1.28.114 7.826 7.826 0 0 0-2.73 1.048 8.413 8.413 0 0 0-2.261 2.062 8.942 8.942 0 0 0-1.414 2.616 7.74 7.74 0 0 0-.41 2.775 6.803 6.803 0 0 0 .662 2.673 6.128 6.128 0 0 0 1.809 2.229 8.173 8.173 0 0 0 5.073 1.772 9.225 9.225 0 0 0 2.109-.253l.88-.207.426-.798.32-.6.975-1.825.325.25 1.19-1.764a7.213 7.213 0 0 0 1.007-2.18 5.847 5.847 0 0 0 .134-2.41 6.038 6.038 0 0 0-.809-2.205 6.526 6.526 0 0 0-1.623-1.79 7.114 7.114 0 0 0-2.752-1.32 7.286 7.286 0 0 0-1.63-.187Zm.414 10.542a3.879 3.879 0 0 1-.77-.066 2.08 2.08 0 0 1-.85-.41 2.496 2.496 0 0 1-.694-.778 2.013 2.013 0 0 1-.257-.838 2.436 2.436 0 0 1 .146-.977 3.536 3.536 0 0 1 .194-.46l4.363 3.354-1.323.131a8.286 8.286 0 0 1-.809.044Z" class="b"/><path d="M83.19 310.37a5.763 5.763 0 0 0-.591-.382c-.275-.16-.573-.337-.9-.535l-1.013-.544q-.85-.459-1.574-.819-.72-.357-1.369-.644l-.986-.438 1.117-2.074 1.794.567c.004-.006 5.923-10.989 5.943-11.03l-1.548-1.19 1.274-1.505.522.05c.619.06 1.129.09 1.515.09a4.167 4.167 0 0 0 .463-.02 1.96 1.96 0 0 0 .948-.307l.49-.3 1.756.95-.925 1.715a9.109 9.109 0 0 1 1.444.144 7.436 7.436 0 0 1 2.672 1.008 5.144 5.144 0 0 1 2.406 3.587 7.138 7.138 0 0 1-.924 4.642 7.287 7.287 0 0 1-1.758 2.166 6.881 6.881 0 0 1-2.372 1.289 6.812 6.812 0 0 1-2.017.301q-.34 0-.688-.032a7.188 7.188 0 0 1-2.752-.853 7.983 7.983 0 0 1-1.856-1.41l-1.255 2.328c.054.05.139.124.262.22l2.02 1.566-1.17 2.166Zm2.756-8.7a.97.97 0 0 0 .04.988 3.052 3.052 0 0 0 1.36 1.27 2.78 2.78 0 0 0 1.22.358l.147.004a2.868 2.868 0 0 0 1.068-.206 3.807 3.807 0 0 0 1.17-.745 4.83 4.83 0 0 0 .973-1.277 5.754 5.754 0 0 0 .634-1.745 3.623 3.623 0 0 0-.024-1.447 2.402 2.402 0 0 0-.563-1.075 2.83 2.83 0 0 0-1.147-.736 6.174 6.174 0 0 0-2.005-.295l-.23.002Z" class="a"/><path d="m89.306 292.443.37.2-1.302 2.415a11.067 11.067 0 0 1 1.498-.107 8.215 8.215 0 0 1 1.496.13 6.425 6.425 0 0 1 2.316.867 4.166 4.166 0 0 1 1.958 2.915 6.14 6.14 0 0 1-.819 3.998 6.265 6.265 0 0 1-1.516 1.87 5.82 5.82 0 0 1-3.75 1.36q-.295 0-.595-.028a6.168 6.168 0 0 1-2.37-.737 7.944 7.944 0 0 1-2.523-2.283l-2.02 3.747a.724.724 0 0 0-.063.617 1.983 1.983 0 0 0 .673.729l1.347 1.044-.213.393a6.715 6.715 0 0 0-.694-.452q-.4-.233-.88-.523l-1.06-.57q-.862-.466-1.602-.833-.741-.368-1.408-.664l.212-.394 1.142.361a1.36 1.36 0 0 0 .39.07.481.481 0 0 0 .217-.044 1.402 1.402 0 0 0 .45-.57l5.86-10.869q.49-.912.184-1.11l-1.101-.847.259-.307q.982.096 1.612.096a5.109 5.109 0 0 0 .578-.028 2.885 2.885 0 0 0 1.354-.446m-.594 12.846a3.889 3.889 0 0 0 1.435-.274 4.766 4.766 0 0 0 1.476-.937 5.792 5.792 0 0 0 1.18-1.542 6.73 6.73 0 0 0 .741-2.051 4.596 4.596 0 0 0-.037-1.849 3.41 3.41 0 0 0-.793-1.51 3.835 3.835 0 0 0-1.541-1.005 7.133 7.133 0 0 0-2.354-.358q-.408 0-.844.034l-2.91 5.398a1.976 1.976 0 0 0 .024 1.905 4.002 4.002 0 0 0 1.782 1.708 3.794 3.794 0 0 0 1.652.476q.095.005.19.005m.532-15.153-.982.6a.94.94 0 0 1-.42.156l-.062.003-.06.007a3.14 3.14 0 0 1-.347.015c-.354 0-.832-.03-1.42-.086l-1.043-.101-.676.8-.26.307-1.351 1.599 1.659 1.277.046.035-5.149 9.55-.215-.068-1.58-.5-.784 1.459-.213.394-1.023 1.9 1.973.876q.63.28 1.33.627.71.353 1.541.801l1.017.547q.47.286.866.515a4.868 4.868 0 0 1 .493.318l1.86 1.41 1.108-2.054.213-.393.805-1.492-1.34-1.039-.949-.736.264-.488a8.292 8.292 0 0 0 1.096.711 8.186 8.186 0 0 0 3.135.968c.26.024.523.037.78.037a7.82 7.82 0 0 0 5.024-1.818 8.286 8.286 0 0 0 2.003-2.464 8.106 8.106 0 0 0 1.03-5.286 6.19 6.19 0 0 0-2.856-4.262 8.435 8.435 0 0 0-3.028-1.147l-.032-.006.687-1.274-1.757-.95-.37-.2-1.013-.548Zm-2.404 11.98 2.342-4.344a4.795 4.795 0 0 1 1.331.238 1.81 1.81 0 0 1 .717.458 1.405 1.405 0 0 1 .331.634 2.642 2.642 0 0 1 .01 1.05 4.776 4.776 0 0 1-.528 1.435 3.831 3.831 0 0 1-.772 1.017 2.792 2.792 0 0 1-.85.547 1.897 1.897 0 0 1-.71.138l-.095-.002a1.817 1.817 0 0 1-.795-.239 2.117 2.117 0 0 1-.939-.831.782.782 0 0 1-.042-.1Z" class="b"/><path d="M110.618 316.497a7.365 7.365 0 0 1-2.424-.516 4.508 4.508 0 0 1-1.316-.693 2.305 2.305 0 0 1-.822-1.334 3.594 3.594 0 0 1 .049-1.557 15.188 15.188 0 0 1 .542-1.781l1.79-4.994a21.78 21.78 0 0 1-.486-.17 1.429 1.429 0 0 1-.86-.717 1.16 1.16 0 0 1-.036-.896 1.399 1.399 0 0 1 1.322-.885 3.62 3.62 0 0 0 1.595-.357 4.364 4.364 0 0 0 .703-.55 10.567 10.567 0 0 0 .973-1.06l.448-.547 1.92.693-.336.94q-.252.701-.486 1.395l-.16.469 3.619 1.209-1.014 2.825-3.622-1.18-1.6 4.462a8.942 8.942 0 0 0-.575 2.2c-.01.038.05.104.273.17a2.716 2.716 0 0 0 .726.077 8.5 8.5 0 0 0 1.189-.099l.91-.132.482 2.083-.657.366a4.4 4.4 0 0 1-2.072.578Z" class="a"/><path d="m112.422 301.62.316.115c-.17.473-.335.946-.492 1.414q-.238.704-.493 1.415l3.613 1.207-.34.948-3.623-1.18-1.928 5.376a10.103 10.103 0 0 0-.631 2.466q-.065.885.982 1.2a3.74 3.74 0 0 0 1.014.118 9.425 9.425 0 0 0 1.333-.109l.105.454a3.399 3.399 0 0 1-1.604.451h-.056a6.489 6.489 0 0 1-2.087-.456 3.58 3.58 0 0 1-1.028-.532 1.296 1.296 0 0 1-.47-.764 2.657 2.657 0 0 1 .048-1.128 14.4 14.4 0 0 1 .507-1.662l2.136-5.957q-.37-.131-.716-.242-.348-.108-.716-.242-.37-.133-.298-.33c.047-.13.203-.21.47-.232a4.57 4.57 0 0 0 2.021-.495 5.468 5.468 0 0 0 .866-.67 11.526 11.526 0 0 0 1.071-1.165m-.652-2.361-.896 1.095a9.639 9.639 0 0 1-.879.96 3.493 3.493 0 0 1-.53.42 2.75 2.75 0 0 1-1.126.22l-.025.001-.025.002a2.412 2.412 0 0 0-2.18 1.556 2.142 2.142 0 0 0 .076 1.645 2.296 2.296 0 0 0 .985 1.035l-1.465 4.085a16.163 16.163 0 0 0-.576 1.901 4.562 4.562 0 0 0-.05 1.987 3.296 3.296 0 0 0 1.176 1.904 5.473 5.473 0 0 0 1.603.852 8.306 8.306 0 0 0 2.76.574l.095-.001a5.39 5.39 0 0 0 2.538-.704l1.314-.732-.338-1.465-.105-.454-.415-1.793-1.82.264a8.266 8.266 0 0 1-.884.085c.078-.286.19-.649.355-1.107l1.272-3.547 1.776.579 1.846.601.656-1.827.34-.949.692-1.924-1.94-.648-1.695-.567q.154-.446.316-.897l.674-1.879-1.877-.677-.317-.115-1.33-.48Z" class="b"/><path d="M130.609 321.942a7.953 7.953 0 0 1-1.6-.167 5.127 5.127 0 0 1-2.183-1.016 5.831 5.831 0 0 1-1.508-1.807 6.74 6.74 0 0 1-.732-2.33 7.93 7.93 0 0 1 .112-2.64 7.428 7.428 0 0 1 .995-2.504 6.8 6.8 0 0 1 1.742-1.868 6.234 6.234 0 0 1 2.285-1.043 5.825 5.825 0 0 1 1.314-.149 6.51 6.51 0 0 1 1.315.138 5.539 5.539 0 0 1 1.9.76 5.006 5.006 0 0 1 1.412 1.358 4.842 4.842 0 0 1 .774 1.847 6.204 6.204 0 0 1 .04 2.07l-.15 1.052-7.796-1.598c-.009.04-.018.078-.025.118a5.258 5.258 0 0 0-.088 1.697 3.48 3.48 0 0 0 .425 1.322 2.982 2.982 0 0 0 .882.953 3.461 3.461 0 0 0 1.343.56 3.376 3.376 0 0 0 .69.075 2.848 2.848 0 0 0 .702-.087 6.402 6.402 0 0 0 1.706-.788l1.595-.985-.112 3.005-.35.287a7.29 7.29 0 0 1-4.688 1.74Zm1.848-9.734c.18.038.334.064.463.083a2.481 2.481 0 0 0-.298-.708 1.22 1.22 0 0 0-.832-.443 3.01 3.01 0 0 0-.595-.063 2.02 2.02 0 0 0-1.04.27 2.386 2.386 0 0 0-.416.304Z" class="a"/><path d="M131.034 309.418a5.51 5.51 0 0 1 1.113.117 4.52 4.52 0 0 1 1.56.62 4.004 4.004 0 0 1 1.133 1.09 3.828 3.828 0 0 1 .614 1.47 5.184 5.184 0 0 1 .03 1.734l-7.652-1.568a7.569 7.569 0 0 0-.308 1.08 6.23 6.23 0 0 0-.1 2.023 4.449 4.449 0 0 0 .552 1.7 4.001 4.001 0 0 0 1.17 1.267 4.44 4.44 0 0 0 1.722.725 4.392 4.392 0 0 0 .888.093 3.848 3.848 0 0 0 .947-.116 7.326 7.326 0 0 0 1.987-.908l-.026.681a6.284 6.284 0 0 1-4.055 1.516 6.958 6.958 0 0 1-1.399-.147 4.127 4.127 0 0 1-1.761-.818 4.816 4.816 0 0 1-1.251-1.5 5.721 5.721 0 0 1-.621-1.986 6.906 6.906 0 0 1 .1-2.308 6.398 6.398 0 0 1 .86-2.168 5.769 5.769 0 0 1 1.485-1.596 5.228 5.228 0 0 1 1.923-.878 4.811 4.811 0 0 1 1.089-.123m2.385 3.92q.089 0 .165-.007.45-.036.383-.822a3.386 3.386 0 0 0-.49-1.444 2.133 2.133 0 0 0-1.486-.905 3.968 3.968 0 0 0-.796-.084 3.025 3.025 0 0 0-1.542.406 3.775 3.775 0 0 0-1.566 1.851l4.169.855a6.112 6.112 0 0 0 1.163.15m-2.385-5.92a6.834 6.834 0 0 0-1.54.175 7.237 7.237 0 0 0-2.65 1.21 7.78 7.78 0 0 0-1.995 2.139 8.418 8.418 0 0 0-1.13 2.838 8.932 8.932 0 0 0-.125 2.975 7.731 7.731 0 0 0 .843 2.67 6.827 6.827 0 0 0 1.767 2.117 6.128 6.128 0 0 0 2.602 1.212 9.002 9.002 0 0 0 1.803.188 8.262 8.262 0 0 0 5.319-1.966l.701-.571.034-.904.025-.681.077-2.066.4.082.3-2.105a7.202 7.202 0 0 0-.048-2.401 5.837 5.837 0 0 0-.936-2.228 6.009 6.009 0 0 0-1.694-1.63 6.522 6.522 0 0 0-2.238-.896 7.536 7.536 0 0 0-1.515-.158Zm.722 10.351a2.411 2.411 0 0 1-.484-.052 2.456 2.456 0 0 1-.965-.393 2.017 2.017 0 0 1-.6-.643 2.456 2.456 0 0 1-.299-.946 3.54 3.54 0 0 1-.025-.494l5.388 1.104-1.132.699a5.33 5.33 0 0 1-1.427.67 1.838 1.838 0 0 1-.456.055Z" class="b"/><path d="M168.546 324.886a35.976 35.976 0 0 0-2.805-.162q-.443-.009-.855-.009-.9 0-1.645.042l-.811.047-.001.051-1.077-.106a37.92 37.92 0 0 0-2.945-.165q-.41-.007-.817-.007-1.138 0-2.248.06l-.584.03v.033l-.234-.02-.255.013v-.036l-.58-.052a39.922 39.922 0 0 0-3.546-.155q-1.02 0-2.057.05l-1.067.05.043-2.33 1.616-.304a1.806 1.806 0 0 0 .23-.061 1.63 1.63 0 0 0 .013-.186l.115-6.048a1.884 1.884 0 0 0-.01-.266c-.18-.036-.393-.083-.66-.132l-.833-.155.04-2.06.743-.186a4.163 4.163 0 0 0 2.174-1.656l.307-.403 2.04.037-.032 1.603c.25-.163.49-.306.725-.428a5.337 5.337 0 0 1 2.515-.608h.122a7.006 7.006 0 0 1 1.224.124 3.525 3.525 0 0 1 1.164.455 3.791 3.791 0 0 1 .959.87c.032.04.063.083.096.125a8.11 8.11 0 0 1 1.292-.833 6.045 6.045 0 0 1 2.766-.596l.168.001a4.102 4.102 0 0 1 3.133 1.378 5.041 5.041 0 0 1 1.107 3.54l-.108 5.655c-.002.08 0 .148.003.204l1.694.334-.04 2.368Zm-6.289-2.418 1.566-.293a3.092 3.092 0 0 0 .435-.108l.099-5.091a2.723 2.723 0 0 0-.373-1.769 1.688 1.688 0 0 0-1.302-.426h-.002a3.049 3.049 0 0 0-2.237.965l-.113 5.943a3.8 3.8 0 0 0 .006.32Zm-7.668-.145 1.307-.29a3.788 3.788 0 0 0 .723-.226l.096-5.031a2.54 2.54 0 0 0-.417-1.632 1.259 1.259 0 0 0-1.062-.477h-.002a2.601 2.601 0 0 0-.768.132 4.36 4.36 0 0 0-.935.406 3.1 3.1 0 0 0-.69.524.417.417 0 0 0-.102.139l-.107 5.702a2.56 2.56 0 0 0 .008.29Z" class="a"/><path d="m151.285 311.772.532.01-.051 2.686a12.113 12.113 0 0 1 2.229-1.608 4.33 4.33 0 0 1 2.05-.494l.102.001a5.977 5.977 0 0 1 1.048.104 2.518 2.518 0 0 1 .834.325 2.779 2.779 0 0 1 .702.643 6.455 6.455 0 0 1 .652 1.034 8.074 8.074 0 0 1 1.974-1.475 5.038 5.038 0 0 1 2.311-.486l.149.001a3.124 3.124 0 0 1 2.402 1.04 4.068 4.068 0 0 1 .857 2.858l-.108 5.656q-.019 1.035.427 1.128l1.256.248-.008.448q-1.427-.14-2.882-.167-.454-.009-.875-.009-.93 0-1.702.044l.009-.448.814-.153a2.564 2.564 0 0 0 .959-.33.99.99 0 0 0 .295-.82l.096-5.013a3.689 3.689 0 0 0-.599-2.42 2.584 2.584 0 0 0-2.058-.794l-.082-.001a4.117 4.117 0 0 0-3.168 1.563l-.12 6.327a2.601 2.601 0 0 0 .096.884c.07.196.273.337.608.417l1.422.336-.008.447q-1.426-.139-3.022-.17-.42-.007-.836-.007-1.165 0-2.301.06l.008-.447.816-.18a3.737 3.737 0 0 0 1.142-.414.922.922 0 0 0 .366-.818l.094-4.984a3.471 3.471 0 0 0-.63-2.266 2.25 2.25 0 0 0-1.83-.86l-.045-.001a3.572 3.572 0 0 0-1.038.176 5.362 5.362 0 0 0-1.143.496 4.08 4.08 0 0 0-.91.696 1.195 1.195 0 0 0-.38.806l-.107 5.71a1.676 1.676 0 0 0 .164.928.907.907 0 0 0 .568.347l1.421.335-.008.448q-1.786-.16-3.634-.16-1.043 0-2.105.051l.009-.448.815-.152a1.506 1.506 0 0 0 .833-.377 1.316 1.316 0 0 0 .226-.835l.115-6.048a2.56 2.56 0 0 0-.046-.574.81.81 0 0 0-.203-.397 1.014 1.014 0 0 0-.443-.246 7.305 7.305 0 0 0-.794-.183l.008-.448a5.09 5.09 0 0 0 2.727-2.02m-.976-2.018-.614.804a3.237 3.237 0 0 1-1.62 1.294l-1.486.37-.03 1.531-.01.447-.032 1.695 1.508.281-.092 4.863-.254.047-1.602.3-.03 1.629-.008.448-.04 2.137 2.135-.102c.673-.032 1.35-.048 2.01-.048 1.047 0 2.09.04 3.109.122l-.004.176 1.257-.066 1.231.11.003-.175c.61-.027 1.23-.04 1.85-.04q.398 0 .8.007c.964.019 1.89.07 2.755.15l-.003.146.941-.054 1.327.13.004-.206c.44-.023.935-.035 1.472-.035q.402 0 .837.009c.913.017 1.83.07 2.726.158l2.156.21.037-2.166.008-.448.03-1.673-1.642-.324-.058-.012.096-5.02a6.005 6.005 0 0 0-1.356-4.218 5.13 5.13 0 0 0-3.865-1.718l-.187-.001a7.027 7.027 0 0 0-3.22.705q-.347.177-.69.395a4.478 4.478 0 0 0-.672-.514 4.532 4.532 0 0 0-1.497-.588 7.889 7.889 0 0 0-1.402-.142l-.142-.001a6.426 6.426 0 0 0-2.208.38l.018-.928-2.001-.037-.532-.01-1.013-.018Zm3.423 6.515a2.54 2.54 0 0 1 .296-.197 3.394 3.394 0 0 1 .723-.315 1.657 1.657 0 0 1 .459-.09c.23.004.265.047.3.092a1.683 1.683 0 0 1 .205.998l-.081 4.31-.77.17-.268.06-.352-.083-.603-.142.09-4.803Zm7.702-.067a1.82 1.82 0 0 1 1.184-.422 1.789 1.789 0 0 1 .603.083 2.614 2.614 0 0 1 .136 1.095l-.082 4.303-.45.084-.544.102-.365-.086-.577-.137.095-5.022Z" class="b"/><path d="M180.42 308.744q-.134-.765-.182-1.303a1.153 1.153 0 0 0-.124-.462.594.594 0 0 0-.248-.201 4.357 4.357 0 0 0-1.12-.318l-.836-.157.05-1.915 5.131-2.231 1.395 7.993a9.84 9.84 0 0 1 2.866-1.043 6.684 6.684 0 0 1 1.141-.103 5.647 5.647 0 0 1 1.445.185 5.904 5.904 0 0 1 2.156 1.081 6.314 6.314 0 0 1 1.578 1.883 7.665 7.665 0 0 1 .852 2.43 7.517 7.517 0 0 1-.029 2.873 6.763 6.763 0 0 1-1.03 2.43 6.417 6.417 0 0 1-1.89 1.794 6.995 6.995 0 0 1-2.517.956 5.769 5.769 0 0 1-.97.08c-.152 0-.309-.006-.47-.016-.464-.032-.896-.08-1.287-.145-.34-.057-.638-.114-.893-.17a4.359 4.359 0 0 0-.217.534l-.192.558-1.98.352Zm5.544 9.89a1.576 1.576 0 0 0 .64 1.134 1.626 1.626 0 0 0 .909.235 3.229 3.229 0 0 0 .563-.052 3.115 3.115 0 0 0 2.252-1.24 4.117 4.117 0 0 0 .302-2.908 5.695 5.695 0 0 0-.558-1.691 4.024 4.024 0 0 0-.92-1.187 3.275 3.275 0 0 0-1.175-.66 2.593 2.593 0 0 0-.781-.12 2.822 2.822 0 0 0-.5.045 4.302 4.302 0 0 0-1.563.536 1.855 1.855 0 0 0-.178.125Z" class="a"/><path d="m182.324 303.58 1.424 8.164a10.466 10.466 0 0 1 3.776-1.652 5.603 5.603 0 0 1 .97-.088 4.604 4.604 0 0 1 1.187.152 4.869 4.869 0 0 1 1.79.896 5.297 5.297 0 0 1 1.328 1.588 6.632 6.632 0 0 1 .74 2.116 6.49 6.49 0 0 1-.021 2.49 5.748 5.748 0 0 1-.876 2.072 5.399 5.399 0 0 1-1.598 1.514 5.954 5.954 0 0 1-2.16.819 4.688 4.688 0 0 1-.796.064q-.196 0-.401-.014a11.94 11.94 0 0 1-1.19-.132c-.36-.06-.67-.12-.927-.18a2.951 2.951 0 0 0-.425-.08h-.015q-.44.078-.855 1.286l-.414.073-2.457-14.096q-.124-.717-.17-1.221a2.122 2.122 0 0 0-.25-.865 1.54 1.54 0 0 0-.659-.596 5.361 5.361 0 0 0-1.393-.412l.01-.427 3.382-1.47m5.189 17.422a4.278 4.278 0 0 0 .735-.067q4.165-.727 3.367-5.305a6.667 6.667 0 0 0-.659-1.987 4.987 4.987 0 0 0-1.151-1.476 4.285 4.285 0 0 0-1.528-.857 3.581 3.581 0 0 0-1.082-.166 3.881 3.881 0 0 0-.671.06 5.246 5.246 0 0 0-1.928.677c-.495.313-.717.617-.666.91l1.049 6.014a2.538 2.538 0 0 0 1.08 1.802 2.617 2.617 0 0 0 1.454.396m-3.655-20.271-2.331 1.013-3.382 1.471-1.17.509-.032 1.275-.01.426-.043 1.701 1.671.315a5.874 5.874 0 0 1 .688.164c.036.37.097.799.185 1.307l2.457 14.098.345 1.976 1.975-.35.413-.074 1.16-.205.286-.834.101.017c.416.07.884.122 1.385.155.178.012.357.018.532.018a6.712 6.712 0 0 0 1.137-.093 7.977 7.977 0 0 0 2.883-1.096 7.41 7.41 0 0 0 2.18-2.071 7.765 7.765 0 0 0 1.184-2.784 8.508 8.508 0 0 0 .037-3.257 8.658 8.658 0 0 0-.967-2.754 7.3 7.3 0 0 0-1.827-2.174 6.876 6.876 0 0 0-2.515-1.262 6.635 6.635 0 0 0-1.706-.22 7.633 7.633 0 0 0-1.316.118 9.478 9.478 0 0 0-1.933.566l-.95-5.451-.437-2.504Zm2.205 12.648a4.509 4.509 0 0 1 .801-.206 1.912 1.912 0 0 1 .331-.03 1.577 1.577 0 0 1 .481.074 2.288 2.288 0 0 1 .822.463 2.983 2.983 0 0 1 .688.892 4.71 4.71 0 0 1 .46 1.4 3.282 3.282 0 0 1-.161 2.2 2.25 2.25 0 0 1-1.58.792 2.305 2.305 0 0 1-.392.038.697.697 0 0 1-.368-.076c-.113-.073-.171-.322-.196-.464l-.886-5.083Z" class="b"/><path d="M211.862 316.519a5.163 5.163 0 0 1-.681-.046 5.83 5.83 0 0 1-2.225-.778 6.704 6.704 0 0 1-1.824-1.622 7.913 7.913 0 0 1-1.258-2.324 7.405 7.405 0 0 1-.433-2.658 6.85 6.85 0 0 1 .534-2.497 6.272 6.272 0 0 1 1.427-2.07 6.156 6.156 0 0 1 2.249-1.358 5.56 5.56 0 0 1 1.842-.329l.181.004a5 5 0 0 1 1.91.442 4.816 4.816 0 0 1 1.611 1.188 6.176 6.176 0 0 1 1.095 1.753l.411.98-7.508 2.632.038.11a5.232 5.232 0 0 0 .797 1.506 3.46 3.46 0 0 0 1.042.917 3.034 3.034 0 0 0 1.248.365c.082.007.162.01.24.01a3.656 3.656 0 0 0 1.204-.22 3.036 3.036 0 0 0 1.182-.724 6.392 6.392 0 0 0 1.061-1.554l.862-1.662 1.449 2.634-.155.426a7.243 7.243 0 0 1-4.587 4.578 5.166 5.166 0 0 1-1.712.297Zm-.758-10.97a1.862 1.862 0 0 0-.606.121 2.242 2.242 0 0 0-1.298 1.019 2.39 2.39 0 0 0-.199.472l2.618-.917c.175-.062.32-.118.44-.167a2.522 2.522 0 0 0-.62-.455.723.723 0 0 0-.335-.073Z" class="a"/><path d="M211.494 303.837q.072 0 .144.003a4.002 4.002 0 0 1 1.533.354 3.812 3.812 0 0 1 1.28.945 5.174 5.174 0 0 1 .917 1.473l-7.372 2.584a7.28 7.28 0 0 0 .292 1.085 6.198 6.198 0 0 0 .953 1.788 4.437 4.437 0 0 0 1.345 1.174 4.027 4.027 0 0 0 1.656.488q.158.012.317.012a4.63 4.63 0 0 0 1.533-.275 4.054 4.054 0 0 0 1.561-.963 7.322 7.322 0 0 0 1.24-1.799l.328.597a6.258 6.258 0 0 1-3.978 3.976 4.108 4.108 0 0 1-1.93.203 4.803 4.803 0 0 1-1.844-.646 5.714 5.714 0 0 1-1.554-1.385 6.906 6.906 0 0 1-1.098-2.032 6.395 6.395 0 0 1-.376-2.3 5.815 5.815 0 0 1 .454-2.133 5.246 5.246 0 0 1 1.2-1.742 5.136 5.136 0 0 1 1.887-1.134 4.54 4.54 0 0 1 1.512-.272m-3.561 4.757 4.017-1.408a5.144 5.144 0 0 0 1.213-.559c.246-.176.215-.475-.093-.902a3.407 3.407 0 0 0-1.162-.987 1.703 1.703 0 0 0-.805-.19 2.847 2.847 0 0 0-.935.177 3.229 3.229 0 0 0-1.842 1.476 3.79 3.79 0 0 0-.393 2.393m3.56-6.757a6.553 6.553 0 0 0-2.175.385 7.142 7.142 0 0 0-2.609 1.579 7.264 7.264 0 0 0-1.654 2.4 7.836 7.836 0 0 0-.614 2.86 8.415 8.415 0 0 0 .49 3.019 8.927 8.927 0 0 0 1.418 2.614 7.729 7.729 0 0 0 2.098 1.86 6.81 6.81 0 0 0 2.6.909 6.108 6.108 0 0 0 2.86-.298 8.304 8.304 0 0 0 5.194-5.182l.309-.851-.437-.794-.328-.596-.996-1.812.386-.135-.823-1.959a7.183 7.183 0 0 0-1.275-2.037 5.81 5.81 0 0 0-1.947-1.43 6 6 0 0 0-2.287-.529 5.812 5.812 0 0 0-.21-.003Zm-.954 8.586 5.191-1.82-.613 1.181a5.33 5.33 0 0 1-.88 1.308 2.067 2.067 0 0 1-.805.487 2.664 2.664 0 0 1-.873.163q-.08 0-.157-.006a2.037 2.037 0 0 1-.85-.245 2.439 2.439 0 0 1-.734-.654 3.508 3.508 0 0 1-.279-.414Z" class="b"/><path d="M228.864 307.164s1.792-1.398 1.798-1.404a3.917 3.917 0 0 0-.184-.396l-2.495-4.763a1.203 1.203 0 0 0-.06-.102 3.173 3.173 0 0 0-.492.107l-1.645.445-.673-1.829.413-.45a6.595 6.595 0 0 0 1.035-1.427 3.352 3.352 0 0 0 .245-1.606l-.026-.632 1.83-.96.492.79q.218.352.446.74a3.466 3.466 0 0 1 1.516-2.087 2.638 2.638 0 0 1 1.23-.326 2.18 2.18 0 0 1 .683.109 2.339 2.339 0 0 1 1.35 1.153 2.016 2.016 0 0 1 .157 1.672 2.086 2.086 0 0 1-1.015 1.14 3.417 3.417 0 0 1-1.348.362 1.978 1.978 0 0 0-.423.07 2.135 2.135 0 0 0-.137.652 4.901 4.901 0 0 0 .02.786 1.23 1.23 0 0 0 .075.358l2.157 4.111a2.522 2.522 0 0 0 .129.222c.073-.02.198-.053.376-.116l2.869-1.018 1.117 2.114-.991.43c-.451.196-.949.426-1.488.689-.545.264-1.129.56-1.746.884l-.325.17q-.85.444-1.567.853-.712.403-1.312.78l-.918.576Z" class="a"/><path d="M232.294 294.264a1.177 1.177 0 0 1 .37.059 1.323 1.323 0 0 1 .777.668 1.04 1.04 0 0 1 .104.862 1.081 1.081 0 0 1-.54.598 2.444 2.444 0 0 1-.959.251 2.34 2.34 0 0 0-.886.21.954.954 0 0 0-.421.554 3.157 3.157 0 0 0-.176.9 5.781 5.781 0 0 0 .023.95 2.097 2.097 0 0 0 .183.71l2.158 4.116q.34.647.66.746a.706.706 0 0 0 .21.028 2.723 2.723 0 0 0 .858-.192l2.051-.728.21.396q-.697.302-1.528.706c-.554.27-1.147.57-1.774.898l-.323.17q-.867.453-1.598.87-.731.413-1.35.802l-.207-.397 1.122-.874a1.055 1.055 0 0 0 .438-.703 2.28 2.28 0 0 0-.332-.965l-2.496-4.762a1.162 1.162 0 0 0-.588-.607.83.83 0 0 0-.269-.038 3.282 3.282 0 0 0-.855.153l-.747.202-.147-.397a7.545 7.545 0 0 0 1.19-1.652 4.285 4.285 0 0 0 .353-2.098l.447-.235q.4.643.836 1.412.434.77.902 1.66a7.375 7.375 0 0 1 .466-2.425 2.71 2.71 0 0 1 1.072-1.636 1.655 1.655 0 0 1 .766-.212m0-2a3.634 3.634 0 0 0-1.696.441 3.428 3.428 0 0 0-1.117.95l-.511-.824-1.646.863-.447.234-1.12.587.05 1.263a2.378 2.378 0 0 1-.14 1.118 5.607 5.607 0 0 1-.877 1.2l-.827.899.422 1.146.147.398.633 1.716 1.766-.477.472-.128 2.004 3.824-.5.389-1.314 1.024.77 1.478.206.397 1.002 1.923 1.836-1.153c.396-.25.824-.503 1.27-.755.473-.27.986-.549 1.542-.84l.322-.168q.916-.481 1.722-.873c.52-.253 1.007-.478 1.448-.67l1.982-.859-1.01-1.91-.208-.395-.808-1.528-1.63.577-1.616.574-1.834-3.497a1.593 1.593 0 0 1-.014-.099 3.682 3.682 0 0 1-.02-.431 4.269 4.269 0 0 0 1.383-.436 3.069 3.069 0 0 0 1.488-1.682 2.985 2.985 0 0 0-.211-2.477 3.315 3.315 0 0 0-1.915-1.637 3.195 3.195 0 0 0-1.004-.162Z" class="b"/><path d="M263.414 285.62q-.21-.71-.327-1.322a10.975 10.975 0 0 1-.17-1.423 21.925 21.925 0 0 1-.024-1.807q.023-1.004.077-2.554l.009-.828a19.16 19.16 0 0 0-.305-4.499 5.483 5.483 0 0 0-1.241-2.654 2.596 2.596 0 0 0-1.82-.966h-.003a2.33 2.33 0 0 0-1.685.668 2.864 2.864 0 0 0-.902 1.84 4.125 4.125 0 0 0 .591 2.48l.446.81-2.18 1.428-.54-.875a7.814 7.814 0 0 1-1.3-4.541 5.818 5.818 0 0 1 1.953-4.028 5.894 5.894 0 0 1 1.962-1.23 6.1 6.1 0 0 1 2.157-.399 5.758 5.758 0 0 1 2.16.42 5.193 5.193 0 0 1 1.87 1.288 5.95 5.95 0 0 1 1.096 1.62 7.437 7.437 0 0 1 .544 1.857 13.567 13.567 0 0 1 .164 2.187q0 1.153-.068 2.621l-.1 1.751a28.26 28.26 0 0 0-.019 3.063l3.244-3.031a3.192 3.192 0 0 0 .47-.522.358.358 0 0 0 .074-.176 1.026 1.026 0 0 0-.057-.382 8.958 8.958 0 0 0-.343-.916l-.274-.646 1.766-1.642 3.354 4.554-.704.606c-1 .86-2.407 2.135-4.18 3.792-1.755 1.64-3.109 2.944-4.022 3.875l-1.192 1.213Z" class="a"/><path d="M260.111 266.72h.008a4.744 4.744 0 0 1 1.78.347 4.182 4.182 0 0 1 1.51 1.043 4.926 4.926 0 0 1 .916 1.348 6.417 6.417 0 0 1 .471 1.61 12.611 12.611 0 0 1 .15 2.025q0 1.13-.067 2.573l-.1 1.742a39.448 39.448 0 0 0 .098 5.311l4.809-4.493a4.192 4.192 0 0 0 .617-.693 1.36 1.36 0 0 0 .24-.644 2.013 2.013 0 0 0-.094-.757 10.018 10.018 0 0 0-.381-1.023l.43-.4 2.14 2.904q-1.53 1.315-4.211 3.82-2.68 2.503-4.054 3.904-.195-.66-.304-1.228a10.064 10.064 0 0 1-.155-1.294c-.03-.482-.037-1.058-.021-1.724s.04-1.515.076-2.543l.01-.85a19.97 19.97 0 0 0-.327-4.717 6.421 6.421 0 0 0-1.489-3.131 3.566 3.566 0 0 0-2.522-1.283l-.098-.002a3.276 3.276 0 0 0-2.3.94 3.852 3.852 0 0 0-1.214 2.455 5.121 5.121 0 0 0 .708 3.075l-.545.358a6.815 6.815 0 0 1-1.155-3.962 4.836 4.836 0 0 1 1.639-3.352 4.89 4.89 0 0 1 1.63-1.024 5.094 5.094 0 0 1 1.805-.335m0-2a7.11 7.11 0 0 0-2.51.463 6.897 6.897 0 0 0-2.29 1.435 6.792 6.792 0 0 0-2.27 4.704 8.791 8.791 0 0 0 1.448 5.12l1.078 1.75 1.72-1.126.546-.357 1.548-1.014-.89-1.622a3.168 3.168 0 0 1-.475-1.885 1.85 1.85 0 0 1 .593-1.223 1.283 1.283 0 0 1 .934-.4c.173.004.565.015 1.159.65a4.519 4.519 0 0 1 .994 2.179 18.11 18.11 0 0 1 .284 4.237l-.011.894c-.034.992-.06 1.847-.076 2.52-.017.724-.008 1.362.025 1.895a12.083 12.083 0 0 0 .187 1.548c.085.439.202.915.35 1.415l.962 3.262 2.383-2.426c.904-.92 2.247-2.214 3.992-3.845 1.763-1.647 3.158-2.913 4.15-3.765l1.407-1.209-1.1-1.494-2.14-2.904-1.33-1.805-1.643 1.526-.43.4-1.027.955.547 1.29c.12.282.21.517.271.702a3.886 3.886 0 0 1-.175.173l-1.584 1.48q.012-.37.036-.683l.102-1.78q.07-1.514.07-2.687a14.667 14.667 0 0 0-.177-2.351 8.44 8.44 0 0 0-.622-2.11 6.935 6.935 0 0 0-1.28-1.892 6.17 6.17 0 0 0-2.219-1.528 6.761 6.761 0 0 0-2.529-.492Z" class="b"/><path d="M282.613 264.872q-.392 0-.802-.037a11.801 11.801 0 0 1-3.331-.838 14.099 14.099 0 0 1-3.315-1.918 14.6 14.6 0 0 1-2.771-2.76 11.683 11.683 0 0 1-1.69-3.024 7.473 7.473 0 0 1-.482-3.02 4.862 4.862 0 0 1 .98-2.707 4.799 4.799 0 0 1 2.384-1.64 7.342 7.342 0 0 1 2.248-.337q.391 0 .8.036a11.75 11.75 0 0 1 3.345.848 14.965 14.965 0 0 1 6.033 4.62 11.955 11.955 0 0 1 1.695 2.983 7.623 7.623 0 0 1 .528 3.032 4.772 4.772 0 0 1-.976 2.763 4.843 4.843 0 0 1-2.4 1.662 7.333 7.333 0 0 1-2.246.337Zm-7.828-13.497a1.788 1.788 0 0 0-1.485.804 1.891 1.891 0 0 0-.045 2.408 18.32 18.32 0 0 0 4.353 4.268c3.32 2.552 5.169 3.088 6.135 3.088a1.614 1.614 0 0 0 1.4-.658 1.887 1.887 0 0 0 .049-2.422 25.592 25.592 0 0 0-9.556-7.345 2.922 2.922 0 0 0-.85-.143Z" class="a"/><path d="M275.834 249.591q.348 0 .712.032a10.705 10.705 0 0 1 3.057.779 13.967 13.967 0 0 1 5.613 4.297 10.891 10.891 0 0 1 1.556 2.733 6.594 6.594 0 0 1 .464 2.634 3.776 3.776 0 0 1-.77 2.197 3.842 3.842 0 0 1-1.915 1.32 6.293 6.293 0 0 1-1.937.289q-.35 0-.715-.033a10.759 10.759 0 0 1-3.046-.77 13.015 13.015 0 0 1-3.078-1.784 13.551 13.551 0 0 1-2.583-2.568 10.647 10.647 0 0 1-1.548-2.763 6.457 6.457 0 0 1-.424-2.619 3.854 3.854 0 0 1 .776-2.159 3.79 3.79 0 0 1 1.898-1.296 6.302 6.302 0 0 1 1.94-.289m7.91 13.352a2.618 2.618 0 0 0 2.193-1.05 2.88 2.88 0 0 0 .104-3.558 26.355 26.355 0 0 0-10.111-7.773 3.91 3.91 0 0 0-1.145-.187 2.775 2.775 0 0 0-2.278 1.194 2.888 2.888 0 0 0-.105 3.539 19.084 19.084 0 0 0 4.596 4.54q4.286 3.294 6.745 3.294m-7.909-15.351a8.322 8.322 0 0 0-2.553.385 5.773 5.773 0 0 0-2.87 1.98 5.839 5.839 0 0 0-1.187 3.255 8.471 8.471 0 0 0 .541 3.43 12.683 12.683 0 0 0 1.83 3.28 15.613 15.613 0 0 0 2.96 2.95 15.073 15.073 0 0 0 3.551 2.053 12.804 12.804 0 0 0 3.614.907c.303.027.603.04.894.04a8.32 8.32 0 0 0 2.55-.384 5.83 5.83 0 0 0 2.887-2.004 5.756 5.756 0 0 0 1.183-3.332 8.604 8.604 0 0 0-.592-3.427 12.932 12.932 0 0 0-1.835-3.237 15.963 15.963 0 0 0-6.454-4.94 12.74 12.74 0 0 0-3.628-.916c-.302-.026-.601-.04-.89-.04Zm7.91 13.351c-.665 0-2.266-.374-5.527-2.88a16.81 16.81 0 0 1-4.108-3.996c-.41-.674-.273-.944-.015-1.28.291-.379.501-.41.69-.41a1.952 1.952 0 0 1 .56.098 24.875 24.875 0 0 1 8.999 6.918c.413.665.272.94.008 1.283a.639.639 0 0 1-.608.267Z" class="b"/><path d="M296.269 246.64a14.224 14.224 0 0 1-.732-1.147 11.194 11.194 0 0 1-.616-1.291 21.329 21.329 0 0 1-.6-1.71 258.62 258.62 0 0 1-.744-2.444l-.256-.788a19.092 19.092 0 0 0-1.726-4.165 5.466 5.466 0 0 0-2.024-2.117 3.109 3.109 0 0 0-1.45-.424 1.957 1.957 0 0 0-.583.087 2.294 2.294 0 0 0-1.386 1.175 2.844 2.844 0 0 0-.268 2.03 4.127 4.127 0 0 0 1.354 2.161l.682.627-1.613 2.05-.79-.657a7.813 7.813 0 0 1-2.683-3.888 5.818 5.818 0 0 1 .564-4.44 5.93 5.93 0 0 1 1.464-1.791 6.103 6.103 0 0 1 1.928-1.073 5.738 5.738 0 0 1 1.828-.3c.116 0 .23.005.346.011a5.197 5.197 0 0 1 2.178.62 6.029 6.029 0 0 1 1.557 1.185 7.504 7.504 0 0 1 1.113 1.589 13.733 13.733 0 0 1 .852 2.02q.37 1.09.774 2.504l.465 1.692a28.05 28.05 0 0 0 .96 2.909l2.104-3.91a3.064 3.064 0 0 0 .28-.64.392.392 0 0 0 .014-.197 1.02 1.02 0 0 0-.174-.338 8.47 8.47 0 0 0-.619-.76l-.467-.524 1.146-2.123 4.636 3.243-.472.798c-.679 1.145-1.604 2.804-2.75 4.93-1.139 2.119-2.006 3.787-2.574 4.958l-.743 1.526Z" class="a"/><path d="M288.619 229.536q.142 0 .286.008a4.194 4.194 0 0 1 1.764.503 5.008 5.008 0 0 1 1.299.986 6.444 6.444 0 0 1 .96 1.375 12.633 12.633 0 0 1 .789 1.873q.363 1.07.76 2.459l.462 1.68a38.986 38.986 0 0 0 1.79 5.003l3.119-5.794a4.105 4.105 0 0 0 .364-.854 1.363 1.363 0 0 0 .022-.688 1.986 1.986 0 0 0-.331-.686 9.465 9.465 0 0 0-.689-.848l.28-.518 2.956 2.069q-1.028 1.736-2.768 4.965-1.739 3.231-2.595 4.995c-.263-.374-.49-.73-.68-1.066a10.276 10.276 0 0 1-.56-1.175q-.274-.673-.571-1.627-.296-.955-.74-2.435l-.264-.81a19.896 19.896 0 0 0-1.816-4.364 6.412 6.412 0 0 0-2.412-2.49 4.065 4.065 0 0 0-1.922-.543 2.962 2.962 0 0 0-.879.132 3.275 3.275 0 0 0-1.972 1.657 3.837 3.837 0 0 0-.365 2.713 5.13 5.13 0 0 0 1.655 2.687l-.405.514a6.81 6.81 0 0 1-2.358-3.385 4.827 4.827 0 0 1 .48-3.7 4.911 4.911 0 0 1 1.217-1.491 5.085 5.085 0 0 1 1.613-.898 4.714 4.714 0 0 1 1.51-.247m0-2a6.73 6.73 0 0 0-2.148.352 7.099 7.099 0 0 0-2.24 1.244 6.927 6.927 0 0 0-1.713 2.093 6.786 6.786 0 0 0-.646 5.184 8.785 8.785 0 0 0 3.007 4.386l1.58 1.313 1.27-1.614.404-.514 1.147-1.456-1.366-1.254a3.175 3.175 0 0 1-1.052-1.637 1.833 1.833 0 0 1 .17-1.34 1.29 1.29 0 0 1 .802-.696.964.964 0 0 1 .288-.043 2.146 2.146 0 0 1 .975.304 4.51 4.51 0 0 1 1.638 1.746 18.022 18.022 0 0 1 1.622 3.921l.277.855c.283.947.533 1.766.732 2.407.211.681.423 1.283.63 1.79a12.197 12.197 0 0 0 .672 1.41c.223.39.486.803.783 1.226l1.952 2.779 1.484-3.054c.563-1.158 1.423-2.814 2.557-4.922 1.138-2.112 2.056-3.76 2.728-4.893l.945-1.595-1.52-1.063-2.956-2.068-1.84-1.287-1.067 1.976-.279.517-.666 1.235.934 1.047c.202.226.362.419.478.573-.028.06-.064.132-.11.219l-1.029 1.91q-.106-.354-.184-.659l-.472-1.718a56.594 56.594 0 0 0-.794-2.572 14.68 14.68 0 0 0-.917-2.169 8.46 8.46 0 0 0-1.26-1.796 7.035 7.035 0 0 0-1.816-1.386 6.203 6.203 0 0 0-2.599-.74 6.885 6.885 0 0 0-.4-.011Z" class="b"/><path d="M307.482 223.262a1.728 1.728 0 0 1-.569-.096 1.694 1.694 0 0 1-.839-.634 1.751 1.751 0 0 1-.32-1.05 2.117 2.117 0 0 1 .353-1.106 2.836 2.836 0 0 1 1.023-.926 3.614 3.614 0 0 0 1.535-1.593 2.55 2.55 0 0 0 .117-1.266 3.355 3.355 0 0 0-.488-1.279 4.785 4.785 0 0 0-1.026-1.151 4.53 4.53 0 0 0-1.396-.769 4.452 4.452 0 0 0-1.34-.259l-.126-.002a3.294 3.294 0 0 0-.987.139 1.989 1.989 0 0 0-.755.433 1.605 1.605 0 0 0-.426.667 2.28 2.28 0 0 0 .184 1.607l.476 1.13-2.608.516-.315-.751a18.598 18.598 0 0 1-.582-1.579c-.921-2.944-1.761-3.437-1.996-3.518a1.87 1.87 0 0 0-.608-.114 1.216 1.216 0 0 0-.594.153 1.78 1.78 0 0 0-.811 1.05 2.654 2.654 0 0 0-.024 1.63 3.502 3.502 0 0 0 1.073 1.643l.811.744-1.914 1.723-.669-.599a8.249 8.249 0 0 1-2.346-3.187 5.264 5.264 0 0 1 .018-3.625 5.38 5.38 0 0 1 2.12-2.76 4.007 4.007 0 0 1 1.511-.602 3.547 3.547 0 0 1 .608-.055 3.014 3.014 0 0 1 .989.163 4.408 4.408 0 0 1 2.222 1.745 8.039 8.039 0 0 1 .61 1.071 4.767 4.767 0 0 1 1.712-1.257 5.329 5.329 0 0 1 2.107-.423 6.74 6.74 0 0 1 2.217.38 7.203 7.203 0 0 1 4.289 3.885 7.863 7.863 0 0 1 .672 2.871 8.264 8.264 0 0 1-.461 3.106 8.168 8.168 0 0 1-1.616 2.993 2.557 2.557 0 0 1-1.831.952Z" class="a"/><path d="M296.572 208.776a2.025 2.025 0 0 1 .664.108 3.418 3.418 0 0 1 1.722 1.364 11.128 11.128 0 0 1 1.281 2.899 4.457 4.457 0 0 1 .885-1.71 3.772 3.772 0 0 1 1.375-1.02 4.326 4.326 0 0 1 1.716-.343h.025a5.675 5.675 0 0 1 1.863.326 6.2 6.2 0 0 1 3.702 3.348 6.853 6.853 0 0 1 .586 2.512 7.237 7.237 0 0 1-.407 2.731 7.324 7.324 0 0 1-1.395 2.63 1.672 1.672 0 0 1-1.107.641.727.727 0 0 1-.24-.04.7.7 0 0 1-.352-.269.752.752 0 0 1-.137-.46 1.13 1.13 0 0 1 .2-.584 1.902 1.902 0 0 1 .679-.595 4.685 4.685 0 0 0 1.979-2.132 3.548 3.548 0 0 0 .159-1.751 4.375 4.375 0 0 0-.63-1.653 5.758 5.758 0 0 0-1.238-1.391 5.508 5.508 0 0 0-1.706-.942 5.425 5.425 0 0 0-1.638-.312l-.151-.002a4.253 4.253 0 0 0-1.29.186 2.986 2.986 0 0 0-1.128.647 2.611 2.611 0 0 0-.696 1.08 3.21 3.21 0 0 0 .207 2.32l-.603.12a16.497 16.497 0 0 1-.285-.72q-.139-.375-.266-.775-1.143-3.65-2.624-4.16a2.847 2.847 0 0 0-.933-.168 2.205 2.205 0 0 0-1.075.276 2.76 2.76 0 0 0-1.276 1.602 3.657 3.657 0 0 0-.041 2.223 4.506 4.506 0 0 0 1.36 2.112l-.429.386a7.246 7.246 0 0 1-2.075-2.788 4.628 4.628 0 0 1 .751-4.287 4.39 4.39 0 0 1 .996-.915 2.996 2.996 0 0 1 1.135-.454 2.518 2.518 0 0 1 .437-.04m0-2a4.535 4.535 0 0 0-.784.07 4.994 4.994 0 0 0-1.881.75 6.392 6.392 0 0 0-1.454 1.326 6.318 6.318 0 0 0-1.066 1.947 6.24 6.24 0 0 0-.01 4.296 9.222 9.222 0 0 0 2.618 3.586l1.337 1.196 1.334-1.2.429-.386 1.637-1.473-1.624-1.488a2.537 2.537 0 0 1-.785-1.176 1.668 1.668 0 0 1 .005-1.032c.131-.382.285-.467.35-.503a.201.201 0 0 1 .111-.028.862.862 0 0 1 .247.048c.091.07.686.593 1.401 2.878a19.542 19.542 0 0 0 .616 1.671l.631 1.504 1.6-.316.603-.12 2.409-.475-.953-2.262a1.46 1.46 0 0 1-.16-.893.613.613 0 0 1 .168-.267.978.978 0 0 1 .372-.206 2.286 2.286 0 0 1 .683-.092l.096.001a3.461 3.461 0 0 1 1.04.203 3.503 3.503 0 0 1 1.098.604 3.726 3.726 0 0 1 .806.903 2.382 2.382 0 0 1 .35.908 1.544 1.544 0 0 1-.076.779c-.006.019-.153.417-1.153 1.091a3.762 3.762 0 0 0-1.312 1.233 3.084 3.084 0 0 0-.502 1.618 2.75 2.75 0 0 0 .515 1.653 2.715 2.715 0 0 0 2.214 1.139 3.54 3.54 0 0 0 2.554-1.262 9.112 9.112 0 0 0 1.838-3.357 9.26 9.26 0 0 0 .514-3.483 8.87 8.87 0 0 0-.76-3.236 8.2 8.2 0 0 0-4.876-4.417 7.69 7.69 0 0 0-2.512-.433 6.375 6.375 0 0 0-2.532.505 5.602 5.602 0 0 0-1.06.598l-.04-.06a5.39 5.39 0 0 0-2.72-2.125 4.032 4.032 0 0 0-1.316-.217Z" class="b"/></svg>