<svg xmlns="http://www.w3.org/2000/svg" viewBox="0 0 314.849 321.384"><defs><style>.a,.d{fill:#FFF}.a{stroke:transparent;stroke-width:2.5px;stroke-miterlimit:10}.c{fill:#FFF;fill-rule:evenodd}</style></defs><path d="M167.855 145.553 152.08 184.83l-28.812-77.329a21.882 21.882 0 0 1-.9-3.503 20.285 20.285 0 0 1-.36-3.603q0-3.422 6.113-3.422h8.27V90.58H87.85v6.393c6.95 0 12.163 2.843 15.641 10.522l41.44 104.973h5.841l25.202-62.471c-1.868-2.344-4.618-3.685-8.119-4.445ZM165.872 90.581v6.393c10.906 0 17.094 2.091 17.094 7.973a10.138 10.138 0 0 1-.487 3.708c-.156.62-.921 2.783-1.16 3.377l-7 17.43h9.94l9.66-23.946c2.657-6.122 5.33-8.542 9.527-8.542h5.573V90.58Z" class="a"/><path d="M226.283 199.795c0-11.045-6.113-15.567-18.338-15.567v-6.393h51.236v6.393c-10.066 0-15.101 4.284-15.101 14.846v56.177a73.72 73.72 0 0 1-1.887 17.107 41.421 41.421 0 0 1-5.933 13.862 29.23 29.23 0 0 1-10.336 9.363 31.612 31.612 0 0 1-15.282 3.421 28.082 28.082 0 0 1-9.257-1.528 25.287 25.287 0 0 1-7.82-4.315 21.66 21.66 0 0 1-5.485-6.65 17.804 17.804 0 0 1-2.067-8.54 14.478 14.478 0 0 1 2.696-8.63 8.75 8.75 0 0 1 7.55-3.775q8.092 0 8.09 7.55 0 7.55-4.673 7.551a11.635 11.635 0 0 1-2.289-.202c-1.153-.233-1.364-.313-.833.737a13.144 13.144 0 0 0 3.9 5.066c2.936 2.039 5.991 3.747 10.188 3.747a10.635 10.635 0 0 0 8.54-3.69 24.713 24.713 0 0 0 4.763-9.183 52.703 52.703 0 0 0 1.979-11.978q.357-6.48.359-11.884Z" style="stroke-linecap:round;stroke-linejoin:round;stroke:transparent;stroke-width:2.5px;fill:#FFF" transform="translate(-43.804 -43.376)"/><path d="M6.757 159.082c.89-.927 1.513-1.73 2.883-1.886a3.5 3.5 0 0 1 3.641 4.933 11.53 11.53 0 0 1-1.956 2.48c-.914.945-1.926 1.873-2.634 2.576l-1.933 1.917-1.597-1.537c-1.922-1.85-5.055-4.18-5.159-7.066a3.162 3.162 0 0 1 3.358-3.293c1.64.022 2.33.838 3.397 1.876ZM307.89 159.693c.898-.937 1.527-1.747 2.911-1.905a3.533 3.533 0 0 1 3.677 4.981 11.643 11.643 0 0 1-1.975 2.503c-.923.956-1.945 1.892-2.66 2.602l-1.952 1.936-1.613-1.552c-1.94-1.869-5.104-4.22-5.208-7.134a3.192 3.192 0 0 1 3.39-3.326c1.656.023 2.352.846 3.43 1.895Z" class="c"/><path d="m7.326 99.432-.272 1.507a1.415 1.415 0 0 0 .483 1.394l13.462 11.66-.199.553-17.487.996a3.576 3.576 0 0 0-1.106.184 1.196 1.196 0 0 0-.538.506l-.845 1.364-.422-.152q.4-.868 1.382-3.609.971-2.716 1.364-4.062l.421.15-.498 1.725q-.1.53-.143.857a.6.6 0 0 0 .118.503.92.92 0 0 0 .588.224 9.355 9.355 0 0 0 1.27.025l13.265-.664-10.195-8.41a8.032 8.032 0 0 0-.806-.57.758.758 0 0 0-.564-.127.943.943 0 0 0-.493.418 11.454 11.454 0 0 0-.607 1.032l-.51 1.007-.421-.151q.334-.684 1.268-3.293.925-2.583 1.063-3.218ZM26.127 85.08l-3.781 6.834a7.592 7.592 0 0 0 .94.617 6.235 6.235 0 0 0 1.9.699 4.44 4.44 0 0 0 1.787-.019 3.99 3.99 0 0 0 1.56-.738 4.477 4.477 0 0 0 1.206-1.428 4.077 4.077 0 0 0 .524-1.759 7.315 7.315 0 0 0-.273-2.166l.642.228a6.257 6.257 0 0 1-.321 5.613 4.122 4.122 0 0 1-1.307 1.438 4.82 4.82 0 0 1-1.805.745 5.702 5.702 0 0 1-2.08 0 6.894 6.894 0 0 1-2.173-.786 6.326 6.326 0 0 1-1.812-1.466 5.778 5.778 0 0 1-1.081-1.893 5.244 5.244 0 0 1-.263-2.099 5.122 5.122 0 0 1 .651-2.102 4.499 4.499 0 0 1 1.057-1.303 4.011 4.011 0 0 1 1.379-.758 3.822 3.822 0 0 1 1.585-.147 5.167 5.167 0 0 1 1.665.49ZM21.9 91.507l2.06-3.724a5.123 5.123 0 0 0 .533-1.225q.1-.441-.67-.61a3.386 3.386 0 0 0-1.524.035 2.13 2.13 0 0 0-1.307 1.15 3.226 3.226 0 0 0-.391 2.327 3.777 3.777 0 0 0 1.3 2.047ZM38.927 78.518l-.358-.27.645-1.269a1.068 1.068 0 0 0 .097-.823 2.302 2.302 0 0 0-.71-.73l-4.286-3.247a1.149 1.149 0 0 0-.79-.301 2.116 2.116 0 0 0-.97.583l-.59.5-.301-.297a7.488 7.488 0 0 0 .374-2 4.281 4.281 0 0 0-.572-2.049l.304-.402q.637.412 1.356.922.72.51 1.524 1.119a7.383 7.383 0 0 1-.61-2.395 2.708 2.708 0 0 1 .272-1.935 1.43 1.43 0 0 1 .963-.623 1.325 1.325 0 0 1 .988.273 1.04 1.04 0 0 1 .46.736 1.084 1.084 0 0 1-.232.772 2.454 2.454 0 0 1-.762.635 2.309 2.309 0 0 0-.711.567.951.951 0 0 0-.146.679 3.145 3.145 0 0 0 .222.89 5.494 5.494 0 0 0 .427.85 2.064 2.064 0 0 0 .468.566l3.704 2.806a1.4 1.4 0 0 0 .914.395 1.92 1.92 0 0 0 .896-.605l1.547-1.532.358.27q-.502.57-1.082 1.29-.58.719-1.223 1.567l-.22.29q-.591.78-1.076 1.468c-.323.457-.617.891-.88 1.3ZM53.64 50.94l-5.548 5.5a7.596 7.596 0 0 0 .729.855 6.164 6.164 0 0 0 1.628 1.205 4.459 4.459 0 0 0 1.72.483 4.017 4.017 0 0 0 1.704-.27 4.517 4.517 0 0 0 1.56-1.032 4.066 4.066 0 0 0 .996-1.54 7.336 7.336 0 0 0 .346-2.158l.552.4a6.256 6.256 0 0 1-1.884 5.297 4.117 4.117 0 0 1-1.658 1.013 4.787 4.787 0 0 1-1.941.208 5.696 5.696 0 0 1-1.997-.583 6.902 6.902 0 0 1-1.865-1.363 6.394 6.394 0 0 1-1.328-1.917 5.785 5.785 0 0 1-.505-2.121 5.23 5.23 0 0 1 .335-2.087 5.136 5.136 0 0 1 1.216-1.836 4.527 4.527 0 0 1 1.38-.954 4.017 4.017 0 0 1 1.537-.34 3.812 3.812 0 0 1 1.562.304 5.237 5.237 0 0 1 1.461.936Zm-5.862 4.984 3.022-2.995a5.186 5.186 0 0 0 .856-1.026q.22-.395-.472-.775a3.373 3.373 0 0 0-1.473-.393 2.125 2.125 0 0 0-1.578.737 3.223 3.223 0 0 0-1.028 2.123 3.774 3.774 0 0 0 .673 2.329ZM78.653 40.269a50.61 50.61 0 0 0-4.73 3.396l-.262-.364 1.12-1.08q.451-.428-.136-1.247l-2.76-3.844a5.138 5.138 0 0 0-1.9-1.736 2.162 2.162 0 0 0-2.239.433 4.99 4.99 0 0 0-1.847 3.43l3.966 5.527c.175.243.477.278.906.109l1.57-.645.262.362q-.335.208-.783.495-.45.288-.972.663l-.751.538q-1.615 1.161-2.407 1.832l-.262-.364 1.042-1.092q.407-.394-.035-1.01l-3.232-4.503a1.549 1.549 0 0 0-.97-.753 2.553 2.553 0 0 0-1.273.363l-.294-.409a4.364 4.364 0 0 0 .828-3.696l.363-.26 1.47 2.046a8.81 8.81 0 0 1 1.054-2.566 5.924 5.924 0 0 1 1.524-1.765q2.615-1.88 4.852 1.238l3.25 4.527a1.844 1.844 0 0 0 .587.578.738.738 0 0 0 .667-.032l1.131-.535ZM92.92 32.496a4.716 4.716 0 0 1-1.987.526 4.055 4.055 0 0 1-1.783-.356 4.647 4.647 0 0 1-1.495-1.105 7.212 7.212 0 0 1-1.153-1.711 6.398 6.398 0 0 1-.704-2.573A5.72 5.72 0 0 1 86.145 25a5.6 5.6 0 0 1 1.152-1.845 5.864 5.864 0 0 1 1.712-1.277 4.262 4.262 0 0 1 .929-.333 6.477 6.477 0 0 1 .864-.145 4.97 4.97 0 0 1 .852-.044l1.036-1.383.263-.036q.965 1.96 1.94 3.913.977 1.954 1.94 3.915.494 1.003 1.324.533a.912.912 0 0 0 .308-.228 3.15 3.15 0 0 0 .197-.27 3.055 3.055 0 0 0 .127-.31l.313.001a3.493 3.493 0 0 1-.057 1.027 2.654 2.654 0 0 1-.312.824 1.652 1.652 0 0 1-.737.658 1.429 1.429 0 0 1-1.415.04 2.95 2.95 0 0 1-1.081-1.308l-.359-.73a5.957 5.957 0 0 1 .036 1.247 4.229 4.229 0 0 1-.283 1.231 3.555 3.555 0 0 1-.715 1.117 4.25 4.25 0 0 1-1.258.9Zm.875-7.294a5.898 5.898 0 0 0-2.03-2.512 2.722 2.722 0 0 0-2.75.088 3.68 3.68 0 0 0-1.045.794 3.553 3.553 0 0 0-.753 1.26 4.233 4.233 0 0 0-.205 1.677 5.343 5.343 0 0 0 .588 2.02 6.328 6.328 0 0 0 1.023 1.51 5.136 5.136 0 0 0 1.308 1.041 3.385 3.385 0 0 0 1.487.424 3.162 3.162 0 0 0 1.562-.348 2.612 2.612 0 0 0 1.025-.893 3.317 3.317 0 0 0 .523-1.35 5.23 5.23 0 0 0-.014-1.646 6.262 6.262 0 0 0-.583-1.79ZM138.82 13.247q1.846-2.944 1.631-4.355-.122-.805-1.335-.958l-.05-.332 5.26-1.17.058.386a5.545 5.545 0 0 0-1.106.737 6.755 6.755 0 0 0-1.013 1.159q-.538.748-1.238 1.917-.699 1.169-1.748 3.027 2.679 2.707 4.395 2.446a3.074 3.074 0 0 0 1.784-1.12.346.346 0 0 1 .193-.13.17.17 0 0 1 .192.056.54.54 0 0 1 .053.347 3.375 3.375 0 0 1-.172.733 2.038 2.038 0 0 1-.827 1.075 3.873 3.873 0 0 1-1.715.644 3.588 3.588 0 0 1-2.154-.38 16.779 16.779 0 0 1-2.81-1.895 10.465 10.465 0 0 1-2.592 2.688 7.622 7.622 0 0 1-3.263 1.262 5.912 5.912 0 0 1-2.158-.04 4.661 4.661 0 0 1-1.76-.765 4.522 4.522 0 0 1-1.258-1.38 5.15 5.15 0 0 1-.655-1.883q-.544-3.57 4.482-6.092-.75-.65-1.234-1.13a6.653 6.653 0 0 1-.755-.862 3.03 3.03 0 0 1-.394-.732 3.962 3.962 0 0 1-.183-.736 2.667 2.667 0 0 1 .708-2.319 4.244 4.244 0 0 1 2.573-1.24 3.942 3.942 0 0 1 2.77.427 2.79 2.79 0 0 1 1.288 2.04q.366 2.41-2.186 3.875Zm-7.315-3.589a5.42 5.42 0 0 0-2.26 2.087 3.948 3.948 0 0 0-.536 2.616 3.477 3.477 0 0 0 .618 1.55 3.81 3.81 0 0 0 1.182 1.066 4.528 4.528 0 0 0 1.555.542 5.665 5.665 0 0 0 1.77 0 5.484 5.484 0 0 0 3.866-2.515Zm1.526-1.506a2.93 2.93 0 0 0 1.24-3.021 2.896 2.896 0 0 0-.875-1.834 2.054 2.054 0 0 0-1.578-.512 1.79 1.79 0 0 0-1.275.648 1.58 1.58 0 0 0-.383 1.305 3.368 3.368 0 0 0 .177.695 2.22 2.22 0 0 0 .426.657 10.44 10.44 0 0 0 .849.833q.542.485 1.419 1.23ZM184.044 1.383l-1.393.065a.612.612 0 0 0-.537.211 1.826 1.826 0 0 0-.212.735l-1.425 10.543a29.225 29.225 0 0 1-.904 4.37 8.866 8.866 0 0 1-1.745 3.297 9.075 9.075 0 0 1-1.14 1.116 5.243 5.243 0 0 1-1.186.73 4.455 4.455 0 0 1-1.305.346 6.244 6.244 0 0 1-1.52-.036 2.382 2.382 0 0 1-.679-.205 1.754 1.754 0 0 1-.567-.402 1.325 1.325 0 0 1-.306-.563.888.888 0 0 1 .105-.664.828.828 0 0 1 .946-.522 2.281 2.281 0 0 1 1.35.889 1.314 1.314 0 0 0 .58.403 1.548 1.548 0 0 0 .681.078 2.4 2.4 0 0 0 .69-.189 3.107 3.107 0 0 0 .629-.367 4.67 4.67 0 0 0 .75-.746 2.965 2.965 0 0 0 .457-1.069q.18-.709.365-1.97.184-1.262.485-3.482l1.613-11.93a3.44 3.44 0 0 0 .039-.49.522.522 0 0 0-.1-.31.653.653 0 0 0-.325-.2 15.35 15.35 0 0 0-.668-.188l-1.615-.388.061-.445q.683.179 3.43.549 2.773.376 3.507.39ZM205.127 16.55l-7.521-2.105a7.418 7.418 0 0 0-.383 1.056 6.158 6.158 0 0 0-.243 2.01 4.415 4.415 0 0 0 .43 1.734 3.978 3.978 0 0 0 1.075 1.349 4.487 4.487 0 0 0 1.668.845 4.046 4.046 0 0 0 1.832.106 7.315 7.315 0 0 0 2.045-.765l-.073.678a6.26 6.26 0 0 1-5.537.979 4.121 4.121 0 0 1-1.7-.942 4.823 4.823 0 0 1-1.14-1.584 5.74 5.74 0 0 1-.48-2.024 6.916 6.916 0 0 1 .265-2.295 6.39 6.39 0 0 1 1.01-2.103 5.825 5.825 0 0 1 1.593-1.487 5.275 5.275 0 0 1 1.981-.738 5.098 5.098 0 0 1 2.197.15 4.484 4.484 0 0 1 1.511.728 4.032 4.032 0 0 1 1.056 1.167 3.87 3.87 0 0 1 .508 1.508 5.201 5.201 0 0 1-.094 1.734Zm-7.23-2.634 4.1 1.147a5.113 5.113 0 0 0 1.315.238q.45-.005.44-.791a3.394 3.394 0 0 0-.387-1.476 2.134 2.134 0 0 0-1.419-1.009 3.225 3.225 0 0 0-2.355.156 3.78 3.78 0 0 0-1.693 1.735ZM214.452 27.499l.18-.41 1.383.338a1.06 1.06 0 0 0 .823-.095 2.283 2.283 0 0 0 .548-.858l2.18-4.915a1.16 1.16 0 0 0 .11-.84 2.134 2.134 0 0 0-.788-.809l-.624-.459.222-.361a7.526 7.526 0 0 0 2.032-.096 4.272 4.272 0 0 0 1.864-1.026l.46.204q-.254.713-.587 1.531-.332.818-.74 1.74a7.402 7.402 0 0 1 2.191-1.142 2.706 2.706 0 0 1 1.947-.179 1.42 1.42 0 0 1 .827.795 1.322 1.322 0 0 1-.04 1.023 1.042 1.042 0 0 1-.61.619 1.087 1.087 0 0 1-.805-.05 2.476 2.476 0 0 1-.792-.597 2.316 2.316 0 0 0-.716-.563.956.956 0 0 0-.696.013 3.206 3.206 0 0 0-.814.421 5.579 5.579 0 0 0-.729.61 2.046 2.046 0 0 0-.443.586l-1.884 4.25a1.41 1.41 0 0 0-.174.978 1.9 1.9 0 0 0 .793.734l1.847 1.155-.181.41q-.67-.357-1.503-.758-.832-.398-1.806-.83l-.333-.147q-.897-.399-1.675-.712c-.52-.21-1.01-.397-1.467-.56ZM244.632 35.504l-6.62-4.147a7.452 7.452 0 0 0-.667.904 6.247 6.247 0 0 0-.8 1.861 4.43 4.43 0 0 0-.078 1.785 4.022 4.022 0 0 0 .65 1.597 4.51 4.51 0 0 0 1.362 1.282 4.093 4.093 0 0 0 1.726.62 7.332 7.332 0 0 0 2.18-.156l-.262.63a6.26 6.26 0 0 1-5.588-.627 4.096 4.096 0 0 1-1.364-1.383 4.818 4.818 0 0 1-.647-1.843 5.69 5.69 0 0 1 .112-2.076 6.89 6.89 0 0 1 .903-2.128 6.357 6.357 0 0 1 1.563-1.73 5.794 5.794 0 0 1 1.949-.977 5.25 5.25 0 0 1 2.11-.148 5.115 5.115 0 0 1 2.064.764 4.54 4.54 0 0 1 1.245 1.127 4.011 4.011 0 0 1 .68 1.417 3.847 3.847 0 0 1 .061 1.591 5.194 5.194 0 0 1-.579 1.637Zm-6.19-4.571 3.607 2.26a5.189 5.189 0 0 0 1.194.598q.434.123.647-.635a3.412 3.412 0 0 0 .046-1.525 2.13 2.13 0 0 0-1.076-1.367 3.228 3.228 0 0 0-2.304-.517 3.783 3.783 0 0 0-2.113 1.186ZM262.176 58.322l.71.426a2.522 2.522 0 0 0 .94.387.995.995 0 0 0 .765-.42l3.39-3.692a3.688 3.688 0 0 0 1.154-2.209 2.583 2.583 0 0 0-1.015-1.958 4.112 4.112 0 0 0-3.47-.981l-4.28 4.66a2.648 2.648 0 0 0-.515.726.77.77 0 0 0 .18.716l.843 1.192-.303.33q-.977-1.047-2.152-2.128-1.175-1.078-2.385-2.039l.303-.33.73.405a3.707 3.707 0 0 0 1.13.448.925.925 0 0 0 .816-.372l3.37-3.67a3.475 3.475 0 0 0 1.03-2.116 2.252 2.252 0 0 0-.802-1.858 3.535 3.535 0 0 0-.926-.584 5.374 5.374 0 0 0-1.186-.386 4.125 4.125 0 0 0-1.143-.08 1.189 1.189 0 0 0-.818.352l-3.863 4.208a1.672 1.672 0 0 0-.491.802.91.91 0 0 0 .195.636l.845 1.193-.303.33a42.3 42.3 0 0 0-4.229-3.883l.304-.33.711.426a1.506 1.506 0 0 0 .873.27 1.323 1.323 0 0 0 .724-.477l4.09-4.455a2.504 2.504 0 0 0 .347-.46.812.812 0 0 0 .11-.431 1.014 1.014 0 0 0-.168-.478 7.356 7.356 0 0 0-.476-.663l.304-.33a5.088 5.088 0 0 0 3.382.291l.392.36-1.818 1.98a12.153 12.153 0 0 1 2.736.27 4.369 4.369 0 0 1 1.937 1.057 5.794 5.794 0 0 1 .716.771 2.525 2.525 0 0 1 .412.796 2.75 2.75 0 0 1 .1.947 6.473 6.473 0 0 1-.197 1.208 8.023 8.023 0 0 1 2.456.2 5.16 5.16 0 0 1 2.164 1.267 3.128 3.128 0 0 1 1.112 2.37 4.06 4.06 0 0 1-1.253 2.709l-3.825 4.167q-.701.761-.427 1.127l.777 1.017-.304.33q-.977-1.049-2.049-2.034-1.07-.983-1.954-1.68ZM277.207 76.395q-.228-.387-.669-1.003c-.294-.412-.667-.912-1.124-1.502s-.845-1.08-1.168-1.468a14.753 14.753 0 0 0-.803-.902l.355-.274L275 72.3a.943.943 0 0 0 1.328.071l4.455-3.438a1.279 1.279 0 0 0 .57-.867 3.121 3.121 0 0 0-.4-1.388l.31-.24a4.537 4.537 0 0 0 3.376 1.074l.273.355-7.624 5.885a1.168 1.168 0 0 0-.41.476.75.75 0 0 0 .078.56l.606 1.336Zm11.638-12.874a1.247 1.247 0 0 1 .243.909 1.117 1.117 0 0 1-.426.824 1.04 1.04 0 0 1-.88.166 1.362 1.362 0 0 1-.834-.507 1.147 1.147 0 0 1 .208-1.61 1.244 1.244 0 0 1 1.689.218ZM285.98 90.152a4.685 4.685 0 0 1-.642-1.954 4.059 4.059 0 0 1 .249-1.799 4.606 4.606 0 0 1 1.015-1.558 7.228 7.228 0 0 1 1.64-1.253 6.38 6.38 0 0 1 2.525-.856 5.715 5.715 0 0 1 2.293.211 5.603 5.603 0 0 1 1.91 1.041 5.862 5.862 0 0 1 1.379 1.632 4.24 4.24 0 0 1 .386.907 6.624 6.624 0 0 1 .196.855 4.793 4.793 0 0 1 .095.848l1.442.952.052.26q-1.9 1.077-3.791 2.17-1.893 1.09-3.791 2.17-.974.552-.455 1.352a.907.907 0 0 0 .248.295 2.838 2.838 0 0 0 .277.179 3.025 3.025 0 0 0 .32.108l.017.313a3.492 3.492 0 0 1-1.028.004 2.64 2.64 0 0 1-.841-.262 1.655 1.655 0 0 1-.702-.697 1.43 1.43 0 0 1-.125-1.41 2.958 2.958 0 0 1 1.242-1.156l.708-.401a5.981 5.981 0 0 1-1.242.109 4.24 4.24 0 0 1-1.247-.21 3.562 3.562 0 0 1-1.157-.648 4.238 4.238 0 0 1-.972-1.202Zm7.334.44a5.886 5.886 0 0 0 2.385-2.176 2.724 2.724 0 0 0-.25-2.74 3.666 3.666 0 0 0-.855-.995 3.488 3.488 0 0 0-1.303-.677 4.222 4.222 0 0 0-1.685-.106 5.317 5.317 0 0 0-1.98.707 6.328 6.328 0 0 0-1.447 1.112 5.106 5.106 0 0 0-.963 1.366 3.375 3.375 0 0 0-.333 1.51 3.164 3.164 0 0 0 .437 1.538 2.63 2.63 0 0 0 .956.972 3.32 3.32 0 0 0 1.377.44 5.206 5.206 0 0 0 1.643-.111 6.216 6.216 0 0 0 1.75-.688ZM304.91 110.946a2.82 2.82 0 0 0 .687-.712 4.833 4.833 0 0 0 .5-.926 3.485 3.485 0 0 0 .24-.945 1.724 1.724 0 0 0-.075-.781q-.73-1.91-2.483-1.24a1.555 1.555 0 0 0-.949 1.083 7.828 7.828 0 0 0-.225 2.274q-.022 3.394-2.063 4.175a3.188 3.188 0 0 1-1.43.218 3.137 3.137 0 0 1-1.294-.406 3.904 3.904 0 0 1-1.072-.923 4.674 4.674 0 0 1-.757-1.315 6.756 6.756 0 0 1-.5-3.346l2.856-1.391.17.445a5.091 5.091 0 0 0-1.746 2.136 3.446 3.446 0 0 0-.285 1.142 2.463 2.463 0 0 0 .143 1.04 2.334 2.334 0 0 0 1.104 1.317 1.88 1.88 0 0 0 1.579.055q1.519-.579 1.467-3.378a7.895 7.895 0 0 1 .43-2.996 2.691 2.691 0 0 1 1.61-1.471 2.519 2.519 0 0 1 2.39.256 4.474 4.474 0 0 1 1.716 2.253 5.568 5.568 0 0 1 .393 2.906l-2.217 1.026ZM13.26 223.817q-.627-1.918-1.91-5.355-1.283-3.435-2.047-5.242.684.073 1.251.19a10.163 10.163 0 0 1 1.253.354q.687.237 1.6.644.914.404 2.32 1.046l.782.336a19.86 19.86 0 0 0 4.48 1.51 6.422 6.422 0 0 0 3.462-.173 3.57 3.57 0 0 0 2.154-1.835 3.275 3.275 0 0 0 .054-2.576 3.843 3.843 0 0 0-1.801-2.061 5.12 5.12 0 0 0-3.111-.529l-.12-.641a6.82 6.82 0 0 1 4.1.456 4.836 4.836 0 0 1 2.466 2.8 4.909 4.909 0 0 1 .32 1.898 5.108 5.108 0 0 1-.387 1.804 4.76 4.76 0 0 1-1.005 1.51 4.2 4.2 0 0 1-1.541.996 5.015 5.015 0 0 1-1.596.326 6.492 6.492 0 0 1-1.669-.184 12.64 12.64 0 0 1-1.928-.64q-1.043-.434-2.35-1.05l-1.568-.76a39.366 39.366 0 0 0-4.943-1.95l2.302 6.164a4.164 4.164 0 0 0 .402.836 1.374 1.374 0 0 0 .504.47 2.03 2.03 0 0 0 .734.205 9.933 9.933 0 0 0 1.091.04l.206.55ZM20.383 239.229a1.435 1.435 0 1 1 .866.707 1.409 1.409 0 0 1-.866-.707ZM56.785 265.329q2.112-3.106-.096-5.45a4.025 4.025 0 0 0-2.37-1.248 2.746 2.746 0 0 0-1.19.083 2.473 2.473 0 0 0-.998.576 2.284 2.284 0 0 0-.527.727 2.454 2.454 0 0 0-.17 1.044 8.402 8.402 0 0 0 .22 1.602q.21.955.603 2.394.433 1.439.68 2.496a7.896 7.896 0 0 1 .23 1.918 3.732 3.732 0 0 1-.353 1.565 4.937 4.937 0 0 1-1.092 1.414 4.809 4.809 0 0 1-3.883 1.41 6.695 6.695 0 0 1-4.19-2.34 9.625 9.625 0 0 1-2.443-4.51l3.247-2.637.27.284a5.331 5.331 0 0 0-.981 1.694 5.61 5.61 0 0 0-.332 1.832 5.17 5.17 0 0 0 .285 1.752 4.024 4.024 0 0 0 .869 1.452 4.827 4.827 0 0 0 1.19.917 4.236 4.236 0 0 0 1.354.474 3.289 3.289 0 0 0 1.348-.059 2.663 2.663 0 0 0 1.198-.668 3.096 3.096 0 0 0 .711-.94 2.872 2.872 0 0 0 .233-1.161 7.33 7.33 0 0 0-.199-1.64q-.21-.956-.604-2.354a13.895 13.895 0 0 1-.643-4.398 4.032 4.032 0 0 1 1.27-2.775 4.112 4.112 0 0 1 1.613-.962 4.383 4.383 0 0 1 1.837-.154 5.395 5.395 0 0 1 1.893.62 7.067 7.067 0 0 1 1.781 1.4 6.522 6.522 0 0 1 1.888 3.8l-2.399 2.107ZM71.183 285.933l-6.194-4.76a7.46 7.46 0 0 0-.75.837 6.2 6.2 0 0 0-.975 1.775 4.429 4.429 0 0 0-.248 1.768 4.004 4.004 0 0 0 .497 1.654 4.494 4.494 0 0 0 1.232 1.406 4.068 4.068 0 0 0 1.66.781 7.375 7.375 0 0 0 2.183.054l-.32.6a6.257 6.257 0 0 1-5.504-1.156 4.127 4.127 0 0 1-1.225-1.507 4.798 4.798 0 0 1-.468-1.895 5.72 5.72 0 0 1 .31-2.058 6.919 6.919 0 0 1 1.102-2.031 6.387 6.387 0 0 1 1.72-1.574 5.808 5.808 0 0 1 2.034-.785 5.24 5.24 0 0 1 2.114.053 5.11 5.11 0 0 1 1.982.96 4.519 4.519 0 0 1 1.131 1.238 4.027 4.027 0 0 1 .543 1.476 3.842 3.842 0 0 1-.091 1.59 5.191 5.191 0 0 1-.733 1.574Zm-5.725-5.141 3.375 2.592a5.08 5.08 0 0 0 1.131.711c.28.11.516-.08.704-.571a3.371 3.371 0 0 0 .192-1.513 2.126 2.126 0 0 0-.941-1.464 3.233 3.233 0 0 0-2.243-.735 3.791 3.791 0 0 0-2.218.98ZM86.047 292.551a9.435 9.435 0 0 1 2.994.024 6.426 6.426 0 0 1 2.316.867 4.166 4.166 0 0 1 1.958 2.915 6.14 6.14 0 0 1-.819 3.997 6.265 6.265 0 0 1-1.516 1.871 5.855 5.855 0 0 1-2.026 1.102 5.915 5.915 0 0 1-2.32.23 6.168 6.168 0 0 1-2.37-.737 7.944 7.944 0 0 1-2.522-2.283l-2.02 3.747a.724.724 0 0 0-.063.617 1.982 1.982 0 0 0 .673.728l1.346 1.044-.212.394a6.717 6.717 0 0 0-.694-.452q-.4-.233-.88-.524l-1.06-.57q-.863-.466-1.602-.833-.742-.368-1.408-.663l.212-.395 1.141.362a.854.854 0 0 0 .608.025 1.402 1.402 0 0 0 .45-.57l5.859-10.868q.49-.913.185-1.11l-1.102-.847.26-.307a11.601 11.601 0 0 0 2.19.067 2.885 2.885 0 0 0 1.354-.446l.37.2Zm-.399.74-2.91 5.397a1.976 1.976 0 0 0 .023 1.905 4.002 4.002 0 0 0 1.783 1.708 3.795 3.795 0 0 0 1.652.477 3.89 3.89 0 0 0 1.624-.27 4.766 4.766 0 0 0 1.476-.936 5.792 5.792 0 0 0 1.18-1.542 6.73 6.73 0 0 0 .74-2.052 4.596 4.596 0 0 0-.036-1.849 3.41 3.41 0 0 0-.793-1.51 3.835 3.835 0 0 0-1.541-1.004 7.87 7.87 0 0 0-3.198-.324ZM110.095 299.114l.316.114c-.17.474-.335.946-.492 1.414q-.238.705-.493 1.415l3.613 1.207-.34.948-3.623-1.18-1.928 5.377a10.103 10.103 0 0 0-.631 2.465q-.065.885.982 1.2a5.943 5.943 0 0 0 2.347.01l.105.454a3.399 3.399 0 0 1-1.605.45 6.318 6.318 0 0 1-2.142-.455 3.58 3.58 0 0 1-1.028-.533 1.296 1.296 0 0 1-.47-.763 2.656 2.656 0 0 1 .048-1.128 14.4 14.4 0 0 1 .507-1.662l2.136-5.957q-.37-.132-.716-.242-.348-.109-.716-.243-.37-.133-.298-.329c.047-.132.203-.21.47-.233a4.57 4.57 0 0 0 2.021-.494 5.468 5.468 0 0 0 .866-.671 11.529 11.529 0 0 0 1.07-1.164ZM133.157 311.943l-7.652-1.568a7.565 7.565 0 0 0-.308 1.079 6.23 6.23 0 0 0-.1 2.023 4.448 4.448 0 0 0 .552 1.7 4 4 0 0 0 1.169 1.268 4.44 4.44 0 0 0 1.723.724 4.058 4.058 0 0 0 1.835-.023 7.326 7.326 0 0 0 1.986-.907l-.025.68a6.26 6.26 0 0 1-5.454 1.37 4.127 4.127 0 0 1-1.761-.819 4.816 4.816 0 0 1-1.251-1.5 5.72 5.72 0 0 1-.621-1.985 6.907 6.907 0 0 1 .1-2.309 6.398 6.398 0 0 1 .86-2.168 5.77 5.77 0 0 1 1.485-1.595 5.228 5.228 0 0 1 1.923-.878 5.101 5.101 0 0 1 2.202-.006 4.52 4.52 0 0 1 1.559.62 4.004 4.004 0 0 1 1.134 1.09 3.828 3.828 0 0 1 .614 1.468 5.184 5.184 0 0 1 .03 1.736Zm-7.398-2.116 4.17.854a5.133 5.133 0 0 0 1.327.144q.452-.037.384-.823a3.386 3.386 0 0 0-.49-1.444 2.133 2.133 0 0 0-1.486-.904 3.228 3.228 0 0 0-2.338.321 3.775 3.775 0 0 0-1.567 1.852ZM160.865 320.804l.815-.152a2.564 2.564 0 0 0 .959-.331.99.99 0 0 0 .295-.82l.095-5.012a3.689 3.689 0 0 0-.598-2.421 2.584 2.584 0 0 0-2.058-.794 4.104 4.104 0 0 0-3.25 1.562l-.12 6.328a2.601 2.601 0 0 0 .096.883c.07.197.273.337.608.417l1.422.336-.008.448q-1.427-.14-3.022-.17-1.595-.03-3.137.052l.008-.447.815-.18a3.737 3.737 0 0 0 1.143-.414.922.922 0 0 0 .366-.818l.094-4.983a3.471 3.471 0 0 0-.63-2.267 2.25 2.25 0 0 0-1.831-.86 3.506 3.506 0 0 0-1.082.175 5.363 5.363 0 0 0-1.144.497 4.08 4.08 0 0 0-.909.696 1.195 1.195 0 0 0-.38.805l-.108 5.71a1.676 1.676 0 0 0 .165.928.907.907 0 0 0 .568.347l1.421.335-.008.448a42.026 42.026 0 0 0-5.739-.108l.008-.448.816-.153a1.506 1.506 0 0 0 .833-.377 1.316 1.316 0 0 0 .225-.835l.116-6.048a2.561 2.561 0 0 0-.046-.574.81.81 0 0 0-.203-.396 1.013 1.013 0 0 0-.443-.246 7.304 7.304 0 0 0-.795-.184l.01-.447a5.09 5.09 0 0 0 2.726-2.02l.532.009-.051 2.686a12.113 12.113 0 0 1 2.229-1.608 4.353 4.353 0 0 1 2.152-.492 5.98 5.98 0 0 1 1.048.103 2.518 2.518 0 0 1 .834.326 2.779 2.779 0 0 1 .701.642 6.455 6.455 0 0 1 .653 1.034 8.074 8.074 0 0 1 1.973-1.474 5.144 5.144 0 0 1 2.46-.486 3.124 3.124 0 0 1 2.403 1.04 4.068 4.068 0 0 1 .857 2.859l-.108 5.655q-.02 1.036.427 1.128l1.255.248-.007.448q-1.427-.139-2.882-.167-1.456-.028-2.577.035ZM176.605 302.971l.01-.427 3.382-1.47 1.424 8.164a10.466 10.466 0 0 1 3.775-1.653 4.974 4.974 0 0 1 2.158.064 4.869 4.869 0 0 1 1.79.896 5.297 5.297 0 0 1 1.328 1.588 6.631 6.631 0 0 1 .74 2.117 6.491 6.491 0 0 1-.021 2.49 5.748 5.748 0 0 1-.876 2.071 5.399 5.399 0 0 1-1.598 1.515 5.954 5.954 0 0 1-2.16.818 5.04 5.04 0 0 1-1.198.05 11.943 11.943 0 0 1-1.189-.132c-.36-.06-.67-.12-.927-.18a2.225 2.225 0 0 0-.44-.079q-.44.078-.856 1.285l-.413.074-2.457-14.097q-.124-.716-.17-1.22a2.122 2.122 0 0 0-.25-.866 1.54 1.54 0 0 0-.659-.596 5.361 5.361 0 0 0-1.393-.412Zm6.047 13.328a2.538 2.538 0 0 0 1.08 1.802 2.97 2.97 0 0 0 2.189.328q4.165-.726 3.367-5.304a6.667 6.667 0 0 0-.659-1.988 4.987 4.987 0 0 0-1.151-1.475 4.285 4.285 0 0 0-1.529-.858 3.655 3.655 0 0 0-1.753-.106 5.246 5.246 0 0 0-1.927.677c-.495.313-.717.618-.666.91ZM213.041 304.105l-7.372 2.584a7.28 7.28 0 0 0 .292 1.085 6.198 6.198 0 0 0 .953 1.788 4.437 4.437 0 0 0 1.345 1.175 4.027 4.027 0 0 0 1.656.487 4.487 4.487 0 0 0 1.85-.263 4.054 4.054 0 0 0 1.561-.962 7.322 7.322 0 0 0 1.24-1.8l.328.597a6.258 6.258 0 0 1-3.978 3.976 4.112 4.112 0 0 1-1.93.203 4.803 4.803 0 0 1-1.844-.645 5.714 5.714 0 0 1-1.554-1.385 6.907 6.907 0 0 1-1.098-2.032 6.395 6.395 0 0 1-.377-2.301 5.815 5.815 0 0 1 .455-2.133 5.246 5.246 0 0 1 1.2-1.741 5.136 5.136 0 0 1 1.886-1.135 4.478 4.478 0 0 1 1.657-.27 4.002 4.002 0 0 1 1.533.354 3.812 3.812 0 0 1 1.28.945 5.175 5.175 0 0 1 .917 1.473Zm-7.435 1.983 4.017-1.408a5.145 5.145 0 0 0 1.213-.558c.246-.176.215-.476-.093-.903a3.407 3.407 0 0 0-1.162-.987 2.134 2.134 0 0 0-1.74-.013 3.23 3.23 0 0 0-1.842 1.477 3.791 3.791 0 0 0-.393 2.392ZM228.016 305.332l-.207-.398 1.122-.874a1.055 1.055 0 0 0 .437-.703 2.28 2.28 0 0 0-.332-.965l-2.495-4.762a1.162 1.162 0 0 0-.589-.607 2.121 2.121 0 0 0-1.124.115l-.747.202-.146-.397a7.545 7.545 0 0 0 1.19-1.651 4.285 4.285 0 0 0 .353-2.1l.447-.233q.4.643.836 1.412.434.769.901 1.66a7.375 7.375 0 0 1 .467-2.426 2.71 2.71 0 0 1 1.071-1.636 1.432 1.432 0 0 1 1.137-.153 1.323 1.323 0 0 1 .777.668 1.04 1.04 0 0 1 .104.862 1.08 1.08 0 0 1-.54.599 2.444 2.444 0 0 1-.959.25 2.34 2.34 0 0 0-.886.21.954.954 0 0 0-.422.555 3.157 3.157 0 0 0-.175.899 5.781 5.781 0 0 0 .023.95 2.096 2.096 0 0 0 .183.711l2.158 4.115q.34.648.659.746a1.9 1.9 0 0 0 1.068-.164l2.052-.727.21.395q-.697.302-1.528.706c-.554.27-1.147.57-1.774.899l-.323.169q-.867.454-1.599.87-.73.413-1.35.803ZM270.31 275.106q-1.53 1.315-4.21 3.82-2.68 2.504-4.054 3.905-.195-.661-.305-1.229a10.064 10.064 0 0 1-.154-1.294c-.03-.481-.037-1.058-.021-1.724s.04-1.514.076-2.543l.01-.85a19.97 19.97 0 0 0-.327-4.717 6.421 6.421 0 0 0-1.489-3.13 3.566 3.566 0 0 0-2.522-1.284 3.274 3.274 0 0 0-2.399.938 3.852 3.852 0 0 0-1.213 2.456 5.121 5.121 0 0 0 .708 3.075l-.546.357a6.815 6.815 0 0 1-1.154-3.962 4.836 4.836 0 0 1 1.639-3.351 4.89 4.89 0 0 1 1.63-1.025 5.093 5.093 0 0 1 1.813-.335 4.744 4.744 0 0 1 1.78.347 4.182 4.182 0 0 1 1.51 1.043 4.926 4.926 0 0 1 .916 1.349 6.417 6.417 0 0 1 .47 1.609 12.611 12.611 0 0 1 .151 2.025q0 1.131-.067 2.574l-.1 1.74a39.448 39.448 0 0 0 .098 5.312l4.808-4.493a4.191 4.191 0 0 0 .618-.692 1.36 1.36 0 0 0 .24-.645 2.013 2.013 0 0 0-.094-.757 10.018 10.018 0 0 0-.382-1.023l.431-.4ZM269.67 248.67a3.79 3.79 0 0 1 1.897-1.296 6.674 6.674 0 0 1 2.652-.257 10.706 10.706 0 0 1 3.057.778 13.967 13.967 0 0 1 5.613 4.298 10.891 10.891 0 0 1 1.555 2.732 6.594 6.594 0 0 1 .464 2.634 3.776 3.776 0 0 1-.77 2.197 3.842 3.842 0 0 1-1.914 1.32 6.674 6.674 0 0 1-2.653.257 10.76 10.76 0 0 1-3.045-.771 13.016 13.016 0 0 1-3.079-1.783 13.55 13.55 0 0 1-2.583-2.569 10.647 10.647 0 0 1-1.547-2.762 6.457 6.457 0 0 1-.424-2.62 3.854 3.854 0 0 1 .776-2.159Zm13.94 10.717a2.88 2.88 0 0 0 .104-3.558 26.355 26.355 0 0 0-10.111-7.774 3.027 3.027 0 0 0-3.529 4.546 19.084 19.084 0 0 0 4.597 4.54q6.705 5.153 8.939 2.246ZM300.123 233.597q-1.028 1.736-2.768 4.965-1.74 3.231-2.595 4.995a13.34 13.34 0 0 1-.68-1.065 10.275 10.275 0 0 1-.56-1.176q-.274-.672-.572-1.627-.296-.955-.74-2.435l-.264-.81a19.896 19.896 0 0 0-1.815-4.363 6.412 6.412 0 0 0-2.412-2.49 3.565 3.565 0 0 0-2.8-.412 3.275 3.275 0 0 0-1.974 1.657 3.837 3.837 0 0 0-.364 2.713 5.13 5.13 0 0 0 1.655 2.688l-.405.513a6.81 6.81 0 0 1-2.358-3.384 4.827 4.827 0 0 1 .48-3.7 4.911 4.911 0 0 1 1.217-1.492 5.085 5.085 0 0 1 1.612-.897 4.726 4.726 0 0 1 1.798-.24 4.194 4.194 0 0 1 1.764.503 5.008 5.008 0 0 1 1.299.987 6.444 6.444 0 0 1 .96 1.375 12.633 12.633 0 0 1 .789 1.872q.363 1.07.76 2.459l.462 1.68a38.986 38.986 0 0 0 1.79 5.003l3.119-5.793a4.104 4.104 0 0 0 .364-.855 1.363 1.363 0 0 0 .021-.687 1.986 1.986 0 0 0-.33-.687 9.464 9.464 0 0 0-.69-.848l.28-.517ZM293.43 214.368l-.429.385a7.246 7.246 0 0 1-2.075-2.788 4.628 4.628 0 0 1 .75-4.287 4.39 4.39 0 0 1 .997-.915 2.996 2.996 0 0 1 1.135-.454 2.175 2.175 0 0 1 1.1.068 3.418 3.418 0 0 1 1.723 1.365 11.129 11.129 0 0 1 1.281 2.898 4.457 4.457 0 0 1 .885-1.709 3.772 3.772 0 0 1 1.375-1.021 4.325 4.325 0 0 1 1.716-.342 5.668 5.668 0 0 1 1.888.325 6.2 6.2 0 0 1 3.702 3.349 6.853 6.853 0 0 1 .586 2.511 7.238 7.238 0 0 1-.408 2.732 7.324 7.324 0 0 1-1.394 2.629c-.51.534-.96.736-1.348.601a.7.7 0 0 1-.351-.268.752.752 0 0 1-.137-.461 1.13 1.13 0 0 1 .2-.583 1.902 1.902 0 0 1 .679-.596 4.685 4.685 0 0 0 1.978-2.132 3.548 3.548 0 0 0 .16-1.75 4.375 4.375 0 0 0-.63-1.654 5.758 5.758 0 0 0-1.239-1.39 5.508 5.508 0 0 0-1.705-.942 5.425 5.425 0 0 0-1.638-.313 4.352 4.352 0 0 0-1.44.184 2.987 2.987 0 0 0-1.129.648 2.612 2.612 0 0 0-.696 1.079 3.21 3.21 0 0 0 .207 2.32l-.604.12a16.497 16.497 0 0 1-.284-.72q-.139-.375-.266-.774-1.143-3.65-2.624-4.16a2.388 2.388 0 0 0-2.008.107 2.76 2.76 0 0 0-1.277 1.603 3.657 3.657 0 0 0-.04 2.222 4.506 4.506 0 0 0 1.36 2.113Z" class="d"/></svg>